<?xml version="1.0" encoding="UTF-8" standalone="no"?><svg xmlns="http://www.w3.org/2000/svg" xmlns:xlink="http://www.w3.org/1999/xlink" contentStyleType="text/css" height="510px" preserveAspectRatio="none" style="width:736px;height:510px;background:#FFFFFF;" version="1.1" viewBox="0 0 736 510" width="736px" zoomAndPan="magnify"><defs/><g><g id="elem_EB"><ellipse cx="402.5624" cy="349.0473" fill="#F1F1F1" rx="39.0624" ry="26.0473" style="stroke:#181818;stroke-width:0.5;"/><text fill="#000000" font-family="sans-serif" font-size="14" lengthAdjust="spacing" textLength="39" x="383.0624" y="343.7455">Event</text><text fill="#000000" font-family="sans-serif" font-size="14" lengthAdjust="spacing" textLength="27" x="389.0624" y="360.0424">Bus</text></g><g id="elem_SPRING"><ellipse cx="566.3991" cy="349.1113" fill="#F1F1F1" rx="42.8991" ry="14.6113" style="stroke:#181818;stroke-width:0.5;"/><text fill="#000000" font-family="sans-serif" font-size="14" lengthAdjust="spacing" textLength="44" x="541.3991" y="352.8588">Spring</text></g><g id="elem_EL"><ellipse cx="395.3762" cy="173.0473" fill="#F1F1F1" rx="50.3762" ry="26.0473" style="stroke:#181818;stroke-width:0.5;"/><text fill="#000000" font-family="sans-serif" font-size="14" lengthAdjust="spacing" textLength="39" x="375.8762" y="167.7455">Event</text><text fill="#000000" font-family="sans-serif" font-size="14" lengthAdjust="spacing" textLength="55" x="367.8762" y="184.0424">Listener</text></g><g id="elem_UIE"><ellipse cx="233.5624" cy="349.0473" fill="#F1F1F1" rx="39.0624" ry="26.0473" style="stroke:#181818;stroke-width:0.5;"/><text fill="#000000" font-family="sans-serif" font-size="14" lengthAdjust="spacing" textLength="13" x="227.0624" y="343.7455">UI</text><text fill="#000000" font-family="sans-serif" font-size="14" lengthAdjust="spacing" textLength="39" x="214.0624" y="360.0424">Event</text></g><g id="elem_TUIE"><ellipse cx="54.2548" cy="478.0473" fill="#F1F1F1" rx="48.2548" ry="26.0473" style="stroke:#181818;stroke-width:0.5;"/><text fill="#000000" font-family="sans-serif" font-size="14" lengthAdjust="spacing" textLength="29" x="39.7548" y="472.7455">Title</text><text fill="#000000" font-family="sans-serif" font-size="14" lengthAdjust="spacing" textLength="52" x="28.2548" y="489.0424">UIEvent</text></g><g id="elem_IUIE"><ellipse cx="171.2548" cy="478.0473" fill="#F1F1F1" rx="48.2548" ry="26.0473" style="stroke:#181818;stroke-width:0.5;"/><text fill="#000000" font-family="sans-serif" font-size="14" lengthAdjust="spacing" textLength="29" x="156.7548" y="472.7455">Icon</text><text fill="#000000" font-family="sans-serif" font-size="14" lengthAdjust="spacing" textLength="52" x="145.2548" y="489.0424">UIEvent</text></g><g id="elem_CCUIE"><ellipse cx="295.533" cy="478.0473" fill="#F1F1F1" rx="56.033" ry="26.0473" style="stroke:#181818;stroke-width:0.5;"/><text fill="#000000" font-family="sans-serif" font-size="14" lengthAdjust="spacing" textLength="63" x="264.033" y="472.7455">CssClass</text><text fill="#000000" font-family="sans-serif" font-size="14" lengthAdjust="spacing" textLength="52" x="269.533" y="489.0424">UIEvent</text></g><g id="elem_LUIE"><ellipse cx="419.2548" cy="478.0473" fill="#F1F1F1" rx="48.2548" ry="26.0473" style="stroke:#181818;stroke-width:0.5;"/><text fill="#000000" font-family="sans-serif" font-size="14" lengthAdjust="spacing" textLength="45" x="396.7548" y="472.7455">Layout</text><text fill="#000000" font-family="sans-serif" font-size="14" lengthAdjust="spacing" textLength="52" x="393.2548" y="489.0424">UIEvent</text></g><g id="elem_DO"><ellipse cx="269.4619" cy="173.0473" fill="#F1F1F1" rx="48.9619" ry="26.0473" style="stroke:#181818;stroke-width:0.5;"/><text fill="#000000" font-family="sans-serif" font-size="14" lengthAdjust="spacing" textLength="53" x="242.9619" y="167.7455">Domain</text><text fill="#000000" font-family="sans-serif" font-size="14" lengthAdjust="spacing" textLength="45" x="246.9619" y="184.0424">Object</text></g><g id="elem_PST"><ellipse cx="329.74" cy="22.048" fill="#F1F1F1" rx="68.24" ry="16.048" style="stroke:#181818;stroke-width:0.5;"/><text fill="#000000" font-family="sans-serif" font-size="14" lengthAdjust="spacing" textLength="88" x="282.74" y="25.7956">Presentation</text></g><g id="elem_GMN29"><path d="M466,115 L466,169 L446,173 L466,177 L466,230.9297 A0,0 0 0 0 466,230.9297 L729,230.9297 A0,0 0 0 0 729,230.9297 L729,125 L719,115 L466,115 A0,0 0 0 0 466,115 " fill="#FEFFDD" style="stroke:#181818;stroke-width:0.5;"/><path d="M719,115 L719,125 L729,125 L719,115 " fill="#FEFFDD" style="stroke:#181818;stroke-width:0.5;"/><text fill="#000000" font-family="sans-serif" font-size="13" lengthAdjust="spacing" textLength="210" x="472" y="132.0669">When DomainObject implements</text><text fill="#000000" font-family="sans-serif" font-size="13" lengthAdjust="spacing" textLength="242" x="472" y="147.1997">respective supporting methods itself (</text><ellipse cx="477.5" cy="157.8984" fill="#000000" rx="2.5" ry="2.5" style="stroke:#000000;stroke-width:0.0;"/><text fill="#000000" font-family="sans-serif" font-size="13" lengthAdjust="spacing" textLength="38" x="484" y="162.3325">title(),</text><ellipse cx="477.5" cy="173.0313" fill="#000000" rx="2.5" ry="2.5" style="stroke:#000000;stroke-width:0.0;"/><text fill="#000000" font-family="sans-serif" font-size="13" lengthAdjust="spacing" textLength="79" x="484" y="177.4653">iconName(),</text><ellipse cx="477.5" cy="188.1641" fill="#000000" rx="2.5" ry="2.5" style="stroke:#000000;stroke-width:0.0;"/><text fill="#000000" font-family="sans-serif" font-size="13" lengthAdjust="spacing" textLength="69" x="484" y="192.5981">cssClass(),</text><ellipse cx="477.5" cy="203.2969" fill="#000000" rx="2.5" ry="2.5" style="stroke:#000000;stroke-width:0.0;"/><text fill="#000000" font-family="sans-serif" font-size="13" lengthAdjust="spacing" textLength="58" x="484" y="207.731">layout()),</text><text fill="#000000" font-family="sans-serif" font-size="13" lengthAdjust="spacing" textLength="177" x="472" y="222.8638">modification is not possible.</text></g><!--MD5=[d1eae5240a55dd7693df787515d81648]
reverse link EB to SPRING--><g id="link_EB_SPRING"><path d="M447.06,349 C470.74,349 499.73,349 523.22,349 " fill="none" id="EB-backto-SPRING" style="stroke:#181818;stroke-width:1.0;stroke-dasharray:7.0,7.0;"/><polygon fill="#181818" points="441.78,349,450.78,353,446.78,349,450.78,345,441.78,349" style="stroke:#181818;stroke-width:1.0;"/><text fill="#000000" font-family="sans-serif" font-size="13" lengthAdjust="spacing" textLength="58" x="453.5" y="327.0669">provides/</text><text fill="#000000" font-family="sans-serif" font-size="13" lengthAdjust="spacing" textLength="60" x="452.5" y="342.1997">manages</text></g><!--MD5=[ac395a5f0af45a9274ed645000c8d5e4]
link EL to EB--><g id="link_EL_EB"><path d="M396.52,199.3 C397.78,230.7 399.93,284.2 401.28,317.75 " fill="none" id="EL-to-EB" style="stroke:#181818;stroke-width:1.0;"/><polygon fill="#181818" points="401.49,322.95,405.101,313.787,401.2759,317.9546,397.1083,314.1295,401.49,322.95" style="stroke:#181818;stroke-width:1.0;"/><text fill="#000000" font-family="sans-serif" font-size="13" lengthAdjust="spacing" textLength="58" x="427.5" y="274.0669">listens to</text><text fill="#000000" font-family="sans-serif" font-size="13" lengthAdjust="spacing" textLength="110" x="405.5" y="289.1997">(is subscribed to)</text></g><!--MD5=[bf93368643f63bec631408c5f416f802]
link UIE to EB--><g id="link_UIE_EB"><path d="M272.7,349 C298.2,349 331.52,349 358.02,349 " fill="none" id="UIE-to-EB" style="stroke:#181818;stroke-width:1.0;"/><polygon fill="#181818" points="363.22,349,354.22,345,358.22,349,354.22,353,363.22,349" style="stroke:#181818;stroke-width:1.0;"/><text fill="#000000" font-family="sans-serif" font-size="13" lengthAdjust="spacing" textLength="10" x="311" y="312.0669">is</text><text fill="#000000" font-family="sans-serif" font-size="13" lengthAdjust="spacing" textLength="61" x="287.5" y="327.1997">published</text><text fill="#000000" font-family="sans-serif" font-size="13" lengthAdjust="spacing" textLength="13" x="313.5" y="342.3325">to</text></g><!--MD5=[22518f582da1805f85153ed4e5db2b3a]
reverse link UIE to TUIE--><g id="link_UIE_TUIE"><path d="M203.07,371.59 C169.44,395.45 115.72,433.56 82.93,456.83 " fill="none" id="UIE-backto-TUIE" style="stroke:#181818;stroke-width:1.0;"/><polygon fill="#181818" points="207.47,368.47,197.8156,370.4174,203.3927,371.364,202.4461,376.9411,207.47,368.47" style="stroke:#181818;stroke-width:1.0;"/><text fill="#000000" font-family="sans-serif" font-size="13" lengthAdjust="spacing" textLength="22" x="156.5" y="418.0669">is a</text></g><!--MD5=[52ff9790534a8a85599632ccc74ed42d]
reverse link UIE to IUIE--><g id="link_UIE_IUIE"><path d="M219.59,378.49 C208.75,400.69 193.86,431.2 183.53,452.35 " fill="none" id="UIE-backto-IUIE" style="stroke:#181818;stroke-width:1.0;"/><polygon fill="#181818" points="221.84,373.89,214.2936,380.2186,219.6439,378.3819,221.4806,383.7323,221.84,373.89" style="stroke:#181818;stroke-width:1.0;"/><text fill="#000000" font-family="sans-serif" font-size="13" lengthAdjust="spacing" textLength="22" x="207.5" y="418.0669">is a</text></g><!--MD5=[d5aa250f5170024e0d6b0b03983e2b07]
reverse link UIE to CCUIE--><g id="link_UIE_CCUIE"><path d="M247.41,378.49 C258.25,400.69 273.14,431.2 283.47,452.35 " fill="none" id="UIE-backto-CCUIE" style="stroke:#181818;stroke-width:1.0;"/><polygon fill="#181818" points="245.16,373.89,245.5194,383.7323,247.3561,378.3819,252.7064,380.2186,245.16,373.89" style="stroke:#181818;stroke-width:1.0;"/><text fill="#000000" font-family="sans-serif" font-size="13" lengthAdjust="spacing" textLength="22" x="269.5" y="418.0669">is a</text></g><!--MD5=[1c9c458e17097cd9de663310a3d77be6]
reverse link UIE to LUIE--><g id="link_UIE_LUIE"><path d="M264.31,371.04 C299.36,394.97 356.15,433.75 390.45,457.16 " fill="none" id="UIE-backto-LUIE" style="stroke:#181818;stroke-width:1.0;"/><polygon fill="#181818" points="260.15,368.2,265.3138,376.5866,264.2748,371.026,269.8354,369.9869,260.15,368.2" style="stroke:#181818;stroke-width:1.0;"/><text fill="#000000" font-family="sans-serif" font-size="13" lengthAdjust="spacing" textLength="22" x="339.5" y="418.0669">is a</text></g><!--MD5=[706f214c806c8835e30c5fe645838078]
link DO to UIE--><g id="link_DO_UIE"><path d="M264.34,198.93 C257.85,230.33 246.69,284.23 239.73,317.89 " fill="none" id="DO-to-UIE" style="stroke:#181818;stroke-width:1.0;"/><polygon fill="#181818" points="238.65,323.12,244.3689,315.1016,239.6498,318.221,236.5304,313.5019,238.65,323.12" style="stroke:#181818;stroke-width:1.0;"/><text fill="#000000" font-family="sans-serif" font-size="13" lengthAdjust="spacing" textLength="33" x="205.6994" y="219.1603">when</text><text fill="#000000" font-family="sans-serif" font-size="13" lengthAdjust="spacing" textLength="62" x="193.1994" y="234.2932">rendered,</text><text fill="#000000" font-family="sans-serif" font-size="13" lengthAdjust="spacing" textLength="51" x="198.6994" y="249.426">leads to</text><text fill="#000000" font-family="sans-serif" font-size="13" lengthAdjust="spacing" textLength="57" x="195.6994" y="264.5588">emission</text><text fill="#000000" font-family="sans-serif" font-size="13" lengthAdjust="spacing" textLength="12" x="218.1994" y="279.6916">of</text></g><!--MD5=[a65288458555cbe3a52fc05d0bce6105]
reverse link PST to DO--><g id="link_PST_DO"><path d="M321.49,42.9 C310.6,69.94 291.13,118.28 279.36,147.51 " fill="none" id="PST-backto-DO" style="stroke:#181818;stroke-width:1.0;"/><polygon fill="#181818" points="323.42,38.11,316.3381,44.9544,321.5458,42.7454,323.7548,47.9532,323.42,38.11" style="stroke:#181818;stroke-width:1.0;"/><text fill="#000000" font-family="sans-serif" font-size="13" lengthAdjust="spacing" textLength="23" x="311.5" y="81.0669">has</text></g><!--MD5=[da64892d008c425404a326a43e6271a9]
reverse link PST to EL--><g id="link_PST_EL"><path d="M338.31,42.9 C350.29,69.94 371.7,118.28 384.65,147.51 " fill="none" id="PST-backto-EL" style="stroke:#181818;stroke-width:1.0;"/><polygon fill="#181818" points="336.19,38.11,336.1843,47.9589,338.218,42.6802,343.4967,44.714,336.19,38.11" style="stroke:#181818;stroke-width:1.0;"/><text fill="#000000" font-family="sans-serif" font-size="13" lengthAdjust="spacing" textLength="70" x="358.5" y="81.0669">can modify</text></g><!--MD5=[6cb5099c06d539d5e806396fe8be99af]
@startuml
skinparam nodesep 20

(Event\nBus) as EB
(Spring) as SPRING
SPRING .l.> EB : provides/\nmanages
(Event\nListener) as EL
EL - -> EB : listens to \n (is subscribed to)

(UI\nEvent) as UIE
UIE -r-> EB : is \n published \n to

(Title\nUIEvent) as TUIE
TUIE -u-> UIE : is a
(Icon\nUIEvent) as IUIE
IUIE -u-> UIE : is a

(CssClass\nUIEvent) as CCUIE
CCUIE -u-> UIE : is a
(Layout\nUIEvent) as LUIE
LUIE -u-> UIE : is a


(Domain\nObject) as DO
DO "when \n rendered, \n leads to \n emission \nof"-d-> UIE

(Presentation) as PST
DO -u-> PST : has
EL -u-> PST : can modify
note right of EL
When DomainObject implements
respective supporting methods itself (
* title(),
* iconName(),
* cssClass(),
* layout()),
modification is not possible.
end note
@enduml

PlantUML version 1.2022.12(Sun Oct 23 18:12:26 GMT 2022)
(GPL source distribution)
Java Runtime: OpenJDK Runtime Environment
JVM: OpenJDK 64-Bit Server VM
Default Encoding: UTF-8
Language: en
Country: US
--></g></svg>