<?xml version="1.0" encoding="UTF-8" standalone="no"?><svg xmlns="http://www.w3.org/2000/svg" xmlns:xlink="http://www.w3.org/1999/xlink" contentStyleType="text/css" height="485px" preserveAspectRatio="none" style="width:1020px;height:485px;background:#FFFFFF;" version="1.1" viewBox="0 0 1020 485" width="1020px" zoomAndPan="magnify"><defs/><g><g id="elem_EB"><ellipse cx="765.0624" cy="178.0473" fill="#F1F1F1" rx="39.0624" ry="26.0473" style="stroke:#181818;stroke-width:0.5;"/><text fill="#000000" font-family="sans-serif" font-size="14" lengthAdjust="spacing" textLength="39" x="745.5624" y="172.7455">Event</text><text fill="#000000" font-family="sans-serif" font-size="14" lengthAdjust="spacing" textLength="27" x="751.5624" y="189.0424">Bus</text></g><g id="elem_SPRING"><ellipse cx="943.8991" cy="178.1113" fill="#F1F1F1" rx="42.8991" ry="14.6113" style="stroke:#181818;stroke-width:0.5;"/><text fill="#000000" font-family="sans-serif" font-size="14" lengthAdjust="spacing" textLength="44" x="918.8991" y="181.8588">Spring</text></g><g id="elem_EL"><ellipse cx="764.8762" cy="32.0473" fill="#F1F1F1" rx="50.3762" ry="26.0473" style="stroke:#181818;stroke-width:0.5;"/><text fill="#000000" font-family="sans-serif" font-size="14" lengthAdjust="spacing" textLength="39" x="745.3762" y="26.7455">Event</text><text fill="#000000" font-family="sans-serif" font-size="14" lengthAdjust="spacing" textLength="55" x="737.3762" y="43.0424">Listener</text></g><g id="elem_LCE"><ellipse cx="536.9178" cy="178.0473" fill="#F1F1F1" rx="74.4178" ry="26.0473" style="stroke:#181818;stroke-width:0.5;"/><text fill="#000000" font-family="sans-serif" font-size="14" font-style="italic" lengthAdjust="spacing" textLength="45" x="514.4178" y="172.7455">Object</text><text fill="#000000" font-family="sans-serif" font-size="14" lengthAdjust="spacing" textLength="89" x="492.4178" y="189.0424">LifecyleEvent</text></g><g id="elem_C"><ellipse cx="963.8762" cy="324.0473" fill="#F1F1F1" rx="50.3762" ry="26.0473" style="stroke:#181818;stroke-width:0.5;"/><text fill="#000000" font-family="sans-serif" font-size="14" lengthAdjust="spacing" textLength="55" x="936.3762" y="318.7455">Created</text><text fill="#000000" font-family="sans-serif" font-size="14" lengthAdjust="spacing" textLength="39" x="944.3762" y="335.0424">Event</text></g><g id="elem_L"><ellipse cx="831.0477" cy="324.0473" fill="#F1F1F1" rx="47.5477" ry="26.0473" style="stroke:#181818;stroke-width:0.5;"/><text fill="#000000" font-family="sans-serif" font-size="14" lengthAdjust="spacing" textLength="51" x="805.5477" y="318.7455">Loaded</text><text fill="#000000" font-family="sans-serif" font-size="14" lengthAdjust="spacing" textLength="39" x="811.5477" y="335.0424">Event</text></g><g id="elem_PNG"><ellipse cx="689.0685" cy="324.0473" fill="#F1F1F1" rx="59.5685" ry="26.0473" style="stroke:#181818;stroke-width:0.5;"/><text fill="#000000" font-family="sans-serif" font-size="14" lengthAdjust="spacing" textLength="68" x="655.0685" y="318.7455">Persisting</text><text fill="#000000" font-family="sans-serif" font-size="14" lengthAdjust="spacing" textLength="39" x="669.5685" y="335.0424">Event</text></g><g id="elem_PED"><ellipse cx="536.9472" cy="324.0473" fill="#F1F1F1" rx="57.4472" ry="26.0473" style="stroke:#181818;stroke-width:0.5;"/><text fill="#000000" font-family="sans-serif" font-size="14" lengthAdjust="spacing" textLength="65" x="504.4472" y="318.7455">Persisted</text><text fill="#000000" font-family="sans-serif" font-size="14" lengthAdjust="spacing" textLength="39" x="517.4472" y="335.0424">Event</text></g><g id="elem_UNG"><ellipse cx="388.8259" cy="324.0473" fill="#F1F1F1" rx="55.3259" ry="26.0473" style="stroke:#181818;stroke-width:0.5;"/><text fill="#000000" font-family="sans-serif" font-size="14" lengthAdjust="spacing" textLength="62" x="357.8259" y="318.7455">Updating</text><text fill="#000000" font-family="sans-serif" font-size="14" lengthAdjust="spacing" textLength="39" x="369.3259" y="335.0424">Event</text></g><g id="elem_UED"><ellipse cx="245.2046" cy="324.0473" fill="#F1F1F1" rx="53.2046" ry="26.0473" style="stroke:#181818;stroke-width:0.5;"/><text fill="#000000" font-family="sans-serif" font-size="14" lengthAdjust="spacing" textLength="59" x="215.7046" y="318.7455">Updated</text><text fill="#000000" font-family="sans-serif" font-size="14" lengthAdjust="spacing" textLength="39" x="225.7046" y="335.0424">Event</text></g><g id="elem_RNG"><ellipse cx="95.7756" cy="324.0473" fill="#F1F1F1" rx="60.2756" ry="26.0473" style="stroke:#181818;stroke-width:0.5;"/><text fill="#000000" font-family="sans-serif" font-size="14" lengthAdjust="spacing" textLength="69" x="61.2756" y="318.7455">Removing</text><text fill="#000000" font-family="sans-serif" font-size="14" lengthAdjust="spacing" textLength="39" x="76.2756" y="335.0424">Event</text></g><g id="elem_FS"><ellipse cx="963.8406" cy="453.0473" fill="#F1F1F1" rx="46.8406" ry="26.0473" style="stroke:#181818;stroke-width:0.5;"/><text fill="#000000" font-family="sans-serif" font-size="14" lengthAdjust="spacing" textLength="50" x="938.8406" y="447.7455">Factory</text><text fill="#000000" font-family="sans-serif" font-size="14" lengthAdjust="spacing" textLength="50" x="938.8406" y="464.0424">Service</text></g><g id="elem_RS"><ellipse cx="427.8112" cy="453.0473" fill="#F1F1F1" rx="63.8112" ry="26.0473" style="stroke:#181818;stroke-width:0.5;"/><text fill="#000000" font-family="sans-serif" font-size="14" lengthAdjust="spacing" textLength="74" x="390.8112" y="447.7455">Repository</text><text fill="#000000" font-family="sans-serif" font-size="14" lengthAdjust="spacing" textLength="50" x="402.8112" y="464.0424">Service</text></g><g id="elem_GMN47"><path d="M6,135 L6,220.6641 A0,0 0 0 0 6,220.6641 L92,220.6641 L96,297.84 L100,220.6641 L186,220.6641 A0,0 0 0 0 186,220.6641 L186,145 L176,135 L6,135 A0,0 0 0 0 6,135 " fill="#FEFFDD" style="stroke:#181818;stroke-width:0.5;"/><path d="M176,135 L176,145 L186,145 L176,135 " fill="#FEFFDD" style="stroke:#181818;stroke-width:0.5;"/><text fill="#000000" font-family="sans-serif" font-size="13" lengthAdjust="spacing" textLength="107" x="12" y="152.0669">JDO/Datanucleus</text><text fill="#000000" font-family="sans-serif" font-size="13" lengthAdjust="spacing" textLength="109" x="12" y="167.1997">does not support</text><text fill="#000000" font-family="sans-serif" font-size="13" lengthAdjust="spacing" textLength="105" x="12" y="182.3325">something like a</text><text fill="#000000" font-family="sans-serif" font-size="13" lengthAdjust="spacing" textLength="114" x="12" y="197.4653">"Removed Event".</text><text fill="#000000" font-family="sans-serif" font-size="13" lengthAdjust="spacing" textLength="159" x="12" y="212.5981">Hence not implemented.</text></g><!--MD5=[d1eae5240a55dd7693df787515d81648]
reverse link EB to SPRING--><g id="link_EB_SPRING"><path d="M809.39,178 C837.28,178 873.07,178 900.73,178 " fill="none" id="EB-backto-SPRING" style="stroke:#181818;stroke-width:1.0;stroke-dasharray:7.0,7.0;"/><polygon fill="#181818" points="804.28,178,813.28,182,809.28,178,813.28,174,804.28,178" style="stroke:#181818;stroke-width:1.0;"/><text fill="#000000" font-family="sans-serif" font-size="13" lengthAdjust="spacing" textLength="58" x="823.5" y="156.0669">provides/</text><text fill="#000000" font-family="sans-serif" font-size="13" lengthAdjust="spacing" textLength="60" x="822.5" y="171.1997">manages</text></g><!--MD5=[ac395a5f0af45a9274ed645000c8d5e4]
link EL to EB--><g id="link_EL_EB"><path d="M765,58.08 C765,82.71 765,120.31 765,146.62 " fill="none" id="EL-to-EB" style="stroke:#181818;stroke-width:1.0;"/><polygon fill="#181818" points="765,151.72,769,142.72,765,146.72,761,142.72,765,151.72" style="stroke:#181818;stroke-width:1.0;"/><text fill="#000000" font-family="sans-serif" font-size="13" lengthAdjust="spacing" textLength="41" x="766" y="101.0669">listens</text></g><!--MD5=[2f6280d0eca489a682568452e961fe9c]
link LCE to EB--><g id="link_LCE_EB"><path d="M611.66,178 C647.63,178 689.56,178 720.47,178 " fill="none" id="LCE-to-EB" style="stroke:#181818;stroke-width:1.0;"/><polygon fill="#181818" points="725.72,178,716.72,174,720.72,178,716.72,182,725.72,178" style="stroke:#181818;stroke-width:1.0;"/><text fill="#000000" font-family="sans-serif" font-size="13" lengthAdjust="spacing" textLength="78" x="629.75" y="171.0669">published to</text></g><!--MD5=[75ccd0a7c0177918b2f4e1fe034bbd39]
reverse link LCE to C--><g id="link_LCE_C"><path d="M595.75,197.83 C667,220.82 790.67,261.19 896,298 C905.02,301.15 914.68,304.64 923.81,307.98 " fill="none" id="LCE-backto-C" style="stroke:#181818;stroke-width:1.0;"/><polygon fill="#181818" points="590.71,196.21,598.0606,202.7651,595.4716,197.7354,600.5013,195.1465,590.71,196.21" style="stroke:#181818;stroke-width:1.0;"/><text fill="#000000" font-family="sans-serif" font-size="13" lengthAdjust="spacing" textLength="22" x="808" y="264.0669">is a</text></g><!--MD5=[bbb235f4ef92c0bd6a170ad65aa49446]
reverse link LCE to L--><g id="link_LCE_L"><path d="M583.66,201.85 C642.83,230.84 743.49,280.14 796.3,306 " fill="none" id="LCE-backto-L" style="stroke:#181818;stroke-width:1.0;"/><polygon fill="#181818" points="579.12,199.63,585.4391,207.1844,583.6092,201.8317,588.9618,200.0017,579.12,199.63" style="stroke:#181818;stroke-width:1.0;"/><text fill="#000000" font-family="sans-serif" font-size="13" lengthAdjust="spacing" textLength="22" x="711" y="264.0669">is a</text></g><!--MD5=[c486c5af1b93da1afdaf51b149c02319]
reverse link LCE to PNG--><g id="link_LCE_PNG"><path d="M565.87,206.35 C594.53,233.51 637.98,274.67 664.87,300.14 " fill="none" id="LCE-backto-PNG" style="stroke:#181818;stroke-width:1.0;"/><polygon fill="#181818" points="562.1,202.78,565.8945,211.8685,565.7343,206.214,571.3889,206.0537,562.1,202.78" style="stroke:#181818;stroke-width:1.0;"/><text fill="#000000" font-family="sans-serif" font-size="13" lengthAdjust="spacing" textLength="22" x="627" y="264.0669">is a</text></g><!--MD5=[860bf4085319c7143ca9ad46b74d2438]
reverse link LCE to PED--><g id="link_LCE_PED"><path d="M537,209.17 C537,235.42 537,273.03 537,297.72 " fill="none" id="LCE-backto-PED" style="stroke:#181818;stroke-width:1.0;"/><polygon fill="#181818" points="537,204.08,533,213.08,537,209.08,541,213.08,537,204.08" style="stroke:#181818;stroke-width:1.0;"/><text fill="#000000" font-family="sans-serif" font-size="13" lengthAdjust="spacing" textLength="22" x="538" y="264.0669">is a</text></g><!--MD5=[943416907fe380fee497bcc034fd57b7]
reverse link LCE to UNG--><g id="link_LCE_UNG"><path d="M508.89,206.35 C480.98,233.51 438.68,274.67 412.5,300.14 " fill="none" id="LCE-backto-UNG" style="stroke:#181818;stroke-width:1.0;"/><polygon fill="#181818" points="512.56,202.78,503.3185,206.1852,508.9748,206.2652,508.8948,211.9215,512.56,202.78" style="stroke:#181818;stroke-width:1.0;"/><text fill="#000000" font-family="sans-serif" font-size="13" lengthAdjust="spacing" textLength="22" x="464" y="264.0669">is a</text></g><!--MD5=[c61e2a0637541a1589aa14b17c754823]
reverse link LCE to UED--><g id="link_LCE_UED"><path d="M490.37,202 C432.39,230.59 334.61,278.81 281.68,304.91 " fill="none" id="LCE-backto-UED" style="stroke:#181818;stroke-width:1.0;"/><polygon fill="#181818" points="495.16,199.63,485.3182,200.0017,490.6708,201.8317,488.8409,207.1844,495.16,199.63" style="stroke:#181818;stroke-width:1.0;"/><text fill="#000000" font-family="sans-serif" font-size="13" lengthAdjust="spacing" textLength="22" x="392" y="264.0669">is a</text></g><!--MD5=[30d918aa703d4b8f2ff689ec47e1756d]
reverse link LCE to RNG--><g id="link_LCE_RNG"><path d="M478.89,197.98 C390.67,226.78 224.66,280.99 143.33,307.54 " fill="none" id="LCE-backto-RNG" style="stroke:#181818;stroke-width:1.0;"/><polygon fill="#181818" points="483.81,196.37,474.0122,195.3682,479.0581,197.9254,476.5009,202.9713,483.81,196.37" style="stroke:#181818;stroke-width:1.0;"/><text fill="#000000" font-family="sans-serif" font-size="13" lengthAdjust="spacing" textLength="22" x="318" y="264.0669">is a</text></g><!--MD5=[1cbe179d3daec32f5faa981a16301542]
reverse link C to FS--><g id="link_C_FS"><path d="M964,355.21 C964,377.1 964,406.36 964,426.96 " fill="none" id="C-backto-FS" style="stroke:#181818;stroke-width:1.0;"/><polygon fill="#181818" points="964,350.09,960,359.09,964,355.09,968,359.09,964,350.09" style="stroke:#181818;stroke-width:1.0;"/><text fill="#000000" font-family="sans-serif" font-size="13" lengthAdjust="spacing" textLength="36" x="965" y="393.0669">emits</text></g><!--MD5=[3a8bc639e179d896293946457acfd753]
reverse link L to RS--><g id="link_L_RS"><path d="M788.25,341.83 C780.86,344.63 773.23,347.45 766,350 C666.15,385.24 547.15,419.37 480.31,437.84 " fill="none" id="L-backto-RS" style="stroke:#181818;stroke-width:1.0;"/><polygon fill="#181818" points="793.32,339.9,783.4865,339.351,788.6448,341.6728,786.323,346.8312,793.32,339.9" style="stroke:#181818;stroke-width:1.0;"/><text fill="#000000" font-family="sans-serif" font-size="13" lengthAdjust="spacing" textLength="36" x="675" y="393.0669">emits</text></g><!--MD5=[4bd74ea313b3c1610abe58247970ba03]
reverse link PNG to RS--><g id="link_PNG_RS"><path d="M645.51,346.16 C596.01,370.25 515.81,409.27 467.86,432.6 " fill="none" id="PNG-backto-RS" style="stroke:#181818;stroke-width:1.0;"/><polygon fill="#181818" points="650.21,343.88,640.3668,344.2141,645.7125,346.0645,643.862,351.4102,650.21,343.88" style="stroke:#181818;stroke-width:1.0;"/><text fill="#000000" font-family="sans-serif" font-size="13" lengthAdjust="spacing" textLength="36" x="575" y="393.0669">emits</text></g><!--MD5=[b9bfa1d258362552b7ecee7be0bb4f9a]
reverse link PED to RS--><g id="link_PED_RS"><path d="M513.48,352.41 C494.13,374.95 466.98,406.58 448.51,428.11 " fill="none" id="PED-backto-RS" style="stroke:#181818;stroke-width:1.0;"/><polygon fill="#181818" points="516.75,348.59,507.848,352.8036,513.489,352.3802,513.9123,358.0212,516.75,348.59" style="stroke:#181818;stroke-width:1.0;"/><text fill="#000000" font-family="sans-serif" font-size="13" lengthAdjust="spacing" textLength="36" x="491" y="393.0669">emits</text></g><!--MD5=[043bd61570ca63bf2260ec1fb0bddafc]
reverse link UNG to RS--><g id="link_UNG_RS"><path d="M398.1,354.62 C404.83,376.54 413.89,406.06 420.27,426.84 " fill="none" id="UNG-backto-RS" style="stroke:#181818;stroke-width:1.0;"/><polygon fill="#181818" points="396.61,349.79,395.4398,359.5691,398.0834,354.568,403.0846,357.2116,396.61,349.79" style="stroke:#181818;stroke-width:1.0;"/><text fill="#000000" font-family="sans-serif" font-size="13" lengthAdjust="spacing" textLength="36" x="412" y="393.0669">emits</text></g><!--MD5=[44f5cd522503cd2c479f17cc879102b6]
reverse link UED to RS--><g id="link_UED_RS"><path d="M279.24,348.76 C312.95,372.16 364,407.59 396.67,430.26 " fill="none" id="UED-backto-RS" style="stroke:#181818;stroke-width:1.0;"/><polygon fill="#181818" points="274.81,345.69,279.9405,354.097,278.9235,348.5323,284.4882,347.5154,274.81,345.69" style="stroke:#181818;stroke-width:1.0;"/><text fill="#000000" font-family="sans-serif" font-size="13" lengthAdjust="spacing" textLength="36" x="349" y="393.0669">emits</text></g><!--MD5=[85ca2b8f2d46686e0c0375c2524e1508]
reverse link RNG to RS--><g id="link_RNG_RS"><path d="M144.31,344.17 C181.37,358.81 233.84,379.39 280,397 C313.94,409.94 352.39,424.22 381.59,434.99 " fill="none" id="RNG-backto-RS" style="stroke:#181818;stroke-width:1.0;"/><polygon fill="#181818" points="139.42,342.23,146.3168,349.2609,144.0692,344.0697,149.2604,341.8221,139.42,342.23" style="stroke:#181818;stroke-width:1.0;"/><text fill="#000000" font-family="sans-serif" font-size="13" lengthAdjust="spacing" textLength="36" x="281" y="393.0669">emits</text></g><!--MD5=[33eed7511ad74a1657a9a3881476134e]
@startuml
(Event\nBus) as EB
(Spring) as SPRING
SPRING .l.> EB : provides/\nmanages
(Event\nListener) as EL
EL - -> EB : listens

(<i>Object</i>\nLifecyleEvent) as LCE
LCE -> EB : published to
(Created\nEvent) as C
C -u-> LCE : is a
(Loaded\nEvent) as L
L -u-> LCE : is a

(Persisting\nEvent) as PNG
PNG -u-> LCE : is a
(Persisted\nEvent) as PED
PED -u-> LCE : is a

(Updating\nEvent) as UNG
UNG -u-> LCE : is a
(Updated\nEvent) as UED
UED -u-> LCE : is a

(Removing\nEvent) as RNG
RNG -u-> LCE : is a

(Factory\nService) as FS
FS -u-> C :emits
(Repository\nService) as RS
RS -u-> L :emits
RS -u-> PNG :emits
RS -u-> PED :emits
RS -u-> UNG :emits
RS -u-> UED :emits
RS -u-> RNG :emits

note top of RNG
JDO/Datanucleus
does not support
something like a
"Removed Event".
Hence not implemented.
end note
@enduml

PlantUML version 1.2022.12(Sun Oct 23 18:12:26 GMT 2022)
(GPL source distribution)
Java Runtime: OpenJDK Runtime Environment
JVM: OpenJDK 64-Bit Server VM
Default Encoding: UTF-8
Language: en
Country: US
--></g></svg>