<?xml version="1.0" encoding="UTF-8" standalone="no"?><svg xmlns="http://www.w3.org/2000/svg" xmlns:xlink="http://www.w3.org/1999/xlink" contentStyleType="text/css" height="706px" preserveAspectRatio="none" style="width:832px;height:706px;background:#FFFFFF;" version="1.1" viewBox="0 0 832 706" width="832px" zoomAndPan="magnify"><defs/><g><!--MD5=[9334935552d4be9f1119fee87bd9c090]
cluster metamodel--><g id="cluster_metamodel"><path d="M8.5,6 L96.5,6 A3.75,3.75 0 0 1 99,8.5 L106,28.2969 L620.5,28.2969 A2.5,2.5 0 0 1 623,30.7969 L623,696.5 A2.5,2.5 0 0 1 620.5,699 L8.5,699 A2.5,2.5 0 0 1 6,696.5 L6,8.5 A2.5,2.5 0 0 1 8.5,6 " fill="none" style="stroke:#000000;stroke-width:1.5;"/><line style="stroke:#000000;stroke-width:1.5;" x1="6" x2="106" y1="28.2969" y2="28.2969"/><text fill="#000000" font-family="sans-serif" font-size="14" font-weight="bold" lengthAdjust="spacing" textLength="87" x="10" y="20.9951">metamodel</text></g><!--MD5=[58f92eeca1b9b283e19d96b306260adc]
cluster runtime--><g id="cluster_runtime"><path d="M649.5,18.5 L711.5,18.5 A3.75,3.75 0 0 1 714,21 L721,40.7969 L822.5,40.7969 A2.5,2.5 0 0 1 825,43.2969 L825,272.5 A2.5,2.5 0 0 1 822.5,275 L649.5,275 A2.5,2.5 0 0 1 647,272.5 L647,21 A2.5,2.5 0 0 1 649.5,18.5 " fill="none" style="stroke:#000000;stroke-width:1.5;"/><line style="stroke:#000000;stroke-width:1.5;" x1="647" x2="721" y1="40.7969" y2="40.7969"/><text fill="#000000" font-family="sans-serif" font-size="14" font-weight="bold" lengthAdjust="spacing" textLength="61" x="651" y="33.4951">runtime</text></g><!--MD5=[ae1f2a881dfbd2e0487d7ef3d2909269]
class LogicalType--><g id="elem_LogicalType"><rect codeLine="21" fill="#FFFFFF" height="64.5625" id="LogicalType" rx="2.5" ry="2.5" style="stroke:#181818;stroke-width:0.5;" width="113" x="315.5" y="41"/><ellipse cx="330.5" cy="61.1328" fill="#ADD1B2" rx="11" ry="11" style="stroke:#181818;stroke-width:1.0;"/><path d="M333.4688,66.7734 Q332.8906,67.0703 332.25,67.2109 Q331.6094,67.3672 330.9063,67.3672 Q328.4063,67.3672 327.0781,65.7266 Q325.7656,64.0703 325.7656,60.9453 Q325.7656,57.8203 327.0781,56.1641 Q328.4063,54.5078 330.9063,54.5078 Q331.6094,54.5078 332.25,54.6641 Q332.9063,54.8203 333.4688,55.1172 L333.4688,57.8359 Q332.8438,57.2578 332.25,56.9922 Q331.6563,56.7109 331.0313,56.7109 Q329.6875,56.7109 329,57.7891 Q328.3125,58.8516 328.3125,60.9453 Q328.3125,63.0391 329,64.1172 Q329.6875,65.1797 331.0313,65.1797 Q331.6563,65.1797 332.25,64.9141 Q332.8438,64.6328 333.4688,64.0547 L333.4688,66.7734 Z " fill="#000000"/><text fill="#000000" font-family="sans-serif" font-size="12" font-style="italic" lengthAdjust="spacing" textLength="47" x="361.5" y="57.1387">«value»</text><text fill="#000000" font-family="sans-serif" font-size="14" lengthAdjust="spacing" textLength="81" x="344.5" y="72.9639">LogicalType</text><line style="stroke:#181818;stroke-width:0.5;" x1="316.5" x2="427.5" y1="81.2656" y2="81.2656"/><ellipse cx="326.5" cy="94.9141" fill="none" rx="3" ry="3" style="stroke:#038048;stroke-width:1.0;"/><text fill="#000000" font-family="sans-serif" font-size="14" lengthAdjust="spacing" textLength="30" x="335.5" y="98.2607">type</text></g><!--MD5=[e7dba77a4199cef7594906a5928d38f6]
class Object\nSpecification--><g id="elem_Object\nSpecification"><rect codeLine="25" fill="#00FFFF" height="105.1563" id="Object\nSpecification" rx="2.5" ry="2.5" style="stroke:#181818;stroke-width:0.5;" width="188" x="100" y="166"/><ellipse cx="146.25" cy="194.2813" fill="#ADD1B2" rx="11" ry="11" style="stroke:#181818;stroke-width:1.0;"/><path d="M149.2188,199.9219 Q148.6406,200.2188 148,200.3594 Q147.3594,200.5156 146.6563,200.5156 Q144.1563,200.5156 142.8281,198.875 Q141.5156,197.2188 141.5156,194.0938 Q141.5156,190.9688 142.8281,189.3125 Q144.1563,187.6563 146.6563,187.6563 Q147.3594,187.6563 148,187.8125 Q148.6563,187.9688 149.2188,188.2656 L149.2188,190.9844 Q148.5938,190.4063 148,190.1406 Q147.4063,189.8594 146.7813,189.8594 Q145.4375,189.8594 144.75,190.9375 Q144.0625,192 144.0625,194.0938 Q144.0625,196.1875 144.75,197.2656 Q145.4375,198.3281 146.7813,198.3281 Q147.4063,198.3281 148,198.0625 Q148.5938,197.7813 149.2188,197.2031 L149.2188,199.9219 Z " fill="#000000"/><text fill="#000000" font-family="sans-serif" font-size="12" font-style="italic" lengthAdjust="spacing" textLength="43" x="188.75" y="182.1387">«desc»</text><text fill="#000000" font-family="sans-serif" font-size="14" lengthAdjust="spacing" textLength="45" x="187.75" y="197.9639">Object</text><text fill="#000000" font-family="sans-serif" font-size="14" lengthAdjust="spacing" textLength="87" x="166.75" y="214.2607">Specification</text><line style="stroke:#181818;stroke-width:0.5;" x1="101" x2="287" y1="222.5625" y2="222.5625"/><ellipse cx="111" cy="236.2109" fill="none" rx="3" ry="3" style="stroke:#038048;stroke-width:1.0;"/><text fill="#000000" font-family="sans-serif" font-size="14" lengthAdjust="spacing" textLength="90" x="120" y="239.5576">objectSpecId</text><line style="stroke:#181818;stroke-width:1.0;stroke-dasharray:1.0,2.0;" x1="101" x2="287" y1="246.8594" y2="246.8594"/><rect fill="none" height="6" style="stroke:#C82930;stroke-width:1.0;" width="6" x="108" y="257.5078"/><text fill="#000000" font-family="sans-serif" font-size="14" lengthAdjust="spacing" textLength="162" x="120" y="263.8545">fullyQualifiedClassName</text></g><!--MD5=[1ca98e29750297c77ef424fb76881557]
class Object\nMember--><g id="elem_Object\nMember"><rect codeLine="31" fill="#00FFFF" height="56.5625" id="Object\nMember" rx="2.5" ry="2.5" style="stroke:#181818;stroke-width:0.5;" width="89" x="154.5" y="392"/><ellipse cx="169.5" cy="420.2813" fill="#ADD1B2" rx="11" ry="11" style="stroke:#181818;stroke-width:1.0;"/><path d="M172.4688,425.9219 Q171.8906,426.2188 171.25,426.3594 Q170.6094,426.5156 169.9063,426.5156 Q167.4063,426.5156 166.0781,424.875 Q164.7656,423.2188 164.7656,420.0938 Q164.7656,416.9688 166.0781,415.3125 Q167.4063,413.6563 169.9063,413.6563 Q170.6094,413.6563 171.25,413.8125 Q171.9063,413.9688 172.4688,414.2656 L172.4688,416.9844 Q171.8438,416.4063 171.25,416.1406 Q170.6563,415.8594 170.0313,415.8594 Q168.6875,415.8594 168,416.9375 Q167.3125,418 167.3125,420.0938 Q167.3125,422.1875 168,423.2656 Q168.6875,424.3281 170.0313,424.3281 Q170.6563,424.3281 171.25,424.0625 Q171.8438,423.7813 172.4688,423.2031 L172.4688,425.9219 Z " fill="#000000"/><text fill="#000000" font-family="sans-serif" font-size="12" font-style="italic" lengthAdjust="spacing" textLength="43" x="190.5" y="408.1387">«desc»</text><text fill="#000000" font-family="sans-serif" font-size="14" lengthAdjust="spacing" textLength="45" x="189.5" y="423.9639">Object</text><text fill="#000000" font-family="sans-serif" font-size="14" lengthAdjust="spacing" textLength="57" x="183.5" y="440.2607">Member</text></g><!--MD5=[236dc35556468579b5ef30f394865326]
class Object\nAction--><g id="elem_Object\nAction"><rect codeLine="35" fill="#00FFFF" height="56.5625" id="Object\nAction" rx="2.5" ry="2.5" style="stroke:#181818;stroke-width:0.5;" width="77" x="167.5" y="509"/><ellipse cx="182.5" cy="537.2813" fill="#ADD1B2" rx="11" ry="11" style="stroke:#181818;stroke-width:1.0;"/><path d="M185.4688,542.9219 Q184.8906,543.2188 184.25,543.3594 Q183.6094,543.5156 182.9063,543.5156 Q180.4063,543.5156 179.0781,541.875 Q177.7656,540.2188 177.7656,537.0938 Q177.7656,533.9688 179.0781,532.3125 Q180.4063,530.6563 182.9063,530.6563 Q183.6094,530.6563 184.25,530.8125 Q184.9063,530.9688 185.4688,531.2656 L185.4688,533.9844 Q184.8438,533.4063 184.25,533.1406 Q183.6563,532.8594 183.0313,532.8594 Q181.6875,532.8594 181,533.9375 Q180.3125,535 180.3125,537.0938 Q180.3125,539.1875 181,540.2656 Q181.6875,541.3281 183.0313,541.3281 Q183.6563,541.3281 184.25,541.0625 Q184.8438,540.7813 185.4688,540.2031 L185.4688,542.9219 Z " fill="#000000"/><text fill="#000000" font-family="sans-serif" font-size="12" font-style="italic" lengthAdjust="spacing" textLength="43" x="197.5" y="525.1387">«desc»</text><text fill="#000000" font-family="sans-serif" font-size="14" lengthAdjust="spacing" textLength="45" x="196.5" y="540.9639">Object</text><text fill="#000000" font-family="sans-serif" font-size="14" lengthAdjust="spacing" textLength="43" x="197.5" y="557.2607">Action</text></g><!--MD5=[cc44103bb19bcf3d3cadc52e845b3d92]
class Object\nAssociation--><g id="elem_Object\nAssociation"><rect codeLine="39" fill="#00FFFF" height="56.5625" id="Object\nAssociation" rx="2.5" ry="2.5" style="stroke:#181818;stroke-width:0.5;" width="111" x="21.5" y="509"/><ellipse cx="36.5" cy="537.2813" fill="#ADD1B2" rx="11" ry="11" style="stroke:#181818;stroke-width:1.0;"/><path d="M39.4688,542.9219 Q38.8906,543.2188 38.25,543.3594 Q37.6094,543.5156 36.9063,543.5156 Q34.4063,543.5156 33.0781,541.875 Q31.7656,540.2188 31.7656,537.0938 Q31.7656,533.9688 33.0781,532.3125 Q34.4063,530.6563 36.9063,530.6563 Q37.6094,530.6563 38.25,530.8125 Q38.9063,530.9688 39.4688,531.2656 L39.4688,533.9844 Q38.8438,533.4063 38.25,533.1406 Q37.6563,532.8594 37.0313,532.8594 Q35.6875,532.8594 35,533.9375 Q34.3125,535 34.3125,537.0938 Q34.3125,539.1875 35,540.2656 Q35.6875,541.3281 37.0313,541.3281 Q37.6563,541.3281 38.25,541.0625 Q38.8438,540.7813 39.4688,540.2031 L39.4688,542.9219 Z " fill="#000000"/><text fill="#000000" font-family="sans-serif" font-size="12" font-style="italic" lengthAdjust="spacing" textLength="43" x="68.5" y="525.1387">«desc»</text><text fill="#000000" font-family="sans-serif" font-size="14" lengthAdjust="spacing" textLength="45" x="67.5" y="540.9639">Object</text><text fill="#000000" font-family="sans-serif" font-size="14" lengthAdjust="spacing" textLength="79" x="50.5" y="557.2607">Association</text></g><!--MD5=[ffd5e7ba3b20fcc13a678afb28e0866f]
class OneToOne\nAssociation--><g id="elem_OneToOne\nAssociation"><rect codeLine="43" fill="#00FFFF" height="56.5625" id="OneToOne\nAssociation" rx="2.5" ry="2.5" style="stroke:#181818;stroke-width:0.5;" width="111" x="21.5" y="626"/><ellipse cx="36.5" cy="654.2813" fill="#ADD1B2" rx="11" ry="11" style="stroke:#181818;stroke-width:1.0;"/><path d="M39.4688,659.9219 Q38.8906,660.2188 38.25,660.3594 Q37.6094,660.5156 36.9063,660.5156 Q34.4063,660.5156 33.0781,658.875 Q31.7656,657.2188 31.7656,654.0938 Q31.7656,650.9688 33.0781,649.3125 Q34.4063,647.6563 36.9063,647.6563 Q37.6094,647.6563 38.25,647.8125 Q38.9063,647.9688 39.4688,648.2656 L39.4688,650.9844 Q38.8438,650.4063 38.25,650.1406 Q37.6563,649.8594 37.0313,649.8594 Q35.6875,649.8594 35,650.9375 Q34.3125,652 34.3125,654.0938 Q34.3125,656.1875 35,657.2656 Q35.6875,658.3281 37.0313,658.3281 Q37.6563,658.3281 38.25,658.0625 Q38.8438,657.7813 39.4688,657.2031 L39.4688,659.9219 Z " fill="#000000"/><text fill="#000000" font-family="sans-serif" font-size="12" font-style="italic" lengthAdjust="spacing" textLength="43" x="68.5" y="642.1387">«desc»</text><text fill="#000000" font-family="sans-serif" font-size="14" lengthAdjust="spacing" textLength="76" x="52" y="657.9639">OneToOne</text><text fill="#000000" font-family="sans-serif" font-size="14" lengthAdjust="spacing" textLength="79" x="50.5" y="674.2607">Association</text></g><!--MD5=[3885f9b3a6a68b2317d3b38f329e94da]
class OneToMany\nAssociation--><g id="elem_OneToMany\nAssociation"><rect codeLine="47" fill="#00FFFF" height="56.5625" id="OneToMany\nAssociation" rx="2.5" ry="2.5" style="stroke:#181818;stroke-width:0.5;" width="115" x="167.5" y="626"/><ellipse cx="182.5" cy="654.2813" fill="#ADD1B2" rx="11" ry="11" style="stroke:#181818;stroke-width:1.0;"/><path d="M185.4688,659.9219 Q184.8906,660.2188 184.25,660.3594 Q183.6094,660.5156 182.9063,660.5156 Q180.4063,660.5156 179.0781,658.875 Q177.7656,657.2188 177.7656,654.0938 Q177.7656,650.9688 179.0781,649.3125 Q180.4063,647.6563 182.9063,647.6563 Q183.6094,647.6563 184.25,647.8125 Q184.9063,647.9688 185.4688,648.2656 L185.4688,650.9844 Q184.8438,650.4063 184.25,650.1406 Q183.6563,649.8594 183.0313,649.8594 Q181.6875,649.8594 181,650.9375 Q180.3125,652 180.3125,654.0938 Q180.3125,656.1875 181,657.2656 Q181.6875,658.3281 183.0313,658.3281 Q183.6563,658.3281 184.25,658.0625 Q184.8438,657.7813 185.4688,657.2031 L185.4688,659.9219 Z " fill="#000000"/><text fill="#000000" font-family="sans-serif" font-size="12" font-style="italic" lengthAdjust="spacing" textLength="43" x="216.5" y="642.1387">«desc»</text><text fill="#000000" font-family="sans-serif" font-size="14" lengthAdjust="spacing" textLength="83" x="196.5" y="657.9639">OneToMany</text><text fill="#000000" font-family="sans-serif" font-size="14" lengthAdjust="spacing" textLength="79" x="198.5" y="674.2607">Association</text></g><!--MD5=[3efd7acf70beb98497b74e1a8eca2471]
class FacetHolder--><g id="elem_FacetHolder"><rect codeLine="51" fill="#00FFFF" height="40.2656" id="FacetHolder" rx="2.5" ry="2.5" style="stroke:#181818;stroke-width:0.5;" width="116" x="323" y="198.5"/><ellipse cx="338" cy="218.6328" fill="#B4A7E5" rx="11" ry="11" style="stroke:#181818;stroke-width:1.0;"/><path d="M333.9219,214.3984 L333.9219,212.2422 L341.3125,212.2422 L341.3125,214.3984 L338.8438,214.3984 L338.8438,222.4766 L341.3125,222.4766 L341.3125,224.6328 L333.9219,224.6328 L333.9219,222.4766 L336.3906,222.4766 L336.3906,214.3984 L333.9219,214.3984 Z " fill="#000000"/><text fill="#000000" font-family="sans-serif" font-size="12" font-style="italic" lengthAdjust="spacing" textLength="43" x="372.5" y="214.6387">«desc»</text><text fill="#000000" font-family="sans-serif" font-size="14" font-style="italic" lengthAdjust="spacing" textLength="84" x="352" y="230.4639">FacetHolder</text></g><!--MD5=[686c3c3db2e48a4996b4670260839994]
class Object\nActionParameter--><g id="elem_Object\nActionParameter"><rect codeLine="54" fill="#00FFFF" height="56.5625" id="Object\nActionParameter" rx="2.5" ry="2.5" style="stroke:#181818;stroke-width:0.5;" width="146" x="287" y="392"/><ellipse cx="302" cy="420.2813" fill="#ADD1B2" rx="11" ry="11" style="stroke:#181818;stroke-width:1.0;"/><path d="M304.9688,425.9219 Q304.3906,426.2188 303.75,426.3594 Q303.1094,426.5156 302.4063,426.5156 Q299.9063,426.5156 298.5781,424.875 Q297.2656,423.2188 297.2656,420.0938 Q297.2656,416.9688 298.5781,415.3125 Q299.9063,413.6563 302.4063,413.6563 Q303.1094,413.6563 303.75,413.8125 Q304.4063,413.9688 304.9688,414.2656 L304.9688,416.9844 Q304.3438,416.4063 303.75,416.1406 Q303.1563,415.8594 302.5313,415.8594 Q301.1875,415.8594 300.5,416.9375 Q299.8125,418 299.8125,420.0938 Q299.8125,422.1875 300.5,423.2656 Q301.1875,424.3281 302.5313,424.3281 Q303.1563,424.3281 303.75,424.0625 Q304.3438,423.7813 304.9688,423.2031 L304.9688,425.9219 Z " fill="#000000"/><text fill="#000000" font-family="sans-serif" font-size="12" font-style="italic" lengthAdjust="spacing" textLength="43" x="351.5" y="408.1387">«desc»</text><text fill="#000000" font-family="sans-serif" font-size="14" lengthAdjust="spacing" textLength="45" x="350.5" y="423.9639">Object</text><text fill="#000000" font-family="sans-serif" font-size="14" lengthAdjust="spacing" textLength="114" x="316" y="440.2607">ActionParameter</text></g><!--MD5=[873294963b1ef1e6f684c01f03f3e5c3]
class OneToOne\nActionParameter--><g id="elem_OneToOne\nActionParameter"><rect codeLine="57" fill="#00FFFF" height="56.5625" id="OneToOne\nActionParameter" rx="2.5" ry="2.5" style="stroke:#181818;stroke-width:0.5;" width="146" x="280" y="509"/><ellipse cx="295" cy="537.2813" fill="#ADD1B2" rx="11" ry="11" style="stroke:#181818;stroke-width:1.0;"/><path d="M297.9688,542.9219 Q297.3906,543.2188 296.75,543.3594 Q296.1094,543.5156 295.4063,543.5156 Q292.9063,543.5156 291.5781,541.875 Q290.2656,540.2188 290.2656,537.0938 Q290.2656,533.9688 291.5781,532.3125 Q292.9063,530.6563 295.4063,530.6563 Q296.1094,530.6563 296.75,530.8125 Q297.4063,530.9688 297.9688,531.2656 L297.9688,533.9844 Q297.3438,533.4063 296.75,533.1406 Q296.1563,532.8594 295.5313,532.8594 Q294.1875,532.8594 293.5,533.9375 Q292.8125,535 292.8125,537.0938 Q292.8125,539.1875 293.5,540.2656 Q294.1875,541.3281 295.5313,541.3281 Q296.1563,541.3281 296.75,541.0625 Q297.3438,540.7813 297.9688,540.2031 L297.9688,542.9219 Z " fill="#000000"/><text fill="#000000" font-family="sans-serif" font-size="12" font-style="italic" lengthAdjust="spacing" textLength="43" x="344.5" y="525.1387">«desc»</text><text fill="#000000" font-family="sans-serif" font-size="14" lengthAdjust="spacing" textLength="76" x="328" y="540.9639">OneToOne</text><text fill="#000000" font-family="sans-serif" font-size="14" lengthAdjust="spacing" textLength="114" x="309" y="557.2607">ActionParameter</text></g><!--MD5=[badba6705019ea2f9274326cbe645d80]
class Facet--><g id="elem_Facet"><rect codeLine="60" fill="#00FFFF" height="40.2656" id="Facet" rx="2.5" ry="2.5" style="stroke:#181818;stroke-width:0.5;" width="71" x="474.5" y="198.5"/><ellipse cx="489.5" cy="218.6328" fill="#B4A7E5" rx="11" ry="11" style="stroke:#181818;stroke-width:1.0;"/><path d="M485.4219,214.3984 L485.4219,212.2422 L492.8125,212.2422 L492.8125,214.3984 L490.3438,214.3984 L490.3438,222.4766 L492.8125,222.4766 L492.8125,224.6328 L485.4219,224.6328 L485.4219,222.4766 L487.8906,222.4766 L487.8906,214.3984 L485.4219,214.3984 Z " fill="#000000"/><text fill="#000000" font-family="sans-serif" font-size="12" font-style="italic" lengthAdjust="spacing" textLength="43" x="501.5" y="214.6387">«desc»</text><text fill="#000000" font-family="sans-serif" font-size="14" font-style="italic" lengthAdjust="spacing" textLength="38" x="504" y="230.4639">Facet</text></g><!--MD5=[e4bd214989e251692ad5ab01beff51ac]
class OneToMany\nActionParameter--><g id="elem_OneToMany\nActionParameter"><rect codeLine="63" fill="#00FFFF" height="56.5625" id="OneToMany\nActionParameter" rx="2.5" ry="2.5" style="stroke:#181818;stroke-width:0.5;" width="146" x="461" y="509"/><ellipse cx="476" cy="537.2813" fill="#ADD1B2" rx="11" ry="11" style="stroke:#181818;stroke-width:1.0;"/><path d="M478.9688,542.9219 Q478.3906,543.2188 477.75,543.3594 Q477.1094,543.5156 476.4063,543.5156 Q473.9063,543.5156 472.5781,541.875 Q471.2656,540.2188 471.2656,537.0938 Q471.2656,533.9688 472.5781,532.3125 Q473.9063,530.6563 476.4063,530.6563 Q477.1094,530.6563 477.75,530.8125 Q478.4063,530.9688 478.9688,531.2656 L478.9688,533.9844 Q478.3438,533.4063 477.75,533.1406 Q477.1563,532.8594 476.5313,532.8594 Q475.1875,532.8594 474.5,533.9375 Q473.8125,535 473.8125,537.0938 Q473.8125,539.1875 474.5,540.2656 Q475.1875,541.3281 476.5313,541.3281 Q477.1563,541.3281 477.75,541.0625 Q478.3438,540.7813 478.9688,540.2031 L478.9688,542.9219 Z " fill="#000000"/><text fill="#000000" font-family="sans-serif" font-size="12" font-style="italic" lengthAdjust="spacing" textLength="43" x="525.5" y="525.1387">«desc»</text><text fill="#000000" font-family="sans-serif" font-size="14" lengthAdjust="spacing" textLength="83" x="505.5" y="540.9639">OneToMany</text><text fill="#000000" font-family="sans-serif" font-size="14" lengthAdjust="spacing" textLength="114" x="490" y="557.2607">ActionParameter</text></g><!--MD5=[91cb98f639147649dcebb5c5e2aff3e2]
class ManagedObject--><g id="elem_ManagedObject"><rect codeLine="68" fill="#90EE90" height="80.8594" id="ManagedObject" rx="2.5" ry="2.5" style="stroke:#181818;stroke-width:0.5;" width="146" x="663" y="178"/><ellipse cx="680.25" cy="198.1328" fill="#ADD1B2" rx="11" ry="11" style="stroke:#181818;stroke-width:1.0;"/><path d="M683.2188,203.7734 Q682.6406,204.0703 682,204.2109 Q681.3594,204.3672 680.6563,204.3672 Q678.1563,204.3672 676.8281,202.7266 Q675.5156,201.0703 675.5156,197.9453 Q675.5156,194.8203 676.8281,193.1641 Q678.1563,191.5078 680.6563,191.5078 Q681.3594,191.5078 682,191.6641 Q682.6563,191.8203 683.2188,192.1172 L683.2188,194.8359 Q682.5938,194.2578 682,193.9922 Q681.4063,193.7109 680.7813,193.7109 Q679.4375,193.7109 678.75,194.7891 Q678.0625,195.8516 678.0625,197.9453 Q678.0625,200.0391 678.75,201.1172 Q679.4375,202.1797 680.7813,202.1797 Q681.4063,202.1797 682,201.9141 Q682.5938,201.6328 683.2188,201.0547 L683.2188,203.7734 Z " fill="#000000"/><text fill="#000000" font-family="sans-serif" font-size="12" font-style="italic" lengthAdjust="spacing" textLength="35" x="731.75" y="194.1387">«ppt»</text><text fill="#000000" font-family="sans-serif" font-size="14" lengthAdjust="spacing" textLength="109" x="694.75" y="209.9639">ManagedObject</text><line style="stroke:#181818;stroke-width:0.5;" x1="664" x2="808" y1="218.2656" y2="218.2656"/><ellipse cx="674" cy="231.9141" fill="#84BE84" rx="3" ry="3" style="stroke:#038048;stroke-width:1.0;"/><text fill="#000000" font-family="sans-serif" font-size="14" lengthAdjust="spacing" textLength="120" x="683" y="235.2607">getSpecification()</text><ellipse cx="674" cy="248.2109" fill="#84BE84" rx="3" ry="3" style="stroke:#038048;stroke-width:1.0;"/><text fill="#000000" font-family="sans-serif" font-size="14" lengthAdjust="spacing" textLength="63" x="683" y="251.5576">getPojo()</text></g><!--MD5=[3c1db82047404282ce9450ce0e4f5184]
class Bookmark--><g id="elem_Bookmark"><rect codeLine="72" fill="#FFFFFF" height="40.2656" id="Bookmark" rx="2.5" ry="2.5" style="stroke:#181818;stroke-width:0.5;" width="102" x="674" y="53.5"/><ellipse cx="689" cy="73.6328" fill="#ADD1B2" rx="11" ry="11" style="stroke:#181818;stroke-width:1.0;"/><path d="M691.9688,79.2734 Q691.3906,79.5703 690.75,79.7109 Q690.1094,79.8672 689.4063,79.8672 Q686.9063,79.8672 685.5781,78.2266 Q684.2656,76.5703 684.2656,73.4453 Q684.2656,70.3203 685.5781,68.6641 Q686.9063,67.0078 689.4063,67.0078 Q690.1094,67.0078 690.75,67.1641 Q691.4063,67.3203 691.9688,67.6172 L691.9688,70.3359 Q691.3438,69.7578 690.75,69.4922 Q690.1563,69.2109 689.5313,69.2109 Q688.1875,69.2109 687.5,70.2891 Q686.8125,71.3516 686.8125,73.4453 Q686.8125,75.5391 687.5,76.6172 Q688.1875,77.6797 689.5313,77.6797 Q690.1563,77.6797 690.75,77.4141 Q691.3438,77.1328 691.9688,76.5547 L691.9688,79.2734 Z " fill="#000000"/><text fill="#000000" font-family="sans-serif" font-size="12" font-style="italic" lengthAdjust="spacing" textLength="47" x="714.5" y="69.6387">«value»</text><text fill="#000000" font-family="sans-serif" font-size="14" lengthAdjust="spacing" textLength="70" x="703" y="85.4639">Bookmark</text></g><!--MD5=[86f349b7fc64c321ae8bad2e27d23414]
reverse link LogicalType to Object\nSpecification--><g id="link_LogicalType_Object\nSpecification"><path codeLine="79" d="M328.34,109.58 C307.24,126.53 281.49,147.21 258.21,165.91 " fill="none" id="LogicalType-backto-Object\nSpecification" style="stroke:#181818;stroke-width:1.0;"/><polygon fill="#181818" points="332.5,106.24,322.9768,108.7515,328.5998,109.3687,327.9827,114.9918,332.5,106.24" style="stroke:#181818;stroke-width:1.0;"/></g><!--MD5=[ed7878ac517ae046682c90f495e7c07d]
link Object\nSpecification to Object\nMember--><g id="link_Object\nSpecification_Object\nMember"><path codeLine="80" d="M195.29,271 C196.2,307.44 197.39,355.2 198.18,386.59 " fill="none" id="Object\nSpecification-to-Object\nMember" style="stroke:#181818;stroke-width:1.0;"/><polygon fill="#181818" points="198.31,391.87,202.0773,382.7702,198.1815,386.8717,194.08,382.9758,198.31,391.87" style="stroke:#181818;stroke-width:1.0;"/><text fill="#000000" font-family="sans-serif" font-size="13" lengthAdjust="spacing" textLength="7" x="190.3934" y="381.0958">*</text></g><!--MD5=[2bdd6bc466205d5f314f0051faa7f01c]
reverse link Object\nMember to Object\nAssociation--><g id="link_Object\nMember_Object\nAssociation"><path codeLine="81" d="M154.99,462.99 C138.84,478.21 120.97,495.06 106.41,508.78 " fill="none" id="Object\nMember-backto-Object\nAssociation" style="stroke:#181818;stroke-width:1.0;"/><polygon fill="none" points="150.42,457.67,169.78,449.05,160.03,467.86,150.42,457.67" style="stroke:#181818;stroke-width:1.0;"/></g><!--MD5=[241503ab21274031e0e27ca51ddcf3f4]
reverse link Object\nMember to Object\nAction--><g id="link_Object\nMember_Object\nAction"><path codeLine="82" d="M201.9,469.18 C202.72,482.67 203.59,496.9 204.31,508.78 " fill="none" id="Object\nMember-backto-Object\nAction" style="stroke:#181818;stroke-width:1.0;"/><polygon fill="none" points="194.9,469.43,200.68,449.05,208.88,468.58,194.9,469.43" style="stroke:#181818;stroke-width:1.0;"/></g><!--MD5=[7b1dd17f101192166ad8ece1c1058fee]
reverse link Object\nAssociation to OneToOne\nAssociation--><g id="link_Object\nAssociation_OneToOne\nAssociation"><path codeLine="83" d="M77,586.18 C77,599.67 77,613.9 77,625.78 " fill="none" id="Object\nAssociation-backto-OneToOne\nAssociation" style="stroke:#181818;stroke-width:1.0;"/><polygon fill="none" points="70,586.05,77,566.05,84,586.05,70,586.05" style="stroke:#181818;stroke-width:1.0;"/></g><!--MD5=[c4d38020f98201eb2fe41c2e8b25f5c7]
reverse link Object\nAssociation to OneToMany\nAssociation--><g id="link_Object\nAssociation_OneToMany\nAssociation"><path codeLine="84" d="M128.34,578.39 C148.55,594.1 171.26,611.74 189.58,625.98 " fill="none" id="Object\nAssociation-backto-OneToMany\nAssociation" style="stroke:#181818;stroke-width:1.0;"/><polygon fill="none" points="123.95,583.84,112.45,566.05,132.54,572.79,123.95,583.84" style="stroke:#181818;stroke-width:1.0;"/></g><!--MD5=[fed48b2c8a9a486fb23584c154f1ec15]
reverse link Object\nActionParameter to OneToOne\nActionParameter--><g id="link_Object\nActionParameter_OneToOne\nActionParameter"><path codeLine="85" d="M357.1,469.18 C356.28,482.67 355.41,496.9 354.69,508.78 " fill="none" id="Object\nActionParameter-backto-OneToOne\nActionParameter" style="stroke:#181818;stroke-width:1.0;"/><polygon fill="none" points="350.12,468.58,358.32,449.05,364.1,469.43,350.12,468.58" style="stroke:#181818;stroke-width:1.0;"/></g><!--MD5=[6af0f7e8de7c83f30bca28014b14a2cb]
reverse link Object\nActionParameter to OneToMany\nActionParameter--><g id="link_Object\nActionParameter_OneToMany\nActionParameter"><path codeLine="86" d="M418.59,460.22 C442.79,476.22 470.28,494.39 492.36,508.98 " fill="none" id="Object\nActionParameter-backto-OneToMany\nActionParameter" style="stroke:#181818;stroke-width:1.0;"/><polygon fill="none" points="414.5,465.91,401.68,449.05,422.22,454.23,414.5,465.91" style="stroke:#181818;stroke-width:1.0;"/></g><!--MD5=[b2b29efb307806de1bba54f1e5dc2be6]
reverse link Object\nActionParameter to Object\nAction--><g id="link_Object\nActionParameter_Object\nAction"><path codeLine="87" d="M319.06,452.07 C295.38,469.76 265.81,491.84 242.85,508.98 " fill="none" id="Object\nActionParameter-backto-Object\nAction" style="stroke:#181818;stroke-width:1.0;"/><polygon fill="#181818" points="323.11,449.05,313.5013,451.2116,319.098,452.034,318.2757,457.6307,323.11,449.05" style="stroke:#181818;stroke-width:1.0;"/><text fill="#000000" font-family="sans-serif" font-size="13" lengthAdjust="spacing" textLength="7" x="307.7796" y="468.611">*</text></g><!--MD5=[6386275b757e9a32ce38551d9fe44fc9]
link Object\nSpecification to FacetHolder--><g id="link_Object\nSpecification_FacetHolder"><path codeLine="89" d="M288.23,218.5 C292.98,218.5 297.73,218.5 302.49,218.5 " fill="none" id="Object\nSpecification-to-FacetHolder" style="stroke:#181818;stroke-width:1.0;stroke-dasharray:7.0,7.0;"/><polygon fill="none" points="302.66,211.5,322.66,218.5,302.66,225.5,302.66,211.5" style="stroke:#181818;stroke-width:1.0;"/></g><!--MD5=[7ed1b40c9d8e1ede63264d1d3150c096]
reverse link FacetHolder to Object\nMember--><g id="link_FacetHolder_Object\nMember"><path codeLine="90" d="M350.04,253.53 C314.54,292.53 257.05,355.71 224.18,391.83 " fill="none" id="FacetHolder-backto-Object\nMember" style="stroke:#181818;stroke-width:1.0;stroke-dasharray:7.0,7.0;"/><polygon fill="none" points="344.91,248.76,363.55,238.68,355.27,258.18,344.91,248.76" style="stroke:#181818;stroke-width:1.0;"/></g><!--MD5=[6d10f057513b3b6ea03cfbefdadc4b76]
reverse link FacetHolder to Object\nActionParameter--><g id="link_FacetHolder_Object\nActionParameter"><path codeLine="91" d="M376.89,258.6 C372.78,297.83 366.54,357.24 362.91,391.83 " fill="none" id="FacetHolder-backto-Object\nActionParameter" style="stroke:#181818;stroke-width:1.0;stroke-dasharray:7.0,7.0;"/><polygon fill="none" points="369.94,257.84,378.99,238.68,383.86,259.3,369.94,257.84" style="stroke:#181818;stroke-width:1.0;"/></g><!--MD5=[78d434f5ba83524917ac2512edcf96ee]
link FacetHolder to Facet--><g id="link_FacetHolder_Facet"><path codeLine="92" d="M439.2,218.5 C449.17,218.5 459.14,218.5 469.11,218.5 " fill="none" id="FacetHolder-to-Facet" style="stroke:#181818;stroke-width:1.0;"/><polygon fill="#181818" points="474.32,218.5,465.32,214.5,469.32,218.5,465.32,222.5,474.32,218.5" style="stroke:#181818;stroke-width:1.0;"/><text fill="#000000" font-family="sans-serif" font-size="13" lengthAdjust="spacing" textLength="7" x="459.6064" y="214.0773">*</text></g><!--MD5=[732c1aa04af94e97253dd1ea909fbb39]
reverse link Bookmark to ManagedObject--><g id="link_Bookmark_ManagedObject"><path codeLine="95" d="M726.87,98.77 C728.53,120.39 730.99,152.41 732.94,177.76 " fill="none" id="Bookmark-backto-ManagedObject" style="stroke:#181818;stroke-width:1.0;"/><polygon fill="#181818" points="726.48,93.79,723.1861,103.0717,726.8657,98.7751,731.1623,102.4547,726.48,93.79" style="stroke:#181818;stroke-width:1.0;"/></g><!--MD5=[2bee260c0a48840c08d24c46f37f4d11]
link Bookmark to LogicalType--><g id="link_Bookmark_LogicalType"><path codeLine="97" d="M673.76,73.5 C593.77,73.5 513.79,73.5 433.8,73.5 " fill="none" id="Bookmark-to-LogicalType" style="stroke:#181818;stroke-width:1.0;"/><polygon fill="#181818" points="428.54,73.5,437.54,77.5,433.54,73.5,437.54,69.5,428.54,73.5" style="stroke:#181818;stroke-width:1.0;"/></g><!--MD5=[9a870cb111bebba3e6a70089665dfaae]
@startuml
hide empty members

skinparam class {
    BackgroundColor<<desc>> Cyan
    BackgroundColor<<ppt>> LightGreen
    BackgroundColor<<mi>> LightPink
    BackgroundColor<<role>> LightYellow
    BackgroundColor<<strategy>> White
    BackgroundColor<<api>> White
    BackgroundColor<<spi>> White
    BackgroundColor<<internal>> LightGrey
    BackgroundColor<<value>> White

    BackgroundColor<<entity>> LightGreen
    BackgroundColor<<viewmodel>> LightPink
    BackgroundColor<<mixin>> LightYellow
}

package metamodel {

    class LogicalType<<value>> {
        +type
    }

    class Object\nSpecification<<desc>> {
        +objectSpecId
        ....
        -fullyQualifiedClassName
    }

    class Object\nMember<<desc>> {

    }

    class Object\nAction<<desc>> {

    }

    class Object\nAssociation<<desc>> {

    }

    class OneToOne\nAssociation<<desc>> {

    }

    class OneToMany\nAssociation<<desc>> {

    }

    interface FacetHolder<<desc>> {
    }

    class Object\nActionParameter<<desc>> {
    }

    class OneToOne\nActionParameter<<desc>> {
    }

    interface Facet<<desc>> {
    }

    class OneToMany\nActionParameter<<desc>> {
    }
}

package runtime {
    class ManagedObject<<ppt>> {
        +getSpecification()
        +getPojo()
    }
    class Bookmark<<value>> {

    }
}



Object\nSpecification -up-> LogicalType
Object\nSpecification -down-> "*" Object\nMember
Object\nMember ^-down- Object\nAssociation
Object\nMember ^-down- Object\nAction
Object\nAssociation ^-down- OneToOne\nAssociation
Object\nAssociation ^-down- OneToMany\nAssociation
Object\nActionParameter ^-down- OneToOne\nActionParameter
Object\nActionParameter ^-down- OneToMany\nActionParameter
Object\nAction -left-> "*" Object\nActionParameter

FacetHolder ^-.left- Object\nSpecification
FacetHolder ^-.down- Object\nMember
FacetHolder ^-.down- Object\nActionParameter
FacetHolder -right-> "*" Facet


ManagedObject  -up-> Bookmark

Bookmark -right-> LogicalType
@enduml

PlantUML version 1.2022.12(Sun Oct 23 18:12:26 GMT 2022)
(GPL source distribution)
Java Runtime: OpenJDK Runtime Environment
JVM: OpenJDK 64-Bit Server VM
Default Encoding: UTF-8
Language: en
Country: US
--></g></svg>