<?xml version="1.0" encoding="UTF-8" standalone="no"?><svg xmlns="http://www.w3.org/2000/svg" xmlns:xlink="http://www.w3.org/1999/xlink" contentStyleType="text/css" height="345px" preserveAspectRatio="none" style="width:957px;height:345px;background:#FFFFFF;" version="1.1" viewBox="0 0 957 345" width="957px" zoomAndPan="magnify"><defs/><g><!--MD5=[34858fd43d95e92b9fa80c296381e186]
cluster documents--><g id="cluster_documents"><path d="M8.5,6 L97.5,6 A3.75,3.75 0 0 1 100,8.5 L107,28.2969 L947.5,28.2969 A2.5,2.5 0 0 1 950,30.7969 L950,211.5 A2.5,2.5 0 0 1 947.5,214 L8.5,214 A2.5,2.5 0 0 1 6,211.5 L6,8.5 A2.5,2.5 0 0 1 8.5,6 " fill="none" style="stroke:#000000;stroke-width:1.5;"/><line style="stroke:#000000;stroke-width:1.5;" x1="6" x2="107" y1="28.2969" y2="28.2969"/><text fill="#000000" font-family="sans-serif" font-size="14" font-weight="bold" lengthAdjust="spacing" textLength="88" x="10" y="20.9951">documents</text></g><!--MD5=[55c1321e5e660f70fb77e9cf74eefc72]
cluster customers--><g id="cluster_customers"><path d="M395.5,247 L480.5,247 A3.75,3.75 0 0 1 483,249.5 L490,269.2969 L522.5,269.2969 A2.5,2.5 0 0 1 525,271.7969 L525,335.5 A2.5,2.5 0 0 1 522.5,338 L395.5,338 A2.5,2.5 0 0 1 393,335.5 L393,249.5 A2.5,2.5 0 0 1 395.5,247 " fill="none" style="stroke:#000000;stroke-width:1.5;"/><line style="stroke:#000000;stroke-width:1.5;" x1="393" x2="490" y1="269.2969" y2="269.2969"/><text fill="#000000" font-family="sans-serif" font-size="14" font-weight="bold" lengthAdjust="spacing" textLength="84" x="397" y="261.9951">customers</text></g><!--MD5=[e9488f6d277e231b9446aa19d7c97d87]
class DocumentHolder--><g id="elem_DocumentHolder"><rect codeLine="20" fill="#FFFFE0" height="40.2656" id="DocumentHolder" rx="2.5" ry="2.5" style="stroke:#181818;stroke-width:0.5;" width="151" x="383.5" y="41"/><ellipse cx="398.5" cy="61.1328" fill="#B4A7E5" rx="11" ry="11" style="stroke:#181818;stroke-width:1.0;"/><path d="M394.4219,56.8984 L394.4219,54.7422 L401.8125,54.7422 L401.8125,56.8984 L399.3438,56.8984 L399.3438,64.9766 L401.8125,64.9766 L401.8125,67.1328 L394.4219,67.1328 L394.4219,64.9766 L396.8906,64.9766 L396.8906,56.8984 L394.4219,56.8984 Z " fill="#000000"/><text fill="#000000" font-family="sans-serif" font-size="12" font-style="italic" lengthAdjust="spacing" textLength="38" x="453" y="57.1387">«role»</text><text fill="#000000" font-family="sans-serif" font-size="14" font-style="italic" lengthAdjust="spacing" textLength="119" x="412.5" y="72.9639">DocumentHolder</text></g><!--MD5=[19a6f2433930319ed8d88e36d7e2e675]
class DocumentHolder_documents--><g id="elem_DocumentHolder_documents"><rect codeLine="21" fill="#FFFFE0" height="40.2656" id="DocumentHolder_documents" rx="2.5" ry="2.5" style="stroke:#181818;stroke-width:0.5;" width="236" x="22" y="41"/><ellipse cx="37" cy="61.1328" fill="#ADD1B2" rx="11" ry="11" style="stroke:#181818;stroke-width:1.0;"/><path d="M39.9688,66.7734 Q39.3906,67.0703 38.75,67.2109 Q38.1094,67.3672 37.4063,67.3672 Q34.9063,67.3672 33.5781,65.7266 Q32.2656,64.0703 32.2656,60.9453 Q32.2656,57.8203 33.5781,56.1641 Q34.9063,54.5078 37.4063,54.5078 Q38.1094,54.5078 38.75,54.6641 Q39.4063,54.8203 39.9688,55.1172 L39.9688,57.8359 Q39.3438,57.2578 38.75,56.9922 Q38.1563,56.7109 37.5313,56.7109 Q36.1875,56.7109 35.5,57.7891 Q34.8125,58.8516 34.8125,60.9453 Q34.8125,63.0391 35.5,64.1172 Q36.1875,65.1797 37.5313,65.1797 Q38.1563,65.1797 38.75,64.9141 Q39.3438,64.6328 39.9688,64.0547 L39.9688,66.7734 Z " fill="#000000"/><text fill="#000000" font-family="sans-serif" font-size="12" font-style="italic" lengthAdjust="spacing" textLength="46" x="130" y="57.1387">«mixin»</text><text fill="#000000" font-family="sans-serif" font-size="14" lengthAdjust="spacing" textLength="204" x="51" y="72.9639">DocumentHolder_documents</text></g><!--MD5=[aaefda37f268a242f159fa4f96ae602c]
class DocumentHolder_attachDocument--><g id="elem_DocumentHolder_attachDocument"><rect codeLine="22" fill="#FFFFE0" height="40.2656" id="DocumentHolder_attachDocument" rx="2.5" ry="2.5" style="stroke:#181818;stroke-width:0.5;" width="273" x="660.5" y="41"/><ellipse cx="675.5" cy="61.1328" fill="#ADD1B2" rx="11" ry="11" style="stroke:#181818;stroke-width:1.0;"/><path d="M678.4688,66.7734 Q677.8906,67.0703 677.25,67.2109 Q676.6094,67.3672 675.9063,67.3672 Q673.4063,67.3672 672.0781,65.7266 Q670.7656,64.0703 670.7656,60.9453 Q670.7656,57.8203 672.0781,56.1641 Q673.4063,54.5078 675.9063,54.5078 Q676.6094,54.5078 677.25,54.6641 Q677.9063,54.8203 678.4688,55.1172 L678.4688,57.8359 Q677.8438,57.2578 677.25,56.9922 Q676.6563,56.7109 676.0313,56.7109 Q674.6875,56.7109 674,57.7891 Q673.3125,58.8516 673.3125,60.9453 Q673.3125,63.0391 674,64.1172 Q674.6875,65.1797 676.0313,65.1797 Q676.6563,65.1797 677.25,64.9141 Q677.8438,64.6328 678.4688,64.0547 L678.4688,66.7734 Z " fill="#000000"/><text fill="#000000" font-family="sans-serif" font-size="12" font-style="italic" lengthAdjust="spacing" textLength="46" x="787" y="57.1387">«mixin»</text><text fill="#000000" font-family="sans-serif" font-size="14" lengthAdjust="spacing" textLength="241" x="689.5" y="72.9639">DocumentHolder_attachDocument</text></g><!--MD5=[59b530d44ae785dc18db921986a9c15c]
class Document--><g id="elem_Document"><rect codeLine="23" fill="#90EE90" height="40.2656" id="Document" rx="2.5" ry="2.5" style="stroke:#181818;stroke-width:0.5;" width="105" x="87.5" y="158"/><ellipse cx="102.5" cy="178.1328" fill="#ADD1B2" rx="11" ry="11" style="stroke:#181818;stroke-width:1.0;"/><path d="M105.4688,183.7734 Q104.8906,184.0703 104.25,184.2109 Q103.6094,184.3672 102.9063,184.3672 Q100.4063,184.3672 99.0781,182.7266 Q97.7656,181.0703 97.7656,177.9453 Q97.7656,174.8203 99.0781,173.1641 Q100.4063,171.5078 102.9063,171.5078 Q103.6094,171.5078 104.25,171.6641 Q104.9063,171.8203 105.4688,172.1172 L105.4688,174.8359 Q104.8438,174.2578 104.25,173.9922 Q103.6563,173.7109 103.0313,173.7109 Q101.6875,173.7109 101,174.7891 Q100.3125,175.8516 100.3125,177.9453 Q100.3125,180.0391 101,181.1172 Q101.6875,182.1797 103.0313,182.1797 Q103.6563,182.1797 104.25,181.9141 Q104.8438,181.6328 105.4688,181.0547 L105.4688,183.7734 Z " fill="#000000"/><text fill="#000000" font-family="sans-serif" font-size="12" font-style="italic" lengthAdjust="spacing" textLength="35" x="135.5" y="174.1387">«ppt»</text><text fill="#000000" font-family="sans-serif" font-size="14" lengthAdjust="spacing" textLength="73" x="116.5" y="189.9639">Document</text></g><!--MD5=[2ce0c9fb7f55b1e256ab28a8ea6b25ec]
class Customer--><g id="elem_Customer"><rect codeLine="30" fill="#90EE90" height="40.2656" id="Customer" rx="2.5" ry="2.5" style="stroke:#181818;stroke-width:0.5;" width="100" x="409" y="282"/><ellipse cx="424" cy="302.1328" fill="#ADD1B2" rx="11" ry="11" style="stroke:#181818;stroke-width:1.0;"/><path d="M426.9688,307.7734 Q426.3906,308.0703 425.75,308.2109 Q425.1094,308.3672 424.4063,308.3672 Q421.9063,308.3672 420.5781,306.7266 Q419.2656,305.0703 419.2656,301.9453 Q419.2656,298.8203 420.5781,297.1641 Q421.9063,295.5078 424.4063,295.5078 Q425.1094,295.5078 425.75,295.6641 Q426.4063,295.8203 426.9688,296.1172 L426.9688,298.8359 Q426.3438,298.2578 425.75,297.9922 Q425.1563,297.7109 424.5313,297.7109 Q423.1875,297.7109 422.5,298.7891 Q421.8125,299.8516 421.8125,301.9453 Q421.8125,304.0391 422.5,305.1172 Q423.1875,306.1797 424.5313,306.1797 Q425.1563,306.1797 425.75,305.9141 Q426.3438,305.6328 426.9688,305.0547 L426.9688,307.7734 Z " fill="#000000"/><text fill="#000000" font-family="sans-serif" font-size="12" font-style="italic" lengthAdjust="spacing" textLength="35" x="454.5" y="298.1387">«ppt»</text><text fill="#000000" font-family="sans-serif" font-size="14" lengthAdjust="spacing" textLength="68" x="438" y="313.9639">Customer</text></g><!--MD5=[d7f4709b13f7dedb24b5ca6fc57d298b]
link DocumentHolder_documents to Document--><g id="link_DocumentHolder_documents_Document"><path codeLine="25" d="M140,81.25 C140,100.82 140,131.21 140,152.49 " fill="none" id="DocumentHolder_documents-to-Document" style="stroke:#181818;stroke-width:1.0;"/><polygon fill="#181818" points="140,157.69,144,148.69,140,152.69,136,148.69,140,157.69" style="stroke:#181818;stroke-width:1.0;"/><text fill="#000000" font-family="sans-serif" font-size="13" lengthAdjust="spacing" textLength="72" x="141" y="124.0669">documents</text><text fill="#000000" font-family="sans-serif" font-size="13" lengthAdjust="spacing" textLength="23" x="113.7656" y="146.9167">0..*</text></g><!--MD5=[667214b920eff343bfee98d77050a0e1]
reverse link DocumentHolder to DocumentHolder_documents--><g id="link_DocumentHolder_DocumentHolder_documents"><path codeLine="26" d="M378.11,61 C341.79,61 298.21,61 258.33,61 " fill="none" id="DocumentHolder-backto-DocumentHolder_documents" style="stroke:#181818;stroke-width:1.0;stroke-dasharray:7.0,7.0;"/><polygon fill="#181818" points="383.41,61,374.41,57,378.41,61,374.41,65,383.41,61" style="stroke:#181818;stroke-width:1.0;"/><text fill="#000000" font-family="sans-serif" font-size="13" lengthAdjust="spacing" textLength="89" x="276.25" y="54.0669">contributes to</text></g><!--MD5=[545f724373ba39e3f6aa3425db4bd540]
reverse link DocumentHolder to DocumentHolder_attachDocument--><g id="link_DocumentHolder_DocumentHolder_attachDocument"><path codeLine="27" d="M540.11,61 C576.11,61 619.47,61 660.24,61 " fill="none" id="DocumentHolder-backto-DocumentHolder_attachDocument" style="stroke:#181818;stroke-width:1.0;stroke-dasharray:7.0,7.0;"/><polygon fill="#181818" points="534.85,61,543.85,65,539.85,61,543.85,57,534.85,61" style="stroke:#181818;stroke-width:1.0;"/><text fill="#000000" font-family="sans-serif" font-size="13" lengthAdjust="spacing" textLength="89" x="553" y="54.0669">contributes to</text></g><!--MD5=[c1cfca1bb3d45a9c29dfc751b7b39763]
reverse link DocumentHolder to Customer--><g id="link_DocumentHolder_Customer"><path codeLine="32" d="M459,101.48 C459,153.43 459,242.69 459,281.75 " fill="none" id="DocumentHolder-backto-Customer" style="stroke:#181818;stroke-width:1.0;stroke-dasharray:7.0,7.0;"/><polygon fill="none" points="452,101.15,459,81.15,466,101.15,452,101.15" style="stroke:#181818;stroke-width:1.0;"/></g><!--MD5=[11f545449ec1409a5ea790f334478fa3]
@startuml
hide empty members

skinparam class {
    BackgroundColor<<desc>> Cyan
    BackgroundColor<<ppt>> LightGreen
    BackgroundColor<<mi>> LightPink
    BackgroundColor<<role>> LightYellow
    BackgroundColor<<strategy>> White
    BackgroundColor<<api>> White
    BackgroundColor<<spi>> White
    BackgroundColor<<internal>> LightGrey
    BackgroundColor<<value>> White

    BackgroundColor<<entity>> LightGreen
    BackgroundColor<<viewmodel>> LightPink
    BackgroundColor<<mixin>> LightYellow
}

package documents {
    interface DocumentHolder <<role>>
    class DocumentHolder_documents <<mixin>>
    class DocumentHolder_attachDocument <<mixin>>
    class Document <<ppt>>
}
DocumentHolder_documents -d-> "0..*" Document: documents
DocumentHolder_documents -.l-> DocumentHolder: "contributes to"
DocumentHolder_attachDocument -.l-> DocumentHolder: "contributes to"

package customers {
    class Customer <<ppt>>
}
Customer -u.-^ DocumentHolder
@enduml

PlantUML version 1.2022.12(Sun Oct 23 18:12:26 GMT 2022)
(GPL source distribution)
Java Runtime: OpenJDK Runtime Environment
JVM: OpenJDK 64-Bit Server VM
Default Encoding: UTF-8
Language: en
Country: US
--></g></svg>