<?xml version="1.0" encoding="UTF-8" standalone="no"?><svg xmlns="http://www.w3.org/2000/svg" xmlns:xlink="http://www.w3.org/1999/xlink" contentStyleType="text/css" height="138px" preserveAspectRatio="none" style="width:136px;height:138px;background:#FFFFFF;" version="1.1" viewBox="0 0 136 138" width="136px" zoomAndPan="magnify"><defs/><g><!--MD5=[47ee8de3858708181d3d6ad89cb541dc]
class ParentObject--><g id="elem_ParentObject"><rect codeLine="19" fill="#F1F1F1" height="32" id="ParentObject" rx="2.5" ry="2.5" style="stroke:#181818;stroke-width:0.5;" width="122" x="7" y="7"/><ellipse cx="22" cy="23" fill="#ADD1B2" rx="11" ry="11" style="stroke:#181818;stroke-width:1.0;"/><path d="M24.9688,28.6406 Q24.3906,28.9375 23.75,29.0781 Q23.1094,29.2344 22.4063,29.2344 Q19.9063,29.2344 18.5781,27.5938 Q17.2656,25.9375 17.2656,22.8125 Q17.2656,19.6875 18.5781,18.0313 Q19.9063,16.375 22.4063,16.375 Q23.1094,16.375 23.75,16.5313 Q24.4063,16.6875 24.9688,16.9844 L24.9688,19.7031 Q24.3438,19.125 23.75,18.8594 Q23.1563,18.5781 22.5313,18.5781 Q21.1875,18.5781 20.5,19.6563 Q19.8125,20.7188 19.8125,22.8125 Q19.8125,24.9063 20.5,25.9844 Q21.1875,27.0469 22.5313,27.0469 Q23.1563,27.0469 23.75,26.7813 Q24.3438,26.5 24.9688,25.9219 L24.9688,28.6406 Z " fill="#000000"/><text fill="#000000" font-family="sans-serif" font-size="14" lengthAdjust="spacing" textLength="90" x="36" y="27.8467">ParentObject</text></g><!--MD5=[cdc7a3df78f1a91c764e7a994f7c16cc]
class ChildObject--><g id="elem_ChildObject"><rect codeLine="20" fill="#F1F1F1" height="32" id="ChildObject" rx="2.5" ry="2.5" style="stroke:#181818;stroke-width:0.5;" width="111" x="12.5" y="99"/><ellipse cx="27.5" cy="115" fill="#ADD1B2" rx="11" ry="11" style="stroke:#181818;stroke-width:1.0;"/><path d="M30.4688,120.6406 Q29.8906,120.9375 29.25,121.0781 Q28.6094,121.2344 27.9063,121.2344 Q25.4063,121.2344 24.0781,119.5938 Q22.7656,117.9375 22.7656,114.8125 Q22.7656,111.6875 24.0781,110.0313 Q25.4063,108.375 27.9063,108.375 Q28.6094,108.375 29.25,108.5313 Q29.9063,108.6875 30.4688,108.9844 L30.4688,111.7031 Q29.8438,111.125 29.25,110.8594 Q28.6563,110.5781 28.0313,110.5781 Q26.6875,110.5781 26,111.6563 Q25.3125,112.7188 25.3125,114.8125 Q25.3125,116.9063 26,117.9844 Q26.6875,119.0469 28.0313,119.0469 Q28.6563,119.0469 29.25,118.7813 Q29.8438,118.5 30.4688,117.9219 L30.4688,120.6406 Z " fill="#000000"/><text fill="#000000" font-family="sans-serif" font-size="14" lengthAdjust="spacing" textLength="79" x="41.5" y="119.8467">ChildObject</text></g><!--MD5=[efdbd210ada12e3ce81bbc1533562b5c]
link ParentObject to ChildObject--><g id="link_ParentObject_ChildObject"><path codeLine="22" d="M68,44.62 C68,59.38 68,79.15 68,93.81 " fill="none" id="ParentObject-ChildObject" style="stroke:#181818;stroke-width:1.0;"/><polygon fill="#181818" points="68,98.96,72,89.96,68,93.96,64,89.96,68,98.96" style="stroke:#181818;stroke-width:1.0;"/><polygon fill="#181818" points="68,39.27,64,48.27,68,44.27,72,48.27,68,39.27" style="stroke:#181818;stroke-width:1.0;"/><text fill="#000000" font-family="sans-serif" font-size="13" lengthAdjust="spacing" textLength="8" x="58.725" y="58.9347">1</text><text fill="#000000" font-family="sans-serif" font-size="13" lengthAdjust="spacing" textLength="19" x="45.7344" y="87.9578">0.*</text></g><!--MD5=[6d88e7d64ab0c0a014d5c1246ec3bc5e]
@startuml
hide empty members

skinparam class {
    BackgroundColor<<desc>> Cyan
    BackgroundColor<<ppt>> LightGreen
    BackgroundColor<<mi>> LightPink
    BackgroundColor<<role>> LightYellow
    BackgroundColor<<strategy>> White
    BackgroundColor<<api>> White
    BackgroundColor<<spi>> White
    BackgroundColor<<internal>> LightGrey
    BackgroundColor<<value>> White

    BackgroundColor<<entity>> LightGreen
    BackgroundColor<<viewmodel>> LightPink
    BackgroundColor<<mixin>> LightYellow
}

class ParentObject
class ChildObject

ParentObject "1" <-d-> "0.*" ChildObject
@enduml

PlantUML version 1.2022.12(Sun Oct 23 18:12:26 GMT 2022)
(GPL source distribution)
Java Runtime: OpenJDK Runtime Environment
JVM: OpenJDK 64-Bit Server VM
Default Encoding: UTF-8
Language: en
Country: US
--></g></svg>