<?xml version="1.0" encoding="UTF-8" standalone="no"?><svg xmlns="http://www.w3.org/2000/svg" xmlns:xlink="http://www.w3.org/1999/xlink" contentStyleType="text/css" height="223px" preserveAspectRatio="none" style="width:434px;height:223px;background:#FFFFFF;" version="1.1" viewBox="0 0 434 223" width="434px" zoomAndPan="magnify"><defs/><g><!--MD5=[33bc894a5efa2d147589402b88218fdd]
cluster invoice--><g id="cluster_invoice"><path d="M8.5,6 L65.5,6 A3.75,3.75 0 0 1 68,8.5 L75,28.2969 L199.5,28.2969 A2.5,2.5 0 0 1 202,30.7969 L202,213.5 A2.5,2.5 0 0 1 199.5,216 L8.5,216 A2.5,2.5 0 0 1 6,213.5 L6,8.5 A2.5,2.5 0 0 1 8.5,6 " fill="none" style="stroke:#000000;stroke-width:1.5;"/><line style="stroke:#000000;stroke-width:1.5;" x1="6" x2="75" y1="28.2969" y2="28.2969"/><text fill="#000000" font-family="sans-serif" font-size="14" font-weight="bold" lengthAdjust="spacing" textLength="56" x="10" y="20.9951">invoice</text></g><!--MD5=[55c1321e5e660f70fb77e9cf74eefc72]
cluster customers--><g id="cluster_customers"><path d="M297.5,6 L382.5,6 A3.75,3.75 0 0 1 385,8.5 L392,28.2969 L424.5,28.2969 A2.5,2.5 0 0 1 427,30.7969 L427,94.5 A2.5,2.5 0 0 1 424.5,97 L297.5,97 A2.5,2.5 0 0 1 295,94.5 L295,8.5 A2.5,2.5 0 0 1 297.5,6 " fill="none" style="stroke:#000000;stroke-width:1.5;"/><line style="stroke:#000000;stroke-width:1.5;" x1="295" x2="392" y1="28.2969" y2="28.2969"/><text fill="#000000" font-family="sans-serif" font-size="14" font-weight="bold" lengthAdjust="spacing" textLength="84" x="299" y="20.9951">customers</text></g><!--MD5=[166711b09ef651fc2667dc79f8abbf96]
class Customer_invoices--><g id="elem_Customer_invoices"><rect codeLine="20" fill="#FFFFE0" height="40.2656" id="Customer_invoices" rx="2.5" ry="2.5" style="stroke:#181818;stroke-width:0.5;" width="163" x="22.5" y="41"/><ellipse cx="37.5" cy="61.1328" fill="#ADD1B2" rx="11" ry="11" style="stroke:#181818;stroke-width:1.0;"/><path d="M40.4688,66.7734 Q39.8906,67.0703 39.25,67.2109 Q38.6094,67.3672 37.9063,67.3672 Q35.4063,67.3672 34.0781,65.7266 Q32.7656,64.0703 32.7656,60.9453 Q32.7656,57.8203 34.0781,56.1641 Q35.4063,54.5078 37.9063,54.5078 Q38.6094,54.5078 39.25,54.6641 Q39.9063,54.8203 40.4688,55.1172 L40.4688,57.8359 Q39.8438,57.2578 39.25,56.9922 Q38.6563,56.7109 38.0313,56.7109 Q36.6875,56.7109 36,57.7891 Q35.3125,58.8516 35.3125,60.9453 Q35.3125,63.0391 36,64.1172 Q36.6875,65.1797 38.0313,65.1797 Q38.6563,65.1797 39.25,64.9141 Q39.8438,64.6328 40.4688,64.0547 L40.4688,66.7734 Z " fill="#000000"/><text fill="#000000" font-family="sans-serif" font-size="12" font-style="italic" lengthAdjust="spacing" textLength="46" x="94" y="57.1387">«mixin»</text><text fill="#000000" font-family="sans-serif" font-size="14" lengthAdjust="spacing" textLength="131" x="51.5" y="72.9639">Customer_invoices</text></g><!--MD5=[894442645724153f40a9f7a43026dbfc]
class Invoice--><g id="elem_Invoice"><rect codeLine="21" fill="#FFB6C1" height="40.2656" id="Invoice" rx="2.5" ry="2.5" style="stroke:#181818;stroke-width:0.5;" width="80" x="64" y="160"/><ellipse cx="79" cy="180.1328" fill="#ADD1B2" rx="11" ry="11" style="stroke:#181818;stroke-width:1.0;"/><path d="M81.9688,185.7734 Q81.3906,186.0703 80.75,186.2109 Q80.1094,186.3672 79.4063,186.3672 Q76.9063,186.3672 75.5781,184.7266 Q74.2656,183.0703 74.2656,179.9453 Q74.2656,176.8203 75.5781,175.1641 Q76.9063,173.5078 79.4063,173.5078 Q80.1094,173.5078 80.75,173.6641 Q81.4063,173.8203 81.9688,174.1172 L81.9688,176.8359 Q81.3438,176.2578 80.75,175.9922 Q80.1563,175.7109 79.5313,175.7109 Q78.1875,175.7109 77.5,176.7891 Q76.8125,177.8516 76.8125,179.9453 Q76.8125,182.0391 77.5,183.1172 Q78.1875,184.1797 79.5313,184.1797 Q80.1563,184.1797 80.75,183.9141 Q81.3438,183.6328 81.9688,183.0547 L81.9688,185.7734 Z " fill="#000000"/><text fill="#000000" font-family="sans-serif" font-size="12" font-style="italic" lengthAdjust="spacing" textLength="28" x="103" y="176.1387">«mi»</text><text fill="#000000" font-family="sans-serif" font-size="14" lengthAdjust="spacing" textLength="48" x="93" y="191.9639">Invoice</text></g><!--MD5=[2ce0c9fb7f55b1e256ab28a8ea6b25ec]
class Customer--><g id="elem_Customer"><rect codeLine="26" fill="#90EE90" height="40.2656" id="Customer" rx="2.5" ry="2.5" style="stroke:#181818;stroke-width:0.5;" width="100" x="311" y="41"/><ellipse cx="326" cy="61.1328" fill="#ADD1B2" rx="11" ry="11" style="stroke:#181818;stroke-width:1.0;"/><path d="M328.9688,66.7734 Q328.3906,67.0703 327.75,67.2109 Q327.1094,67.3672 326.4063,67.3672 Q323.9063,67.3672 322.5781,65.7266 Q321.2656,64.0703 321.2656,60.9453 Q321.2656,57.8203 322.5781,56.1641 Q323.9063,54.5078 326.4063,54.5078 Q327.1094,54.5078 327.75,54.6641 Q328.4063,54.8203 328.9688,55.1172 L328.9688,57.8359 Q328.3438,57.2578 327.75,56.9922 Q327.1563,56.7109 326.5313,56.7109 Q325.1875,56.7109 324.5,57.7891 Q323.8125,58.8516 323.8125,60.9453 Q323.8125,63.0391 324.5,64.1172 Q325.1875,65.1797 326.5313,65.1797 Q327.1563,65.1797 327.75,64.9141 Q328.3438,64.6328 328.9688,64.0547 L328.9688,66.7734 Z " fill="#000000"/><text fill="#000000" font-family="sans-serif" font-size="12" font-style="italic" lengthAdjust="spacing" textLength="35" x="356.5" y="57.1387">«ppt»</text><text fill="#000000" font-family="sans-serif" font-size="14" lengthAdjust="spacing" textLength="68" x="340" y="72.9639">Customer</text></g><!--MD5=[c38fb4e0b1062c689707cc5bfe05b3ce]
link Customer_invoices to Invoice--><g id="link_Customer_invoices_Invoice"><path codeLine="23" d="M104,81.06 C104,101.2 104,133.02 104,154.89 " fill="none" id="Customer_invoices-to-Invoice" style="stroke:#181818;stroke-width:1.0;"/><polygon fill="#181818" points="104,159.95,108,150.95,104,154.95,100,150.95,104,159.95" style="stroke:#181818;stroke-width:1.0;"/><text fill="#000000" font-family="sans-serif" font-size="13" lengthAdjust="spacing" textLength="51" x="105" y="126.0669">invoices</text><text fill="#000000" font-family="sans-serif" font-size="13" lengthAdjust="spacing" textLength="19" x="82.2094" y="148.9046">0.*</text></g><!--MD5=[8e22998ddb87c33b83a916134bcc7748]
link Customer_invoices to Customer--><g id="link_Customer_invoices_Customer"><path codeLine="28" d="M185.67,61 C224.89,61 270.86,61 305.89,61 " fill="none" id="Customer_invoices-to-Customer" style="stroke:#181818;stroke-width:1.0;stroke-dasharray:7.0,7.0;"/><polygon fill="#181818" points="310.98,61,301.98,57,305.98,61,301.98,65,310.98,61" style="stroke:#181818;stroke-width:1.0;"/><text fill="#000000" font-family="sans-serif" font-size="13" lengthAdjust="spacing" textLength="89" x="203.75" y="54.0669">contributes to</text></g><!--MD5=[215a5e0827092bde195e6caa34c381e6]
@startuml
hide empty members

skinparam class {
    BackgroundColor<<desc>> Cyan
    BackgroundColor<<ppt>> LightGreen
    BackgroundColor<<mi>> LightPink
    BackgroundColor<<role>> LightYellow
    BackgroundColor<<strategy>> White
    BackgroundColor<<api>> White
    BackgroundColor<<spi>> White
    BackgroundColor<<internal>> LightGrey
    BackgroundColor<<value>> White

    BackgroundColor<<entity>> LightGreen
    BackgroundColor<<viewmodel>> LightPink
    BackgroundColor<<mixin>> LightYellow
}

package invoice {
    class Customer_invoices <<mixin>>
    class Invoice <<mi>>
}
Customer_invoices - -> "0.*" Invoice: invoices

package customers {
    class Customer <<ppt>>
}
Customer_invoices -.r-> Customer: "contributes to"
@enduml

PlantUML version 1.2022.12(Sun Oct 23 18:12:26 GMT 2022)
(GPL source distribution)
Java Runtime: OpenJDK Runtime Environment
JVM: OpenJDK 64-Bit Server VM
Default Encoding: UTF-8
Language: en
Country: US
--></g></svg>