<?xml version="1.0" encoding="UTF-8" standalone="no"?><svg xmlns="http://www.w3.org/2000/svg" xmlns:xlink="http://www.w3.org/1999/xlink" contentStyleType="text/css" height="178px" preserveAspectRatio="none" style="width:122px;height:178px;background:#FFFFFF;" version="1.1" viewBox="0 0 122 178" width="122px" zoomAndPan="magnify"><defs/><g><path d="M12,6 L95,6 A3.75,3.75 0 0 1 97.5,8.5 L104.5,28.2969 L109,28.2969 A2.5,2.5 0 0 1 111.5,30.7969 L111.5,56.0938 A2.5,2.5 0 0 1 109,58.5938 L12,58.5938 A2.5,2.5 0 0 1 9.5,56.0938 L9.5,8.5 A2.5,2.5 0 0 1 12,6 " fill="#F1F1F1" style="stroke:#181818;stroke-width:0.5;"/><line style="stroke:#181818;stroke-width:0.5;" x1="9.5" x2="104.5" y1="28.2969" y2="28.2969"/><text fill="#000000" font-family="sans-serif" font-size="14" lengthAdjust="spacing" textLength="82" x="13.5" y="20.9951">excel-applib</text><path d="M8.5,119 L98.5,119 A3.75,3.75 0 0 1 101,121.5 L108,141.2969 L112.5,141.2969 A2.5,2.5 0 0 1 115,143.7969 L115,169.0938 A2.5,2.5 0 0 1 112.5,171.5938 L8.5,171.5938 A2.5,2.5 0 0 1 6,169.0938 L6,121.5 A2.5,2.5 0 0 1 8.5,119 " fill="#F1F1F1" style="stroke:#181818;stroke-width:0.5;"/><line style="stroke:#181818;stroke-width:0.5;" x1="6" x2="108" y1="141.2969" y2="141.2969"/><text fill="#000000" font-family="sans-serif" font-size="14" lengthAdjust="spacing" textLength="89" x="10" y="133.9951">excel-testing</text><!--MD5=[46daa11d8aff99627bc74f8b64b315e9]
reverse link excel-applib to excel-testing--><g id="link_excel-applib_excel-testing"><path d="M60.5,64.43 C60.5,81.59 60.5,102.67 60.5,118.89 " fill="none" id="excel-applib-backto-excel-testing" style="stroke:#181818;stroke-width:1.0;stroke-dasharray:7.0,7.0;"/><polygon fill="#181818" points="60.5,59.24,56.5,68.24,60.5,64.24,64.5,68.24,60.5,59.24" style="stroke:#181818;stroke-width:1.0;"/></g><!--MD5=[c711da2a9e0f516f1c6282afa4b28018]
@startuml
hide empty members

skinparam class {
    BackgroundColor<<desc>> Cyan
    BackgroundColor<<ppt>> LightGreen
    BackgroundColor<<mi>> LightPink
    BackgroundColor<<role>> LightYellow
    BackgroundColor<<strategy>> White
    BackgroundColor<<api>> White
    BackgroundColor<<spi>> White
    BackgroundColor<<internal>> LightGrey
    BackgroundColor<<value>> White

    BackgroundColor<<entity>> LightGreen
    BackgroundColor<<viewmodel>> LightPink
    BackgroundColor<<mixin>> LightYellow
}

package excel-applib {
}
package excel-testing {
}

"excel-applib" <.- "excel-testing"
@enduml

PlantUML version 1.2022.12(Sun Oct 23 18:12:26 GMT 2022)
(GPL source distribution)
Java Runtime: OpenJDK Runtime Environment
JVM: OpenJDK 64-Bit Server VM
Default Encoding: UTF-8
Language: en
Country: US
--></g></svg>