<?xml version="1.0" encoding="UTF-8" standalone="no"?><svg xmlns="http://www.w3.org/2000/svg" xmlns:xlink="http://www.w3.org/1999/xlink" contentStyleType="text/css" height="386px" preserveAspectRatio="none" style="width:998px;height:386px;background:#FFFFFF;" version="1.1" viewBox="0 0 998 386" width="998px" zoomAndPan="magnify"><defs/><g><!--MD5=[38d6738ede9bb2a15aaf77a6e9238a8e]
class ProgrammingModel--><g id="elem_ProgrammingModel"><rect codeLine="3" fill="#F1F1F1" height="105.1875" id="ProgrammingModel" rx="2.5" ry="2.5" style="stroke:#181818;stroke-width:0.5;" width="229" x="710.5" y="7"/><ellipse cx="754.3" cy="23" fill="#B4A7E5" rx="11" ry="11" style="stroke:#181818;stroke-width:1.0;"/><path d="M750.2219,18.7656 L750.2219,16.6094 L757.6125,16.6094 L757.6125,18.7656 L755.1438,18.7656 L755.1438,26.8438 L757.6125,26.8438 L757.6125,29 L750.2219,29 L750.2219,26.8438 L752.6906,26.8438 L752.6906,18.7656 L750.2219,18.7656 Z " fill="#000000"/><text fill="#000000" font-family="sans-serif" font-size="14" font-style="italic" lengthAdjust="spacing" textLength="133" x="774.7" y="27.8467">ProgrammingModel</text><line style="stroke:#181818;stroke-width:0.5;" x1="711.5" x2="938.5" y1="39" y2="39"/><text fill="#000000" font-family="sans-serif" font-size="14" lengthAdjust="spacing" textLength="217" x="716.5" y="55.9951">init(ProgrammingModelInitFilter)</text><text fill="#000000" font-family="sans-serif" font-size="14" lengthAdjust="spacing" textLength="98" x="716.5" y="72.292">addFactory(...)</text><text fill="#000000" font-family="sans-serif" font-size="14" lengthAdjust="spacing" textLength="107" x="716.5" y="88.5889">addValidator(...)</text><text fill="#000000" font-family="sans-serif" font-size="14" lengthAdjust="spacing" textLength="149" x="716.5" y="104.8857">addPostProcessor(...)</text></g><!--MD5=[096c9e4936e6d7620496877d5fbdcbab]
class ProgrammingModelFacetsJava8--><g id="elem_ProgrammingModelFacetsJava8"><rect codeLine="9" fill="#F1F1F1" height="32" id="ProgrammingModelFacetsJava8" rx="2.5" ry="2.5" style="stroke:#181818;stroke-width:0.5;" width="247" x="701.5" y="201.5"/><ellipse cx="716.5" cy="217.5" fill="#ADD1B2" rx="11" ry="11" style="stroke:#181818;stroke-width:1.0;"/><path d="M719.4688,223.1406 Q718.8906,223.4375 718.25,223.5781 Q717.6094,223.7344 716.9063,223.7344 Q714.4063,223.7344 713.0781,222.0938 Q711.7656,220.4375 711.7656,217.3125 Q711.7656,214.1875 713.0781,212.5313 Q714.4063,210.875 716.9063,210.875 Q717.6094,210.875 718.25,211.0313 Q718.9063,211.1875 719.4688,211.4844 L719.4688,214.2031 Q718.8438,213.625 718.25,213.3594 Q717.6563,213.0781 717.0313,213.0781 Q715.6875,213.0781 715,214.1563 Q714.3125,215.2188 714.3125,217.3125 Q714.3125,219.4063 715,220.4844 Q715.6875,221.5469 717.0313,221.5469 Q717.6563,221.5469 718.25,221.2813 Q718.8438,221 719.4688,220.4219 L719.4688,223.1406 Z " fill="#000000"/><text fill="#000000" font-family="sans-serif" font-size="14" lengthAdjust="spacing" textLength="215" x="730.5" y="222.3467">ProgrammingModelFacetsJava8</text></g><!--MD5=[a0b877c9e7bb7e2c48782e28dce99117]
class ProgrammingModelService--><g id="elem_ProgrammingModelService"><rect codeLine="11" fill="#F1F1F1" height="56.2969" id="ProgrammingModelService" rx="2.5" ry="2.5" style="stroke:#181818;stroke-width:0.5;" width="322" x="303" y="31.5"/><ellipse cx="367.75" cy="47.5" fill="#B4A7E5" rx="11" ry="11" style="stroke:#181818;stroke-width:1.0;"/><path d="M363.6719,43.2656 L363.6719,41.1094 L371.0625,41.1094 L371.0625,43.2656 L368.5938,43.2656 L368.5938,51.3438 L371.0625,51.3438 L371.0625,53.5 L363.6719,53.5 L363.6719,51.3438 L366.1406,51.3438 L366.1406,43.2656 L363.6719,43.2656 Z " fill="#000000"/><text fill="#000000" font-family="sans-serif" font-size="14" font-style="italic" lengthAdjust="spacing" textLength="184" x="388.25" y="52.3467">ProgrammingModelService</text><line style="stroke:#181818;stroke-width:0.5;" x1="304" x2="624" y1="63.5" y2="63.5"/><text fill="#000000" font-family="sans-serif" font-size="14" lengthAdjust="spacing" textLength="310" x="309" y="80.4951">getProgrammingModel(): ProgrammingModel</text></g><!--MD5=[3545f6548698a49c4881a15df820a457]
class ProgrammingModelServiceDefault--><g id="elem_ProgrammingModelServiceDefault"><rect codeLine="14" fill="#F1F1F1" height="32" id="ProgrammingModelServiceDefault" rx="2.5" ry="2.5" style="stroke:#181818;stroke-width:0.5;" width="265" x="331.5" y="201.5"/><ellipse cx="346.5" cy="217.5" fill="#ADD1B2" rx="11" ry="11" style="stroke:#181818;stroke-width:1.0;"/><path d="M349.4688,223.1406 Q348.8906,223.4375 348.25,223.5781 Q347.6094,223.7344 346.9063,223.7344 Q344.4063,223.7344 343.0781,222.0938 Q341.7656,220.4375 341.7656,217.3125 Q341.7656,214.1875 343.0781,212.5313 Q344.4063,210.875 346.9063,210.875 Q347.6094,210.875 348.25,211.0313 Q348.9063,211.1875 349.4688,211.4844 L349.4688,214.2031 Q348.8438,213.625 348.25,213.3594 Q347.6563,213.0781 347.0313,213.0781 Q345.6875,213.0781 345,214.1563 Q344.3125,215.2188 344.3125,217.3125 Q344.3125,219.4063 345,220.4844 Q345.6875,221.5469 347.0313,221.5469 Q347.6563,221.5469 348.25,221.2813 Q348.8438,221 349.4688,220.4219 L349.4688,223.1406 Z " fill="#000000"/><text fill="#000000" font-family="sans-serif" font-size="14" lengthAdjust="spacing" textLength="233" x="360.5" y="222.3467">ProgrammingModelServiceDefault</text></g><!--MD5=[36f14e065da8200f218be258912770bf]
class ProgrammingModelInitFilter--><g id="elem_ProgrammingModelInitFilter"><rect codeLine="16" fill="#F1F1F1" height="88.8906" id="ProgrammingModelInitFilter" rx="2.5" ry="2.5" style="stroke:#181818;stroke-width:0.5;" width="247" x="38.5" y="173"/><ellipse cx="66.1" cy="189" fill="#B4A7E5" rx="11" ry="11" style="stroke:#181818;stroke-width:1.0;"/><path d="M62.0219,184.7656 L62.0219,182.6094 L69.4125,182.6094 L69.4125,184.7656 L66.9438,184.7656 L66.9438,192.8438 L69.4125,192.8438 L69.4125,195 L62.0219,195 L62.0219,192.8438 L64.4906,192.8438 L64.4906,184.7656 L62.0219,184.7656 Z " fill="#000000"/><text fill="#000000" font-family="sans-serif" font-size="14" font-style="italic" lengthAdjust="spacing" textLength="187" x="82.9" y="193.8467">ProgrammingModelInitFilter</text><line style="stroke:#181818;stroke-width:0.5;" x1="39.5" x2="284.5" y1="205" y2="205"/><text fill="#000000" font-family="sans-serif" font-size="14" lengthAdjust="spacing" textLength="218" x="44.5" y="221.9951">boolean acceptFactoryType(...);</text><text fill="#000000" font-family="sans-serif" font-size="14" lengthAdjust="spacing" textLength="193" x="44.5" y="238.292">boolean acceptValidator(...);</text><text fill="#000000" font-family="sans-serif" font-size="14" lengthAdjust="spacing" textLength="235" x="44.5" y="254.5889">boolean acceptPostProcessor(...);</text></g><!--MD5=[575427756d21eef766f04eee52c773c8]
class ProgrammingModelInitFilterDefault--><g id="elem_ProgrammingModelInitFilterDefault"><rect codeLine="21" fill="#F1F1F1" height="32" id="ProgrammingModelInitFilterDefault" rx="2.5" ry="2.5" style="stroke:#181818;stroke-width:0.5;" width="268" x="7" y="335"/><ellipse cx="22" cy="351" fill="#ADD1B2" rx="11" ry="11" style="stroke:#181818;stroke-width:1.0;"/><path d="M24.9688,356.6406 Q24.3906,356.9375 23.75,357.0781 Q23.1094,357.2344 22.4063,357.2344 Q19.9063,357.2344 18.5781,355.5938 Q17.2656,353.9375 17.2656,350.8125 Q17.2656,347.6875 18.5781,346.0313 Q19.9063,344.375 22.4063,344.375 Q23.1094,344.375 23.75,344.5313 Q24.4063,344.6875 24.9688,344.9844 L24.9688,347.7031 Q24.3438,347.125 23.75,346.8594 Q23.1563,346.5781 22.5313,346.5781 Q21.1875,346.5781 20.5,347.6563 Q19.8125,348.7188 19.8125,350.8125 Q19.8125,352.9063 20.5,353.9844 Q21.1875,355.0469 22.5313,355.0469 Q23.1563,355.0469 23.75,354.7813 Q24.3438,354.5 24.9688,353.9219 L24.9688,356.6406 Z " fill="#000000"/><text fill="#000000" font-family="sans-serif" font-size="14" lengthAdjust="spacing" textLength="236" x="36" y="355.8467">ProgrammingModelInitFilterDefault</text></g><!--MD5=[231bb3eda1eda48c926d29adf75ba578]
class MetaModelRefiner--><g id="elem_MetaModelRefiner"><rect codeLine="24" fill="#F1F1F1" height="56.2969" id="MetaModelRefiner" rx="2.5" ry="2.5" style="stroke:#181818;stroke-width:0.5;" width="329" x="310.5" y="323"/><ellipse cx="408.25" cy="339" fill="#B4A7E5" rx="11" ry="11" style="stroke:#181818;stroke-width:1.0;"/><path d="M404.1719,334.7656 L404.1719,332.6094 L411.5625,332.6094 L411.5625,334.7656 L409.0938,334.7656 L409.0938,342.8438 L411.5625,342.8438 L411.5625,345 L404.1719,345 L404.1719,342.8438 L406.6406,342.8438 L406.6406,334.7656 L404.1719,334.7656 Z " fill="#000000"/><text fill="#000000" font-family="sans-serif" font-size="14" font-style="italic" lengthAdjust="spacing" textLength="125" x="428.75" y="343.8467">MetaModelRefiner</text><line style="stroke:#181818;stroke-width:0.5;" x1="311.5" x2="638.5" y1="355" y2="355"/><text fill="#000000" font-family="sans-serif" font-size="14" lengthAdjust="spacing" textLength="317" x="316.5" y="371.9951">refineProgrammingModel(ProgrammingModel)</text></g><!--MD5=[ce0afb130fdeee45ed487ce64805b411]
link MetaModelRefiner to ProgrammingModel--><g id="link_MetaModelRefiner_ProgrammingModel"><path codeLine="28" d="M639.56,342.62 C765.59,333.1 924.67,311.4 966,262 C991.38,231.66 983.16,208.64 966,173 C955.33,150.83 937.93,131.68 918.93,115.77 " fill="none" id="MetaModelRefiner-to-ProgrammingModel" style="stroke:#181818;stroke-width:1.0;stroke-dasharray:7.0,7.0;"/><polygon fill="#181818" points="914.6,112.22,919.0274,121.0176,918.4679,115.3885,924.097,114.829,914.6,112.22" style="stroke:#181818;stroke-width:1.0;"/></g><!--MD5=[6c2b2ea675b299f77338a2317f64c9af]
link ProgrammingModelService to ProgrammingModel--><g id="link_ProgrammingModelService_ProgrammingModel"><path codeLine="29" d="M625.11,59.5 C651.71,59.5 678.3,59.5 704.9,59.5 " fill="none" id="ProgrammingModelService-to-ProgrammingModel" style="stroke:#181818;stroke-width:1.0;stroke-dasharray:7.0,7.0;"/><polygon fill="#181818" points="710.22,59.5,701.22,55.5,705.22,59.5,701.22,63.5,710.22,59.5" style="stroke:#181818;stroke-width:1.0;"/></g><!--MD5=[60aee48f12e41f7206e720f7f56eb015]
link ProgrammingModelServiceDefault to ProgrammingModelFacetsJava8--><g id="link_ProgrammingModelServiceDefault_ProgrammingModelFacetsJava8"><path codeLine="31" d="M596.63,217.5 C629.09,217.5 663.77,217.5 696.05,217.5 " fill="none" id="ProgrammingModelServiceDefault-to-ProgrammingModelFacetsJava8" style="stroke:#181818;stroke-width:1.0;"/><polygon fill="#181818" points="701.21,217.5,692.21,213.5,696.21,217.5,692.21,221.5,701.21,217.5" style="stroke:#181818;stroke-width:1.0;"/><text fill="#000000" font-family="sans-serif" font-size="13" lengthAdjust="spacing" textLength="68" x="615" y="210.5669">instantiate</text></g><!--MD5=[c24b65672d1b1ef47e3ef0dbb9fcc387]
reverse link ProgrammingModelInitFilter to ProgrammingModelServiceDefault--><g id="link_ProgrammingModelInitFilter_ProgrammingModelServiceDefault"><path codeLine="32" d="M290.92,217.5 C304.36,217.5 317.79,217.5 331.22,217.5 " fill="none" id="ProgrammingModelInitFilter-backto-ProgrammingModelServiceDefault" style="stroke:#181818;stroke-width:1.0;"/><polygon fill="#181818" points="285.57,217.5,294.57,221.5,290.57,217.5,294.57,213.5,285.57,217.5" style="stroke:#181818;stroke-width:1.0;"/></g><!--MD5=[c5352f78f2b28b2f0ea651ca42611fe8]
link ProgrammingModelServiceDefault to MetaModelRefiner--><g id="link_ProgrammingModelServiceDefault_MetaModelRefiner"><path codeLine="33" d="M465.26,233.58 C466.97,253.95 470.05,290.77 472.29,317.56 " fill="none" id="ProgrammingModelServiceDefault-to-MetaModelRefiner" style="stroke:#181818;stroke-width:1.0;"/><polygon fill="#181818" points="472.72,322.78,475.961,313.4797,472.306,317.7972,467.9885,314.1421,472.72,322.78" style="stroke:#181818;stroke-width:1.0;"/><text fill="#000000" font-family="sans-serif" font-size="13" lengthAdjust="spacing" textLength="23" x="446.7056" y="312.0152">0..*</text></g><!--MD5=[bbcd0e9d29db4589902cd649aa6e1d37]
reverse link ProgrammingModel to ProgrammingModelFacetsJava8--><g id="link_ProgrammingModel_ProgrammingModelFacetsJava8"><path codeLine="35" d="M825,132.03 C825,158.11 825,185.17 825,201.42 " fill="none" id="ProgrammingModel-backto-ProgrammingModelFacetsJava8" style="stroke:#181818;stroke-width:1.0;"/><polygon fill="none" points="818,132.01,825,112.01,832,132.01,818,132.01" style="stroke:#181818;stroke-width:1.0;"/></g><!--MD5=[371aab221b6bfdcc38a736851a62a624]
reverse link ProgrammingModelService to ProgrammingModelServiceDefault--><g id="link_ProgrammingModelService_ProgrammingModelServiceDefault"><path codeLine="36" d="M464,107.71 C464,139.73 464,179.99 464,201.43 " fill="none" id="ProgrammingModelService-backto-ProgrammingModelServiceDefault" style="stroke:#181818;stroke-width:1.0;"/><polygon fill="none" points="457,107.67,464,87.67,471,107.67,457,107.67" style="stroke:#181818;stroke-width:1.0;"/></g><!--MD5=[3a32fcefc14db8d2503a8a85909c2161]
reverse link ProgrammingModelInitFilter to ProgrammingModelInitFilterDefault--><g id="link_ProgrammingModelInitFilter_ProgrammingModelInitFilterDefault"><path codeLine="37" d="M151.85,282.06 C148.7,301.8 145.5,321.79 143.41,334.93 " fill="none" id="ProgrammingModelInitFilter-backto-ProgrammingModelInitFilterDefault" style="stroke:#181818;stroke-width:1.0;"/><polygon fill="none" points="144.94,280.93,155.01,262.29,158.77,283.14,144.94,280.93" style="stroke:#181818;stroke-width:1.0;"/></g><!--MD5=[97f1344745218229bbb0e2073dc6d7b4]
@startuml
hide empty members

interface ProgrammingModel {
    init(ProgrammingModelInitFilter)
    addFactory(...)
    addValidator(...)
    addPostProcessor(...)
}
class ProgrammingModelFacetsJava8 {}

interface ProgrammingModelService {
    getProgrammingModel(): ProgrammingModel
}
class ProgrammingModelServiceDefault {}

interface ProgrammingModelInitFilter {
    boolean acceptFactoryType(...);
    boolean acceptValidator(...);
    boolean acceptPostProcessor(...);
}
class ProgrammingModelInitFilterDefault {
}

interface MetaModelRefiner {
    refineProgrammingModel(ProgrammingModel)
}

MetaModelRefiner -.[norank]r> ProgrammingModel
ProgrammingModelService -.[norank]r> ProgrammingModel

ProgrammingModelServiceDefault -> ProgrammingModelFacetsJava8 : instantiate
ProgrammingModelServiceDefault -l-> ProgrammingModelInitFilter
ProgrammingModelServiceDefault -d-> "0..*" MetaModelRefiner

ProgrammingModel ^-d- ProgrammingModelFacetsJava8
ProgrammingModelService ^-d- ProgrammingModelServiceDefault
ProgrammingModelInitFilter ^-d- ProgrammingModelInitFilterDefault
@enduml

PlantUML version 1.2022.12(Sun Oct 23 18:12:26 GMT 2022)
(GPL source distribution)
Java Runtime: OpenJDK Runtime Environment
JVM: OpenJDK 64-Bit Server VM
Default Encoding: UTF-8
Language: en
Country: US
--></g></svg>