<?xml version="1.0" encoding="UTF-8" standalone="no"?><svg xmlns="http://www.w3.org/2000/svg" xmlns:xlink="http://www.w3.org/1999/xlink" contentStyleType="text/css" height="198px" preserveAspectRatio="none" style="width:408px;height:198px;background:#FFFFFF;" version="1.1" viewBox="0 0 408 198" width="408px" zoomAndPan="magnify"><defs/><g><!--MD5=[78ab967b86991b085c357b1af2484e31]
entity webapp-...-tests--><g id="elem_webapp-...-tests"><rect fill="#ADD8E6" height="62.5938" rx="2.5" ry="2.5" style="stroke:#181818;stroke-width:0.5;" width="161" x="203" y="130"/><rect fill="#ADD8E6" height="10" style="stroke:#181818;stroke-width:0.5;" width="15" x="344" y="135"/><rect fill="#ADD8E6" height="2" style="stroke:#181818;stroke-width:0.5;" width="4" x="342" y="137"/><rect fill="#ADD8E6" height="2" style="stroke:#181818;stroke-width:0.5;" width="4" x="342" y="141"/><text fill="#000000" font-family="sans-serif" font-size="14" font-style="italic" lengthAdjust="spacing" textLength="121" x="218" y="162.9951">«maven module»</text><text fill="#000000" font-family="sans-serif" font-size="14" lengthAdjust="spacing" textLength="112" x="222.5" y="179.292">webapp-...-tests</text></g><!--MD5=[743e315982ff00b0ca25ed90324277b3]
entity webapp-...--><g id="elem_webapp-..."><rect fill="#F1F1F1" height="62.5938" rx="2.5" ry="2.5" style="stroke:#181818;stroke-width:0.5;" width="161" x="7" y="130"/><rect fill="#F1F1F1" height="10" style="stroke:#181818;stroke-width:0.5;" width="15" x="148" y="135"/><rect fill="#F1F1F1" height="2" style="stroke:#181818;stroke-width:0.5;" width="4" x="146" y="137"/><rect fill="#F1F1F1" height="2" style="stroke:#181818;stroke-width:0.5;" width="4" x="146" y="141"/><text fill="#000000" font-family="sans-serif" font-size="14" font-style="italic" lengthAdjust="spacing" textLength="121" x="22" y="162.9951">«maven module»</text><text fill="#000000" font-family="sans-serif" font-size="14" lengthAdjust="spacing" textLength="72" x="46.5" y="179.292">webapp-...</text></g><!--MD5=[7859c0536705d175ebd1ed0177e4c170]
entity module-...-simple-tests--><g id="elem_module-...-simple-tests"><rect fill="#ADD8E6" height="62.5938" rx="2.5" ry="2.5" style="stroke:#181818;stroke-width:0.5;" width="199" x="203" y="7"/><rect fill="#ADD8E6" height="10" style="stroke:#181818;stroke-width:0.5;" width="15" x="382" y="12"/><rect fill="#ADD8E6" height="2" style="stroke:#181818;stroke-width:0.5;" width="4" x="380" y="14"/><rect fill="#ADD8E6" height="2" style="stroke:#181818;stroke-width:0.5;" width="4" x="380" y="18"/><text fill="#000000" font-family="sans-serif" font-size="14" font-style="italic" lengthAdjust="spacing" textLength="121" x="237" y="39.9951">«maven module»</text><text fill="#000000" font-family="sans-serif" font-size="14" lengthAdjust="spacing" textLength="159" x="218" y="56.292">module-...-simple-tests</text></g><!--MD5=[e530090da2dcabe320e1a3e53e019813]
entity module-...-simple--><g id="elem_module-...-simple"><rect fill="#F1F1F1" height="62.5938" rx="2.5" ry="2.5" style="stroke:#181818;stroke-width:0.5;" width="161" x="7" y="7"/><rect fill="#F1F1F1" height="10" style="stroke:#181818;stroke-width:0.5;" width="15" x="148" y="12"/><rect fill="#F1F1F1" height="2" style="stroke:#181818;stroke-width:0.5;" width="4" x="146" y="14"/><rect fill="#F1F1F1" height="2" style="stroke:#181818;stroke-width:0.5;" width="4" x="146" y="18"/><text fill="#000000" font-family="sans-serif" font-size="14" font-style="italic" lengthAdjust="spacing" textLength="121" x="22" y="39.9951">«maven module»</text><text fill="#000000" font-family="sans-serif" font-size="14" lengthAdjust="spacing" textLength="119" x="23" y="56.292">module-...-simple</text></g><!--MD5=[d7fdbf65ae88c48990053a6e76860028]
reverse link webapp-... to webapp-...-tests--><g id="link_webapp-..._webapp-...-tests"><path d="M173.42,161.5 C183.26,161.5 193.09,161.5 202.93,161.5 " fill="none" id="webapp-...-backto-webapp-...-tests" style="stroke:#181818;stroke-width:1.0;stroke-dasharray:7.0,7.0;"/><polygon fill="#181818" points="168.27,161.5,177.27,165.5,173.27,161.5,177.27,157.5,168.27,161.5" style="stroke:#181818;stroke-width:1.0;"/></g><!--MD5=[2d9120dc6065fa8fb4d6903ca1c8f0d7]
reverse link module-...-simple to module-...-simple-tests--><g id="link_module-...-simple_module-...-simple-tests"><path d="M173.27,38.5 C183.1,38.5 192.93,38.5 202.77,38.5 " fill="none" id="module-...-simple-backto-module-...-simple-tests" style="stroke:#181818;stroke-width:1.0;stroke-dasharray:7.0,7.0;"/><polygon fill="#181818" points="168.12,38.5,177.1314,42.4743,173.12,38.4857,177.1085,34.4743,168.12,38.5" style="stroke:#181818;stroke-width:1.0;"/></g><!--MD5=[99803cd72466681fd9c106dbb9440abd]
reverse link module-...-simple to webapp-...--><g id="link_module-...-simple_webapp-..."><path d="M87.5,75.31 C87.5,92.69 87.5,113.35 87.5,129.98 " fill="none" id="module-...-simple-backto-webapp-..." style="stroke:#181818;stroke-width:1.0;stroke-dasharray:7.0,7.0;"/><polygon fill="#181818" points="87.5,70.03,83.5,79.03,87.5,75.03,91.5,79.03,87.5,70.03" style="stroke:#181818;stroke-width:1.0;"/></g><!--MD5=[c9fa7d9820f984cb4504a323df62ec8b]
@startuml
[webapp-...-tests] <<maven module>> #LightBlue
[webapp-...] <<maven module>>
[module-...-simple-tests]  <<maven module>> #LightBlue
[module-...-simple]  <<maven module>>

[webapp-...-tests] .l-> [webapp-...]
[module-...-simple-tests] .l-> [module-...-simple]
[webapp-...] .u-> [module-...-simple]
@enduml

PlantUML version 1.2022.12(Sun Oct 23 18:12:26 GMT 2022)
(GPL source distribution)
Java Runtime: OpenJDK Runtime Environment
JVM: OpenJDK 64-Bit Server VM
Default Encoding: UTF-8
Language: en
Country: US
--></g></svg>