<?xml version="1.0" encoding="UTF-8" standalone="no"?><svg xmlns="http://www.w3.org/2000/svg" xmlns:xlink="http://www.w3.org/1999/xlink" contentStyleType="text/css" height="321px" preserveAspectRatio="none" style="width:372px;height:321px;background:#FFFFFF;" version="1.1" viewBox="0 0 372 321" width="372px" zoomAndPan="magnify"><defs/><g><!--MD5=[2021705b656b270ae1616113380bc97f]
entity webapp--><g id="elem_webapp"><rect fill="#F1F1F1" height="62.5938" rx="2.5" ry="2.5" style="stroke:#181818;stroke-width:0.5;" width="161" x="105" y="253"/><rect fill="#F1F1F1" height="10" style="stroke:#181818;stroke-width:0.5;" width="15" x="246" y="258"/><rect fill="#F1F1F1" height="2" style="stroke:#181818;stroke-width:0.5;" width="4" x="244" y="260"/><rect fill="#F1F1F1" height="2" style="stroke:#181818;stroke-width:0.5;" width="4" x="244" y="264"/><text fill="#000000" font-family="sans-serif" font-size="14" font-style="italic" lengthAdjust="spacing" textLength="121" x="120" y="285.9951">«maven module»</text><text fill="#000000" font-family="sans-serif" font-size="14" lengthAdjust="spacing" textLength="55" x="153" y="302.292">webapp</text></g><!--MD5=[5480fbae4965b87629b0845b7de8e587]
entity module-order--><g id="elem_module-order"><rect fill="#F1F1F1" height="62.5938" rx="2.5" ry="2.5" style="stroke:#181818;stroke-width:0.5;" width="161" x="105" y="130"/><rect fill="#F1F1F1" height="10" style="stroke:#181818;stroke-width:0.5;" width="15" x="246" y="135"/><rect fill="#F1F1F1" height="2" style="stroke:#181818;stroke-width:0.5;" width="4" x="244" y="137"/><rect fill="#F1F1F1" height="2" style="stroke:#181818;stroke-width:0.5;" width="4" x="244" y="141"/><text fill="#000000" font-family="sans-serif" font-size="14" font-style="italic" lengthAdjust="spacing" textLength="121" x="120" y="162.9951">«maven module»</text><text fill="#000000" font-family="sans-serif" font-size="14" lengthAdjust="spacing" textLength="94" x="133.5" y="179.292">module-order</text></g><!--MD5=[1d080b2c3ed4b2206b80a49e33408a84]
entity module-customer--><g id="elem_module-customer"><rect fill="#F1F1F1" height="62.5938" rx="2.5" ry="2.5" style="stroke:#181818;stroke-width:0.5;" width="163" x="203" y="7"/><rect fill="#F1F1F1" height="10" style="stroke:#181818;stroke-width:0.5;" width="15" x="346" y="12"/><rect fill="#F1F1F1" height="2" style="stroke:#181818;stroke-width:0.5;" width="4" x="344" y="14"/><rect fill="#F1F1F1" height="2" style="stroke:#181818;stroke-width:0.5;" width="4" x="344" y="18"/><text fill="#000000" font-family="sans-serif" font-size="14" font-style="italic" lengthAdjust="spacing" textLength="121" x="219" y="39.9951">«maven module»</text><text fill="#000000" font-family="sans-serif" font-size="14" lengthAdjust="spacing" textLength="123" x="218" y="56.292">module-customer</text></g><!--MD5=[f71c300ea1ca613d32319146750c5242]
entity module-product--><g id="elem_module-product"><rect fill="#F1F1F1" height="62.5938" rx="2.5" ry="2.5" style="stroke:#181818;stroke-width:0.5;" width="161" x="7" y="7"/><rect fill="#F1F1F1" height="10" style="stroke:#181818;stroke-width:0.5;" width="15" x="148" y="12"/><rect fill="#F1F1F1" height="2" style="stroke:#181818;stroke-width:0.5;" width="4" x="146" y="14"/><rect fill="#F1F1F1" height="2" style="stroke:#181818;stroke-width:0.5;" width="4" x="146" y="18"/><text fill="#000000" font-family="sans-serif" font-size="14" font-style="italic" lengthAdjust="spacing" textLength="121" x="22" y="39.9951">«maven module»</text><text fill="#000000" font-family="sans-serif" font-size="14" lengthAdjust="spacing" textLength="111" x="27" y="56.292">module-product</text></g><!--MD5=[6ee13c75d05f72e8361b34b32e76bc28]
reverse link module-order to webapp--><g id="link_module-order_webapp"><path d="M185.5,198.31 C185.5,215.69 185.5,236.35 185.5,252.98 " fill="none" id="module-order-backto-webapp" style="stroke:#181818;stroke-width:1.0;stroke-dasharray:7.0,7.0;"/><polygon fill="#181818" points="185.5,193.03,181.5,202.03,185.5,198.03,189.5,202.03,185.5,193.03" style="stroke:#181818;stroke-width:1.0;"/></g><!--MD5=[a93c2e31ed9207dfd3e611bb28656920]
reverse link module-customer to module-order--><g id="link_module-customer_module-order"><path d="M256.3,73.97 C241.85,91.62 224.42,112.93 210.47,129.98 " fill="none" id="module-customer-backto-module-order" style="stroke:#181818;stroke-width:1.0;stroke-dasharray:7.0,7.0;"/><polygon fill="#181818" points="259.52,70.03,250.7322,74.4768,256.36,73.9049,256.932,79.5327,259.52,70.03" style="stroke:#181818;stroke-width:1.0;"/></g><!--MD5=[98362726b7f55382ac5b1ec0a90ea588]
reverse link module-product to module-order--><g id="link_module-product_module-order"><path d="M115.42,73.97 C129.72,91.62 146.97,112.93 160.78,129.98 " fill="none" id="module-product-backto-module-order" style="stroke:#181818;stroke-width:1.0;stroke-dasharray:7.0,7.0;"/><polygon fill="#181818" points="112.23,70.03,114.7798,79.5431,115.3743,73.9176,120.9999,74.5121,112.23,70.03" style="stroke:#181818;stroke-width:1.0;"/></g><!--MD5=[fe57f4ce665594a693dfbb62345c1b19]
@startuml
[webapp] <<maven module>>
[module-order]  <<maven module>>
[module-customer]  <<maven module>>
[module-product]  <<maven module>>

[webapp] .u-> [module-order]
[module-order] .u-> [module-customer]
[module-order] .u-> [module-product]
@enduml

PlantUML version 1.2022.12(Sun Oct 23 18:12:26 GMT 2022)
(GPL source distribution)
Java Runtime: OpenJDK Runtime Environment
JVM: OpenJDK 64-Bit Server VM
Default Encoding: UTF-8
Language: en
Country: US
--></g></svg>