<?xml version="1.0" encoding="UTF-8" standalone="no"?><svg xmlns="http://www.w3.org/2000/svg" xmlns:xlink="http://www.w3.org/1999/xlink" contentStyleType="text/css" height="552px" preserveAspectRatio="none" style="width:882px;height:552px;background:#FFFFFF;" version="1.1" viewBox="0 0 882 552" width="882px" zoomAndPan="magnify"><defs/><g><!--MD5=[4945c737fad898a5ce312252f730d528]
class Renderer--><g id="elem_Renderer"><rect codeLine="1" fill="#F1F1F1" height="113.1875" id="Renderer" rx="2.5" ry="2.5" style="stroke:#181818;stroke-width:0.5;" width="131" x="315.5" y="165"/><ellipse cx="345.8" cy="181" fill="#A9DCDF" rx="11" ry="11" style="stroke:#181818;stroke-width:1.0;"/><path d="M345.9094,176.3438 L344.7531,181.4219 L347.0813,181.4219 L345.9094,176.3438 Z M344.425,174.1094 L347.4094,174.1094 L350.7688,186.5 L348.3156,186.5 L347.55,183.4375 L344.2688,183.4375 L343.5188,186.5 L341.0813,186.5 L344.425,174.1094 Z " fill="#000000"/><text fill="#000000" font-family="sans-serif" font-size="14" font-style="italic" lengthAdjust="spacing" textLength="65" x="363.2" y="185.8467">Renderer</text><line style="stroke:#181818;stroke-width:0.5;" x1="316.5" x2="445.5" y1="197" y2="197"/><text fill="#000000" font-family="sans-serif" font-size="14" lengthAdjust="spacing" textLength="114" x="321.5" y="213.9951">iconName:String</text><text fill="#000000" font-family="sans-serif" font-size="14" lengthAdjust="spacing" textLength="70" x="321.5" y="230.292">title:String</text><text fill="#000000" font-family="sans-serif" font-size="14" lengthAdjust="spacing" textLength="92" x="321.5" y="246.5889">view:RvzView</text><text fill="#000000" font-family="sans-serif" font-size="14" lengthAdjust="spacing" textLength="119" x="321.5" y="262.8857">protocol:Protocol</text><line style="stroke:#181818;stroke-width:0.5;" x1="316.5" x2="445.5" y1="270.1875" y2="270.1875"/></g><!--MD5=[a0c27cfb527bdb20a6436baa93834728]
class Protocol--><g id="elem_Protocol"><rect codeLine="9" fill="#F1F1F1" height="64.2969" id="Protocol" rx="2.5" ry="2.5" style="stroke:#181818;stroke-width:0.5;" width="223" x="525.5" y="189.5"/><ellipse cx="604.75" cy="205.5" fill="#A9DCDF" rx="11" ry="11" style="stroke:#181818;stroke-width:1.0;"/><path d="M604.8594,200.8438 L603.7031,205.9219 L606.0313,205.9219 L604.8594,200.8438 Z M603.375,198.6094 L606.3594,198.6094 L609.7188,211 L607.2656,211 L606.5,207.9375 L603.2188,207.9375 L602.4688,211 L600.0313,211 L603.375,198.6094 Z " fill="#000000"/><text fill="#000000" font-family="sans-serif" font-size="14" font-style="italic" lengthAdjust="spacing" textLength="56" x="625.25" y="210.3467">Protocol</text><line style="stroke:#181818;stroke-width:0.5;" x1="526.5" x2="747.5" y1="221.5" y2="221.5"/><line style="stroke:#181818;stroke-width:0.5;" x1="526.5" x2="747.5" y1="229.5" y2="229.5"/><text fill="#000000" font-family="sans-serif" font-size="14" lengthAdjust="spacing" textLength="211" x="531.5" y="246.4951">includes(propertyName:String)</text></g><!--MD5=[b6539e280a383d4bd2138df28ea79f0b]
class ObjectRdr--><g id="elem_ObjectRdr"><rect fill="#F1F1F1" height="48" id="ObjectRdr" rx="2.5" ry="2.5" style="stroke:#181818;stroke-width:0.5;" width="101" x="279.5" y="363.5"/><ellipse cx="294.5" cy="379.5" fill="#ADD1B2" rx="11" ry="11" style="stroke:#181818;stroke-width:1.0;"/><path d="M297.4688,385.1406 Q296.8906,385.4375 296.25,385.5781 Q295.6094,385.7344 294.9063,385.7344 Q292.4063,385.7344 291.0781,384.0938 Q289.7656,382.4375 289.7656,379.3125 Q289.7656,376.1875 291.0781,374.5313 Q292.4063,372.875 294.9063,372.875 Q295.6094,372.875 296.25,373.0313 Q296.9063,373.1875 297.4688,373.4844 L297.4688,376.2031 Q296.8438,375.625 296.25,375.3594 Q295.6563,375.0781 295.0313,375.0781 Q293.6875,375.0781 293,376.1563 Q292.3125,377.2188 292.3125,379.3125 Q292.3125,381.4063 293,382.4844 Q293.6875,383.5469 295.0313,383.5469 Q295.6563,383.5469 296.25,383.2813 Q296.8438,383 297.4688,382.4219 L297.4688,385.1406 Z " fill="#000000"/><text fill="#000000" font-family="sans-serif" font-size="14" lengthAdjust="spacing" textLength="69" x="308.5" y="384.3467">ObjectRdr</text><line style="stroke:#181818;stroke-width:0.5;" x1="280.5" x2="379.5" y1="395.5" y2="395.5"/><line style="stroke:#181818;stroke-width:0.5;" x1="280.5" x2="379.5" y1="403.5" y2="403.5"/></g><!--MD5=[d6ae8c69a1e8d6a13eccb0dce773b0aa]
class CollectionRdr--><g id="elem_CollectionRdr"><rect fill="#F1F1F1" height="48" id="CollectionRdr" rx="2.5" ry="2.5" style="stroke:#181818;stroke-width:0.5;" width="124" x="416" y="363.5"/><ellipse cx="431" cy="379.5" fill="#ADD1B2" rx="11" ry="11" style="stroke:#181818;stroke-width:1.0;"/><path d="M433.9688,385.1406 Q433.3906,385.4375 432.75,385.5781 Q432.1094,385.7344 431.4063,385.7344 Q428.9063,385.7344 427.5781,384.0938 Q426.2656,382.4375 426.2656,379.3125 Q426.2656,376.1875 427.5781,374.5313 Q428.9063,372.875 431.4063,372.875 Q432.1094,372.875 432.75,373.0313 Q433.4063,373.1875 433.9688,373.4844 L433.9688,376.2031 Q433.3438,375.625 432.75,375.3594 Q432.1563,375.0781 431.5313,375.0781 Q430.1875,375.0781 429.5,376.1563 Q428.8125,377.2188 428.8125,379.3125 Q428.8125,381.4063 429.5,382.4844 Q430.1875,383.5469 431.5313,383.5469 Q432.1563,383.5469 432.75,383.2813 Q433.3438,383 433.9688,382.4219 L433.9688,385.1406 Z " fill="#000000"/><text fill="#000000" font-family="sans-serif" font-size="14" lengthAdjust="spacing" textLength="92" x="445" y="384.3467">CollectionRdr</text><line style="stroke:#181818;stroke-width:0.5;" x1="417" x2="539" y1="395.5" y2="395.5"/><line style="stroke:#181818;stroke-width:0.5;" x1="417" x2="539" y1="403.5" y2="403.5"/></g><!--MD5=[24f215063a43c8314490619b47a99cd0]
class GeoLocationRdr--><g id="elem_GeoLocationRdr"><rect fill="#F1F1F1" height="48" id="GeoLocationRdr" rx="2.5" ry="2.5" style="stroke:#181818;stroke-width:0.5;" width="143" x="373.5" y="497"/><ellipse cx="388.5" cy="513" fill="#ADD1B2" rx="11" ry="11" style="stroke:#181818;stroke-width:1.0;"/><path d="M391.4688,518.6406 Q390.8906,518.9375 390.25,519.0781 Q389.6094,519.2344 388.9063,519.2344 Q386.4063,519.2344 385.0781,517.5938 Q383.7656,515.9375 383.7656,512.8125 Q383.7656,509.6875 385.0781,508.0313 Q386.4063,506.375 388.9063,506.375 Q389.6094,506.375 390.25,506.5313 Q390.9063,506.6875 391.4688,506.9844 L391.4688,509.7031 Q390.8438,509.125 390.25,508.8594 Q389.6563,508.5781 389.0313,508.5781 Q387.6875,508.5781 387,509.6563 Q386.3125,510.7188 386.3125,512.8125 Q386.3125,514.9063 387,515.9844 Q387.6875,517.0469 389.0313,517.0469 Q389.6563,517.0469 390.25,516.7813 Q390.8438,516.5 391.4688,515.9219 L391.4688,518.6406 Z " fill="#000000"/><text fill="#000000" font-family="sans-serif" font-size="14" lengthAdjust="spacing" textLength="111" x="402.5" y="517.8467">GeoLocationRdr</text><line style="stroke:#181818;stroke-width:0.5;" x1="374.5" x2="515.5" y1="529" y2="529"/><line style="stroke:#181818;stroke-width:0.5;" x1="374.5" x2="515.5" y1="537" y2="537"/></g><!--MD5=[3ac3a25a251d55f379c2f348a979e9b0]
class EventRdr--><g id="elem_EventRdr"><rect fill="#F1F1F1" height="48" id="EventRdr" rx="2.5" ry="2.5" style="stroke:#181818;stroke-width:0.5;" width="95" x="551.5" y="497"/><ellipse cx="566.5" cy="513" fill="#ADD1B2" rx="11" ry="11" style="stroke:#181818;stroke-width:1.0;"/><path d="M569.4688,518.6406 Q568.8906,518.9375 568.25,519.0781 Q567.6094,519.2344 566.9063,519.2344 Q564.4063,519.2344 563.0781,517.5938 Q561.7656,515.9375 561.7656,512.8125 Q561.7656,509.6875 563.0781,508.0313 Q564.4063,506.375 566.9063,506.375 Q567.6094,506.375 568.25,506.5313 Q568.9063,506.6875 569.4688,506.9844 L569.4688,509.7031 Q568.8438,509.125 568.25,508.8594 Q567.6563,508.5781 567.0313,508.5781 Q565.6875,508.5781 565,509.6563 Q564.3125,510.7188 564.3125,512.8125 Q564.3125,514.9063 565,515.9844 Q565.6875,517.0469 567.0313,517.0469 Q567.6563,517.0469 568.25,516.7813 Q568.8438,516.5 569.4688,515.9219 L569.4688,518.6406 Z " fill="#000000"/><text fill="#000000" font-family="sans-serif" font-size="14" lengthAdjust="spacing" textLength="63" x="580.5" y="517.8467">EventRdr</text><line style="stroke:#181818;stroke-width:0.5;" x1="552.5" x2="645.5" y1="529" y2="529"/><line style="stroke:#181818;stroke-width:0.5;" x1="552.5" x2="645.5" y1="537" y2="537"/></g><!--MD5=[95c202079db465f723a54bd2613961c9]
class RvzView--><g id="elem_RvzView"><rect codeLine="18" fill="#F1F1F1" height="48" id="RvzView" rx="2.5" ry="2.5" style="stroke:#181818;stroke-width:0.5;" width="90" x="145" y="197.5"/><ellipse cx="160" cy="213.5" fill="#A9DCDF" rx="11" ry="11" style="stroke:#181818;stroke-width:1.0;"/><path d="M160.1094,208.8438 L158.9531,213.9219 L161.2813,213.9219 L160.1094,208.8438 Z M158.625,206.6094 L161.6094,206.6094 L164.9688,219 L162.5156,219 L161.75,215.9375 L158.4688,215.9375 L157.7188,219 L155.2813,219 L158.625,206.6094 Z " fill="#000000"/><text fill="#000000" font-family="sans-serif" font-size="14" font-style="italic" lengthAdjust="spacing" textLength="58" x="174" y="218.3467">RvzView</text><line style="stroke:#181818;stroke-width:0.5;" x1="146" x2="234" y1="229.5" y2="229.5"/><line style="stroke:#181818;stroke-width:0.5;" x1="146" x2="234" y1="237.5" y2="237.5"/></g><!--MD5=[6c3b58582fac924f51ad18fcef343f94]
class ObjectV--><g id="elem_ObjectV"><rect fill="#F1F1F1" height="48" id="ObjectV" rx="2.5" ry="2.5" style="stroke:#181818;stroke-width:0.5;" width="86" x="14" y="363.5"/><ellipse cx="29" cy="379.5" fill="#ADD1B2" rx="11" ry="11" style="stroke:#181818;stroke-width:1.0;"/><path d="M31.9688,385.1406 Q31.3906,385.4375 30.75,385.5781 Q30.1094,385.7344 29.4063,385.7344 Q26.9063,385.7344 25.5781,384.0938 Q24.2656,382.4375 24.2656,379.3125 Q24.2656,376.1875 25.5781,374.5313 Q26.9063,372.875 29.4063,372.875 Q30.1094,372.875 30.75,373.0313 Q31.4063,373.1875 31.9688,373.4844 L31.9688,376.2031 Q31.3438,375.625 30.75,375.3594 Q30.1563,375.0781 29.5313,375.0781 Q28.1875,375.0781 27.5,376.1563 Q26.8125,377.2188 26.8125,379.3125 Q26.8125,381.4063 27.5,382.4844 Q28.1875,383.5469 29.5313,383.5469 Q30.1563,383.5469 30.75,383.2813 Q31.3438,383 31.9688,382.4219 L31.9688,385.1406 Z " fill="#000000"/><text fill="#000000" font-family="sans-serif" font-size="14" lengthAdjust="spacing" textLength="54" x="43" y="384.3467">ObjectV</text><line style="stroke:#181818;stroke-width:0.5;" x1="15" x2="99" y1="395.5" y2="395.5"/><line style="stroke:#181818;stroke-width:0.5;" x1="15" x2="99" y1="403.5" y2="403.5"/></g><!--MD5=[29b76ffdfded4b0080fb0804d3ebb794]
class CollectionV--><g id="elem_CollectionV"><rect fill="#F1F1F1" height="48" id="CollectionV" rx="2.5" ry="2.5" style="stroke:#181818;stroke-width:0.5;" width="109" x="135.5" y="363.5"/><ellipse cx="150.5" cy="379.5" fill="#ADD1B2" rx="11" ry="11" style="stroke:#181818;stroke-width:1.0;"/><path d="M153.4688,385.1406 Q152.8906,385.4375 152.25,385.5781 Q151.6094,385.7344 150.9063,385.7344 Q148.4063,385.7344 147.0781,384.0938 Q145.7656,382.4375 145.7656,379.3125 Q145.7656,376.1875 147.0781,374.5313 Q148.4063,372.875 150.9063,372.875 Q151.6094,372.875 152.25,373.0313 Q152.9063,373.1875 153.4688,373.4844 L153.4688,376.2031 Q152.8438,375.625 152.25,375.3594 Q151.6563,375.0781 151.0313,375.0781 Q149.6875,375.0781 149,376.1563 Q148.3125,377.2188 148.3125,379.3125 Q148.3125,381.4063 149,382.4844 Q149.6875,383.5469 151.0313,383.5469 Q151.6563,383.5469 152.25,383.2813 Q152.8438,383 153.4688,382.4219 L153.4688,385.1406 Z " fill="#000000"/><text fill="#000000" font-family="sans-serif" font-size="14" lengthAdjust="spacing" textLength="77" x="164.5" y="384.3467">CollectionV</text><line style="stroke:#181818;stroke-width:0.5;" x1="136.5" x2="243.5" y1="395.5" y2="395.5"/><line style="stroke:#181818;stroke-width:0.5;" x1="136.5" x2="243.5" y1="403.5" y2="403.5"/></g><!--MD5=[ce11c7b60128b8f9f5bdad83b2e63219]
class GeoLocationV--><g id="elem_GeoLocationV"><rect fill="#F1F1F1" height="48" id="GeoLocationV" rx="2.5" ry="2.5" style="stroke:#181818;stroke-width:0.5;" width="128" x="7" y="497"/><ellipse cx="22" cy="513" fill="#ADD1B2" rx="11" ry="11" style="stroke:#181818;stroke-width:1.0;"/><path d="M24.9688,518.6406 Q24.3906,518.9375 23.75,519.0781 Q23.1094,519.2344 22.4063,519.2344 Q19.9063,519.2344 18.5781,517.5938 Q17.2656,515.9375 17.2656,512.8125 Q17.2656,509.6875 18.5781,508.0313 Q19.9063,506.375 22.4063,506.375 Q23.1094,506.375 23.75,506.5313 Q24.4063,506.6875 24.9688,506.9844 L24.9688,509.7031 Q24.3438,509.125 23.75,508.8594 Q23.1563,508.5781 22.5313,508.5781 Q21.1875,508.5781 20.5,509.6563 Q19.8125,510.7188 19.8125,512.8125 Q19.8125,514.9063 20.5,515.9844 Q21.1875,517.0469 22.5313,517.0469 Q23.1563,517.0469 23.75,516.7813 Q24.3438,516.5 24.9688,515.9219 L24.9688,518.6406 Z " fill="#000000"/><text fill="#000000" font-family="sans-serif" font-size="14" lengthAdjust="spacing" textLength="96" x="36" y="517.8467">GeoLocationV</text><line style="stroke:#181818;stroke-width:0.5;" x1="8" x2="134" y1="529" y2="529"/><line style="stroke:#181818;stroke-width:0.5;" x1="8" x2="134" y1="537" y2="537"/></g><!--MD5=[2429bad2ddc5e5d3e57729082f69edc1]
class TimeLineV--><g id="elem_TimeLineV"><rect fill="#F1F1F1" height="48" id="TimeLineV" rx="2.5" ry="2.5" style="stroke:#181818;stroke-width:0.5;" width="103" x="170.5" y="497"/><ellipse cx="185.5" cy="513" fill="#ADD1B2" rx="11" ry="11" style="stroke:#181818;stroke-width:1.0;"/><path d="M188.4688,518.6406 Q187.8906,518.9375 187.25,519.0781 Q186.6094,519.2344 185.9063,519.2344 Q183.4063,519.2344 182.0781,517.5938 Q180.7656,515.9375 180.7656,512.8125 Q180.7656,509.6875 182.0781,508.0313 Q183.4063,506.375 185.9063,506.375 Q186.6094,506.375 187.25,506.5313 Q187.9063,506.6875 188.4688,506.9844 L188.4688,509.7031 Q187.8438,509.125 187.25,508.8594 Q186.6563,508.5781 186.0313,508.5781 Q184.6875,508.5781 184,509.6563 Q183.3125,510.7188 183.3125,512.8125 Q183.3125,514.9063 184,515.9844 Q184.6875,517.0469 186.0313,517.0469 Q186.6563,517.0469 187.25,516.7813 Q187.8438,516.5 188.4688,515.9219 L188.4688,518.6406 Z " fill="#000000"/><text fill="#000000" font-family="sans-serif" font-size="14" lengthAdjust="spacing" textLength="71" x="199.5" y="517.8467">TimeLineV</text><line style="stroke:#181818;stroke-width:0.5;" x1="171.5" x2="272.5" y1="529" y2="529"/><line style="stroke:#181818;stroke-width:0.5;" x1="171.5" x2="272.5" y1="537" y2="537"/></g><!--MD5=[bd1591ba57da9f11d5bbb0d64d5c2717]
class Exposer--><g id="elem_Exposer"><rect codeLine="28" fill="#F1F1F1" height="64.2969" id="Exposer" rx="2.5" ry="2.5" style="stroke:#181818;stroke-width:0.5;" width="180" x="547" y="15.5"/><ellipse cx="604.75" cy="31.5" fill="#ADD1B2" rx="11" ry="11" style="stroke:#181818;stroke-width:1.0;"/><path d="M607.7188,37.1406 Q607.1406,37.4375 606.5,37.5781 Q605.8594,37.7344 605.1563,37.7344 Q602.6563,37.7344 601.3281,36.0938 Q600.0156,34.4375 600.0156,31.3125 Q600.0156,28.1875 601.3281,26.5313 Q602.6563,24.875 605.1563,24.875 Q605.8594,24.875 606.5,25.0313 Q607.1563,25.1875 607.7188,25.4844 L607.7188,28.2031 Q607.0938,27.625 606.5,27.3594 Q605.9063,27.0781 605.2813,27.0781 Q603.9375,27.0781 603.25,28.1563 Q602.5625,29.2188 602.5625,31.3125 Q602.5625,33.4063 603.25,34.4844 Q603.9375,35.5469 605.2813,35.5469 Q605.9063,35.5469 606.5,35.2813 Q607.0938,35 607.7188,34.4219 L607.7188,37.1406 Z " fill="#000000"/><text fill="#000000" font-family="sans-serif" font-size="14" lengthAdjust="spacing" textLength="56" x="625.25" y="36.3467">Exposer</text><line style="stroke:#181818;stroke-width:0.5;" x1="548" x2="726" y1="47.5" y2="47.5"/><text fill="#000000" font-family="sans-serif" font-size="14" lengthAdjust="spacing" textLength="168" x="553" y="64.4951">delegate:TransferObject</text><line style="stroke:#181818;stroke-width:0.5;" x1="548" x2="726" y1="71.7969" y2="71.7969"/></g><!--MD5=[1baf32c238e7b10acca77db68c6197d6]
class TransferObject--><g id="elem_TransferObject"><rect codeLine="32" fill="#90EE90" height="64.2969" id="TransferObject" rx="2.5" ry="2.5" style="stroke:#181818;stroke-width:0.5;" width="193" x="318.5" y="15.5"/><ellipse cx="360.5" cy="31.5" fill="#A9DCDF" rx="11" ry="11" style="stroke:#181818;stroke-width:1.0;"/><path d="M360.6094,26.8438 L359.4531,31.9219 L361.7813,31.9219 L360.6094,26.8438 Z M359.125,24.6094 L362.1094,24.6094 L365.4688,37 L363.0156,37 L362.25,33.9375 L358.9688,33.9375 L358.2188,37 L355.7813,37 L359.125,24.6094 Z " fill="#000000"/><text fill="#000000" font-family="sans-serif" font-size="14" font-style="italic" lengthAdjust="spacing" textLength="101" x="380.5" y="36.3467">TransferObject</text><line style="stroke:#181818;stroke-width:0.5;" x1="319.5" x2="510.5" y1="47.5" y2="47.5"/><text fill="#000000" font-family="sans-serif" font-size="14" lengthAdjust="spacing" textLength="181" x="324.5" y="64.4951">properties:List&lt;Property&gt;</text><line style="stroke:#181818;stroke-width:0.5;" x1="319.5" x2="510.5" y1="71.7969" y2="71.7969"/></g><!--MD5=[6b626634f3bb0842bebd5e499c80b711]
class Property--><g id="elem_Property"><rect codeLine="36" fill="#ADD8E6" height="80.5938" id="Property" rx="2.5" ry="2.5" style="stroke:#181818;stroke-width:0.5;" width="100" x="159" y="7"/><ellipse cx="178.5" cy="23" fill="#ADD1B2" rx="11" ry="11" style="stroke:#181818;stroke-width:1.0;"/><path d="M181.4688,28.6406 Q180.8906,28.9375 180.25,29.0781 Q179.6094,29.2344 178.9063,29.2344 Q176.4063,29.2344 175.0781,27.5938 Q173.7656,25.9375 173.7656,22.8125 Q173.7656,19.6875 175.0781,18.0313 Q176.4063,16.375 178.9063,16.375 Q179.6094,16.375 180.25,16.5313 Q180.9063,16.6875 181.4688,16.9844 L181.4688,19.7031 Q180.8438,19.125 180.25,18.8594 Q179.6563,18.5781 179.0313,18.5781 Q177.6875,18.5781 177,19.6563 Q176.3125,20.7188 176.3125,22.8125 Q176.3125,24.9063 177,25.9844 Q177.6875,27.0469 179.0313,27.0469 Q179.6563,27.0469 180.25,26.7813 Q180.8438,26.5 181.4688,25.9219 L181.4688,28.6406 Z " fill="#000000"/><text fill="#000000" font-family="sans-serif" font-size="14" lengthAdjust="spacing" textLength="58" x="193.5" y="27.8467">Property</text><line style="stroke:#181818;stroke-width:0.5;" x1="160" x2="258" y1="39" y2="39"/><text fill="#000000" font-family="sans-serif" font-size="14" lengthAdjust="spacing" textLength="88" x="165" y="55.9951">name: String</text><text fill="#000000" font-family="sans-serif" font-size="14" lengthAdjust="spacing" textLength="76" x="165" y="72.292">type: Class</text><line style="stroke:#181818;stroke-width:0.5;" x1="160" x2="258" y1="79.5938" y2="79.5938"/></g><!--MD5=[1e477e70b6ee4c5ba5660faf99f4d9ee]
class TimeLinePtc--><g id="elem_TimeLinePtc"><rect codeLine="43" fill="#ADD8E6" height="96.8906" id="TimeLinePtc" rx="2.5" ry="2.5" style="stroke:#181818;stroke-width:0.5;" width="124" x="575" y="339"/><ellipse cx="593.6" cy="355" fill="#ADD1B2" rx="11" ry="11" style="stroke:#181818;stroke-width:1.0;"/><path d="M596.5688,360.6406 Q595.9906,360.9375 595.35,361.0781 Q594.7094,361.2344 594.0063,361.2344 Q591.5063,361.2344 590.1781,359.5938 Q588.8656,357.9375 588.8656,354.8125 Q588.8656,351.6875 590.1781,350.0313 Q591.5063,348.375 594.0063,348.375 Q594.7094,348.375 595.35,348.5313 Q596.0063,348.6875 596.5688,348.9844 L596.5688,351.7031 Q595.9438,351.125 595.35,350.8594 Q594.7563,350.5781 594.1313,350.5781 Q592.7875,350.5781 592.1,351.6563 Q591.4125,352.7188 591.4125,354.8125 Q591.4125,356.9063 592.1,357.9844 Q592.7875,359.0469 594.1313,359.0469 Q594.7563,359.0469 595.35,358.7813 Q595.9438,358.5 596.5688,357.9219 L596.5688,360.6406 Z " fill="#000000"/><text fill="#000000" font-family="sans-serif" font-size="14" lengthAdjust="spacing" textLength="84" x="608.4" y="359.8467">TimeLinePtc</text><line style="stroke:#181818;stroke-width:0.5;" x1="576" x2="698" y1="371" y2="371"/><text fill="#000000" font-family="sans-serif" font-size="14" lengthAdjust="spacing" textLength="103" x="581" y="387.9951">start:DateTime</text><text fill="#000000" font-family="sans-serif" font-size="14" lengthAdjust="spacing" textLength="99" x="581" y="404.292">end:DateTime</text><text fill="#000000" font-family="sans-serif" font-size="14" lengthAdjust="spacing" textLength="112" x="581" y="420.5889">duration:Double</text><line style="stroke:#181818;stroke-width:0.5;" x1="576" x2="698" y1="427.8906" y2="427.8906"/></g><!--MD5=[701a273d35b20c028becaec0330689a0]
class GeoLocationPtc--><g id="elem_GeoLocationPtc"><rect codeLine="48" fill="#ADD8E6" height="80.5938" id="GeoLocationPtc" rx="2.5" ry="2.5" style="stroke:#181818;stroke-width:0.5;" width="141" x="734.5" y="347"/><ellipse cx="749.5" cy="363" fill="#ADD1B2" rx="11" ry="11" style="stroke:#181818;stroke-width:1.0;"/><path d="M752.4688,368.6406 Q751.8906,368.9375 751.25,369.0781 Q750.6094,369.2344 749.9063,369.2344 Q747.4063,369.2344 746.0781,367.5938 Q744.7656,365.9375 744.7656,362.8125 Q744.7656,359.6875 746.0781,358.0313 Q747.4063,356.375 749.9063,356.375 Q750.6094,356.375 751.25,356.5313 Q751.9063,356.6875 752.4688,356.9844 L752.4688,359.7031 Q751.8438,359.125 751.25,358.8594 Q750.6563,358.5781 750.0313,358.5781 Q748.6875,358.5781 748,359.6563 Q747.3125,360.7188 747.3125,362.8125 Q747.3125,364.9063 748,365.9844 Q748.6875,367.0469 750.0313,367.0469 Q750.6563,367.0469 751.25,366.7813 Q751.8438,366.5 752.4688,365.9219 L752.4688,368.6406 Z " fill="#000000"/><text fill="#000000" font-family="sans-serif" font-size="14" lengthAdjust="spacing" textLength="109" x="763.5" y="367.8467">GeoLocationPtc</text><line style="stroke:#181818;stroke-width:0.5;" x1="735.5" x2="874.5" y1="379" y2="379"/><text fill="#000000" font-family="sans-serif" font-size="14" lengthAdjust="spacing" textLength="106" x="740.5" y="395.9951">latitude:Double</text><text fill="#000000" font-family="sans-serif" font-size="14" lengthAdjust="spacing" textLength="120" x="740.5" y="412.292">longitude:Double</text><line style="stroke:#181818;stroke-width:0.5;" x1="735.5" x2="874.5" y1="419.5938" y2="419.5938"/></g><!--MD5=[776de531de4fc26eb6aa1d58b5cd9cef]
link Renderer to Protocol--><g id="link_Renderer_Protocol"><path codeLine="7" d="M447,221.5 C471.37,221.5 495.73,221.5 520.1,221.5 " fill="none" id="Renderer-to-Protocol" style="stroke:#181818;stroke-width:1.0;"/><polygon fill="#181818" points="525.3,221.5,516.3,217.5,520.3,221.5,516.3,225.5,525.3,221.5" style="stroke:#181818;stroke-width:1.0;"/></g><!--MD5=[3cb176c019a1793214f32deabd48c781]
reverse link Renderer to ObjectRdr--><g id="link_Renderer_ObjectRdr"><path codeLine="13" d="M357.72,297.35 C350.27,321.33 342.55,346.13 337.16,363.47 " fill="none" id="Renderer-backto-ObjectRdr" style="stroke:#181818;stroke-width:1.0;"/><polygon fill="none" points="351.11,295.04,363.73,278.02,364.48,299.2,351.11,295.04" style="stroke:#181818;stroke-width:1.0;"/></g><!--MD5=[79e6345601408747d594ba1142016117]
reverse link Renderer to CollectionRdr--><g id="link_Renderer_CollectionRdr"><path codeLine="14" d="M424.22,295.57 C438.72,320.09 453.87,345.7 464.38,363.47 " fill="none" id="Renderer-backto-CollectionRdr" style="stroke:#181818;stroke-width:1.0;"/><polygon fill="none" points="418,298.8,413.84,278.02,430.05,291.67,418,298.8" style="stroke:#181818;stroke-width:1.0;"/></g><!--MD5=[5334b18cc6877e1cf58b3875dbf02db5]
reverse link CollectionRdr to GeoLocationRdr--><g id="link_CollectionRdr_GeoLocationRdr"><path codeLine="15" d="M467.25,431.34 C461.81,453.03 455.41,478.51 450.88,496.58 " fill="none" id="CollectionRdr-backto-GeoLocationRdr" style="stroke:#181818;stroke-width:1.0;"/><polygon fill="none" points="460.52,429.4,472.18,411.71,474.1,432.81,460.52,429.4" style="stroke:#181818;stroke-width:1.0;"/></g><!--MD5=[b785149fed819890372fbd3bca0aabd2]
reverse link CollectionRdr to EventRdr--><g id="link_CollectionRdr_EventRdr"><path codeLine="16" d="M513.14,426.68 C533.94,449.29 559.62,477.2 577.45,496.58 " fill="none" id="CollectionRdr-backto-EventRdr" style="stroke:#181818;stroke-width:1.0;"/><polygon fill="none" points="507.75,431.16,499.35,411.71,518.05,421.68,507.75,431.16" style="stroke:#181818;stroke-width:1.0;"/></g><!--MD5=[2da640da9b59622cb3bac1ac30dc99b9]
reverse link RvzView to ObjectV--><g id="link_RvzView_ObjectV"><path codeLine="21" d="M158.42,261.44 C132.65,293.21 97.12,337.03 75.68,363.47 " fill="none" id="RvzView-backto-ObjectV" style="stroke:#181818;stroke-width:1.0;"/><polygon fill="none" points="153.19,256.77,171.23,245.65,164.07,265.59,153.19,256.77" style="stroke:#181818;stroke-width:1.0;"/></g><!--MD5=[b08b8e99e4e9ea3e34a5770c3e3dba0a]
reverse link RvzView to CollectionV--><g id="link_RvzView_CollectionV"><path codeLine="22" d="M190,265.91 C190,297.22 190,338.24 190,363.47 " fill="none" id="RvzView-backto-CollectionV" style="stroke:#181818;stroke-width:1.0;"/><polygon fill="none" points="183,265.65,190,245.65,197,265.65,183,265.65" style="stroke:#181818;stroke-width:1.0;"/></g><!--MD5=[a8d99c4feee4d59c569cd04ed3fef6ba]
reverse link CollectionV to GeoLocationV--><g id="link_CollectionV_GeoLocationV"><path codeLine="23" d="M155.45,426.68 C134.99,449.29 109.73,477.2 92.19,496.58 " fill="none" id="CollectionV-backto-GeoLocationV" style="stroke:#181818;stroke-width:1.0;"/><polygon fill="none" points="150.39,421.84,169,411.71,160.77,431.23,150.39,421.84" style="stroke:#181818;stroke-width:1.0;"/></g><!--MD5=[c4012de9ed0fa974500d2b5593aae4a0]
reverse link CollectionV to TimeLineV--><g id="link_CollectionV_TimeLineV"><path codeLine="24" d="M200.42,431.34 C205.7,453.03 211.9,478.51 216.3,496.58 " fill="none" id="CollectionV-backto-TimeLineV" style="stroke:#181818;stroke-width:1.0;"/><polygon fill="none" points="193.57,432.79,195.65,411.71,207.18,429.48,193.57,432.79" style="stroke:#181818;stroke-width:1.0;"/></g><!--MD5=[970a0d53f6f6bcaf9af3e821d0998ddc]
reverse link RvzView to Renderer--><g id="link_RvzView_Renderer"><path codeLine="26" d="M240.16,221.5 C265.27,221.5 290.37,221.5 315.48,221.5 " fill="none" id="RvzView-backto-Renderer" style="stroke:#181818;stroke-width:1.0;"/><polygon fill="#181818" points="235.14,221.5,244.14,225.5,240.14,221.5,244.14,217.5,235.14,221.5" style="stroke:#181818;stroke-width:1.0;"/></g><!--MD5=[7f100461146c8f8905a6594a925a30e1]
reverse link TransferObject to Exposer--><g id="link_TransferObject_Exposer"><path codeLine="35" d="M516.92,47.5 C526.93,47.5 536.93,47.5 546.93,47.5 " fill="none" id="TransferObject-backto-Exposer" style="stroke:#181818;stroke-width:1.0;"/><polygon fill="#181818" points="511.69,47.5,520.69,51.5,516.69,47.5,520.69,43.5,511.69,47.5" style="stroke:#181818;stroke-width:1.0;"/></g><!--MD5=[ca8c0f72eda8f7f565b74e74c1e8a3d2]
link Property to TransferObject--><g id="link_Property_TransferObject"><path codeLine="40" d="M259.13,47.5 C273.09,47.5 288.82,47.5 304.79,47.5 " fill="none" id="Property-to-TransferObject" style="stroke:#181818;stroke-width:1.0;"/><polygon fill="#181818" points="318.22,47.5,312.22,43.5,306.22,47.5,312.22,51.5,318.22,47.5" style="stroke:#181818;stroke-width:1.0;"/><text fill="#000000" font-family="sans-serif" font-size="13" lengthAdjust="spacing" textLength="23" x="277.25" y="40.5669">has</text></g><!--MD5=[b98afa943d79ecfbff6cd27acaf81a75]
link Exposer to Protocol--><g id="link_Exposer_Protocol"><path codeLine="41" d="M637,79.65 C637,109.02 637,153.05 637,184.05 " fill="none" id="Exposer-to-Protocol" style="stroke:#181818;stroke-width:1.0;"/><polygon fill="#181818" points="637,189.29,641,180.29,637,184.29,633,180.29,637,189.29" style="stroke:#181818;stroke-width:1.0;"/><text fill="#000000" font-family="sans-serif" font-size="13" lengthAdjust="spacing" textLength="145" x="638" y="131.0669">delegate.conformsTo()</text></g><!--MD5=[49f8108e56dec56423f64f1d301d4747]
reverse link Protocol to GeoLocationPtc--><g id="link_Protocol_GeoLocationPtc"><path codeLine="52" d="M683.57,267.97 C708.98,292.76 740.12,323.16 764.5,346.97 " fill="none" id="Protocol-backto-GeoLocationPtc" style="stroke:#181818;stroke-width:1.0;"/><polygon fill="none" points="678.42,272.71,668.99,253.73,688.2,262.69,678.42,272.71" style="stroke:#181818;stroke-width:1.0;"/></g><!--MD5=[8b653c0a697b1fbb7536d936f8568711]
reverse link Protocol to TimeLinePtc--><g id="link_Protocol_TimeLinePtc"><path codeLine="53" d="M637,274 C637,294.76 637,318.56 637,338.92 " fill="none" id="Protocol-backto-TimeLinePtc" style="stroke:#181818;stroke-width:1.0;"/><polygon fill="none" points="630,273.73,637,253.73,644,273.73,630,273.73" style="stroke:#181818;stroke-width:1.0;"/></g><!--MD5=[6bfdbd00ed54b4dac05bb701a1bbb9e6]
@startuml
abstract class Renderer {
    iconName:String
    title:String
    view:RvzView
    protocol:Protocol
}
Renderer -right-> Protocol

abstract class Protocol {
    includes(propertyName:String)
}

Renderer <|-down- ObjectRdr
Renderer <|-down- CollectionRdr
CollectionRdr <|-down- GeoLocationRdr
CollectionRdr <|-down- EventRdr

abstract class RvzView {
}

RvzView <|-down- ObjectV
RvzView <|-down- CollectionV
CollectionV <|-down- GeoLocationV
CollectionV <|-down- TimeLineV

Renderer -left-> RvzView

class Exposer {
    delegate:TransferObject
}

abstract class TransferObject #LightGreen {
    properties:List<Property>
}
Exposer -left-> TransferObject
class Property #LightBlue {
    name: String
    type: Class
}
TransferObject *-left- Property : has
Exposer -down-> Protocol : delegate.conformsTo()

class TimeLinePtc #LightBlue {
start:DateTime
end:DateTime
duration:Double
}
class GeoLocationPtc #LightBlue {
latitude:Double
longitude:Double
}
Protocol <|-down- GeoLocationPtc
Protocol <|-down- TimeLinePtc
@enduml

PlantUML version 1.2022.12(Sun Oct 23 18:12:26 GMT 2022)
(GPL source distribution)
Java Runtime: OpenJDK Runtime Environment
JVM: OpenJDK 64-Bit Server VM
Default Encoding: UTF-8
Language: en
Country: US
--></g></svg>