<?xml version="1.0" encoding="UTF-8" standalone="no"?><svg xmlns="http://www.w3.org/2000/svg" xmlns:xlink="http://www.w3.org/1999/xlink" contentStyleType="text/css" height="503px" preserveAspectRatio="none" style="width:1895px;height:503px;background:#FFFFFF;" version="1.1" viewBox="0 0 1895 503" width="1895px" zoomAndPan="magnify"><defs/><g><!--MD5=[d2242131270c237e071fd8738247fbb8]
cluster FE--><g id="cluster_FE"><rect fill="none" height="163" rx="2.5" ry="2.5" style="stroke:#181818;stroke-width:1.0;" width="151" x="100" y="54.12"/><rect fill="none" height="10" style="stroke:#181818;stroke-width:1.0;" width="15" x="231" y="59.12"/><rect fill="none" height="2" style="stroke:#181818;stroke-width:1.0;" width="4" x="229" y="61.12"/><rect fill="none" height="2" style="stroke:#181818;stroke-width:1.0;" width="4" x="229" y="65.12"/><text fill="#000000" font-family="sans-serif" font-size="14" font-style="italic" lengthAdjust="spacing" textLength="106" x="122.5" y="80.1151">«RO FrontEnd»</text><text fill="#000000" font-family="sans-serif" font-size="14" font-weight="bold" lengthAdjust="spacing" textLength="48" x="151.5" y="96.412">kroviz</text></g><!--MD5=[c37df8c2fa1b5f86dd58dff9a3868e14]
entity EL--><g id="elem_EL"><path d="M143,158.12 C143,148.12 185,148.12 185,148.12 C185,148.12 227,148.12 227,158.12 L227,183.4169 C227,193.4169 185,193.4169 185,193.4169 C185,193.4169 143,193.4169 143,183.4169 L143,158.12 " fill="#F1F1F1" style="stroke:#181818;stroke-width:0.5;"/><path d="M143,158.12 C143,168.12 185,168.12 185,168.12 C185,168.12 227,168.12 227,158.12 " fill="none" style="stroke:#181818;stroke-width:0.5;"/><text fill="#000000" font-family="sans-serif" font-size="14" lengthAdjust="spacing" textLength="64" x="153" y="185.1151">EventLog</text></g><!--MD5=[11e5abc0296d2a9544c49e35636d4c40]
entity RE--><g id="elem_RE"><path d="M420.5,134.62 L420.5,206.5106 A2.5,2.5 0 0 0 423,209.0106 L1605,209.0106 A2.5,2.5 0 0 0 1607.5,206.5106 L1607.5,142.12 L1597.5,132.12 L423,132.12 A2.5,2.5 0 0 0 420.5,134.62 " fill="#F1F1F1" style="stroke:#181818;stroke-width:0.5;"/><path d="M1597.5,132.12 L1597.5,139.62 A2.5,2.5 0 0 0 1600,142.12 L1607.5,142.12 " fill="#F1F1F1" style="stroke:#181818;stroke-width:0.5;"/><text fill="#000000" font-family="sans-serif" font-size="14" font-weight="bold" lengthAdjust="spacing" textLength="21" x="435.5" y="173.412">url</text><text fill="#000000" font-family="sans-serif" font-size="14" font-weight="bold" lengthAdjust="spacing" textLength="113" x="466.5" y="173.412">[request data]</text><text fill="#000000" font-family="sans-serif" font-size="14" font-weight="bold" lengthAdjust="spacing" textLength="40" x="589.5" y="173.412">state</text><text fill="#000000" font-family="sans-serif" font-size="14" font-weight="bold" lengthAdjust="spacing" textLength="75" x="639.5" y="173.412">response</text><text fill="#000000" font-family="sans-serif" font-size="14" lengthAdjust="spacing" textLength="4" x="719.5" y="173.412"> </text><text fill="#000000" font-family="sans-serif" font-size="14" lengthAdjust="spacing" textLength="4" x="719.5" y="189.7089"> </text><text fill="#000000" font-family="sans-serif" font-size="14" lengthAdjust="spacing" textLength="194" x="727.5" y="173.412">http://localhost:8080/restful</text><text fill="#000000" font-family="sans-serif" font-size="14" lengthAdjust="spacing" textLength="46" x="929.5" y="173.412">uid/pw</text><text fill="#000000" font-family="sans-serif" font-size="14" lengthAdjust="spacing" textLength="66" x="983.5" y="173.412">SUCCESS</text><text fill="#000000" font-family="sans-serif" font-size="14" lengthAdjust="spacing" textLength="66" x="1057.5" y="173.412">{jsonStr}</text><text fill="#000000" font-family="sans-serif" font-size="14" lengthAdjust="spacing" textLength="4" x="1127.5" y="173.412"> </text><text fill="#000000" font-family="sans-serif" font-size="14" lengthAdjust="spacing" textLength="4" x="1127.5" y="189.7089"> </text><text fill="#000000" font-family="sans-serif" font-size="14" lengthAdjust="spacing" textLength="269" x="1135.5" y="173.412">http://localhost:8080/restful/menubars</text><text fill="#000000" font-family="sans-serif" font-size="14" lengthAdjust="spacing" textLength="22" x="1412.5" y="173.412">n/a</text><text fill="#000000" font-family="sans-serif" font-size="14" lengthAdjust="spacing" textLength="50" x="1442.5" y="173.412">ERROR</text><text fill="#000000" font-family="sans-serif" font-size="14" lengthAdjust="spacing" textLength="87" x="1500.5" y="173.412">{another js}</text><line style="stroke:#000000;stroke-width:0.5;" x1="430.5" x2="1591.5" y1="160.4169" y2="160.4169"/><line style="stroke:#000000;stroke-width:0.5;" x1="430.5" x2="1591.5" y1="193.0106" y2="193.0106"/><line style="stroke:#000000;stroke-width:0.5;" x1="430.5" x2="430.5" y1="160.4169" y2="193.0106"/><line style="stroke:#000000;stroke-width:0.5;" x1="461.5" x2="461.5" y1="160.4169" y2="193.0106"/><line style="stroke:#000000;stroke-width:0.5;" x1="584.5" x2="584.5" y1="160.4169" y2="193.0106"/><line style="stroke:#000000;stroke-width:0.5;" x1="634.5" x2="634.5" y1="160.4169" y2="193.0106"/><line style="stroke:#000000;stroke-width:0.5;" x1="719.5" x2="719.5" y1="160.4169" y2="193.0106"/><line style="stroke:#000000;stroke-width:0.5;" x1="723.5" x2="723.5" y1="160.4169" y2="193.0106"/><line style="stroke:#000000;stroke-width:0.5;" x1="925.5" x2="925.5" y1="160.4169" y2="193.0106"/><line style="stroke:#000000;stroke-width:0.5;" x1="979.5" x2="979.5" y1="160.4169" y2="193.0106"/><line style="stroke:#000000;stroke-width:0.5;" x1="1053.5" x2="1053.5" y1="160.4169" y2="193.0106"/><line style="stroke:#000000;stroke-width:0.5;" x1="1127.5" x2="1127.5" y1="160.4169" y2="193.0106"/><line style="stroke:#000000;stroke-width:0.5;" x1="1131.5" x2="1131.5" y1="160.4169" y2="193.0106"/><line style="stroke:#000000;stroke-width:0.5;" x1="1408.5" x2="1408.5" y1="160.4169" y2="193.0106"/><line style="stroke:#000000;stroke-width:0.5;" x1="1438.5" x2="1438.5" y1="160.4169" y2="193.0106"/><line style="stroke:#000000;stroke-width:0.5;" x1="1496.5" x2="1496.5" y1="160.4169" y2="193.0106"/><line style="stroke:#000000;stroke-width:0.5;" x1="1591.5" x2="1591.5" y1="160.4169" y2="193.0106"/><line style="stroke:#181818;stroke-width:1.0;stroke-dasharray:1.0,2.0;" x1="421.5" x2="933" y1="150.2684" y2="150.2684"/><text fill="#000000" font-family="sans-serif" font-size="14" lengthAdjust="spacing" textLength="162" x="933" y="154.6151">(Sample) Replay Events</text><line style="stroke:#181818;stroke-width:1.0;stroke-dasharray:1.0,2.0;" x1="1095" x2="1606.5" y1="150.2684" y2="150.2684"/></g><!--MD5=[cb29a752e8bd9ff083cca7770c370a33]
entity DRT--><g id="elem_DRT"><rect fill="#F1F1F1" height="78.8906" rx="2.5" ry="2.5" style="stroke:#181818;stroke-width:0.5;" width="123" x="1680.5" y="131.12"/><rect fill="#F1F1F1" height="10" style="stroke:#181818;stroke-width:0.5;" width="15" x="1783.5" y="136.12"/><rect fill="#F1F1F1" height="2" style="stroke:#181818;stroke-width:0.5;" width="4" x="1781.5" y="138.12"/><rect fill="#F1F1F1" height="2" style="stroke:#181818;stroke-width:0.5;" width="4" x="1781.5" y="142.12"/><text fill="#000000" font-family="sans-serif" font-size="14" lengthAdjust="spacing" textLength="42" x="1695.5" y="164.1151">Demo</text><text fill="#000000" font-family="sans-serif" font-size="14" lengthAdjust="spacing" textLength="79" x="1695.5" y="180.412">Regression</text><text fill="#000000" font-family="sans-serif" font-size="14" lengthAdjust="spacing" textLength="31" x="1695.5" y="196.7089">Test</text></g><!--MD5=[6ae0ad3fca144316621ac535abd7bcd7]
entity  --><g id="elem_ "><ellipse cx="19" cy="149.12" fill="#F1F1F1" rx="8" ry="8" style="stroke:#181818;stroke-width:0.5;"/><path d="M19,157.12 L19,184.12 M6,165.12 L32,165.12 M19,184.12 L6,199.12 M19,184.12 L32,199.12 " fill="none" style="stroke:#181818;stroke-width:0.5;"/></g><g id="elem_GMN7"><path d="M110,296.12 L110,351.5184 A0,0 0 0 0 110,351.5184 L260,351.5184 A0,0 0 0 0 260,351.5184 L260,306.12 L250,296.12 L189,296.12 L185,193.25 L181,296.12 L110,296.12 A0,0 0 0 0 110,296.12 " fill="#FEFFDD" style="stroke:#181818;stroke-width:0.5;"/><path d="M250,296.12 L250,306.12 L260,306.12 L250,296.12 " fill="#FEFFDD" style="stroke:#181818;stroke-width:0.5;"/><text fill="#000000" font-family="sans-serif" font-size="13" lengthAdjust="spacing" textLength="67" x="116" y="313.1869">Req./Resp.</text><text fill="#000000" font-family="sans-serif" font-size="13" lengthAdjust="spacing" textLength="78" x="116" y="328.3197">as well as UI</text><text fill="#000000" font-family="sans-serif" font-size="13" lengthAdjust="spacing" textLength="129" x="116" y="343.4525">events are recorded</text></g><!--MD5=[cd187d11655e4367e900de538d2f1d0c]
entity APP--><g id="elem_APP"><rect fill="#F1F1F1" height="62.5938" rx="2.5" ry="2.5" style="stroke:#181818;stroke-width:0.5;" width="111" x="274.5" y="139.12"/><rect fill="#F1F1F1" height="10" style="stroke:#181818;stroke-width:0.5;" width="15" x="365.5" y="144.12"/><rect fill="#F1F1F1" height="2" style="stroke:#181818;stroke-width:0.5;" width="4" x="363.5" y="146.12"/><rect fill="#F1F1F1" height="2" style="stroke:#181818;stroke-width:0.5;" width="4" x="363.5" y="150.12"/><text fill="#000000" font-family="sans-serif" font-size="14" font-style="italic" lengthAdjust="spacing" textLength="71" x="289.5" y="172.1151">«RO App»</text><text fill="#000000" font-family="sans-serif" font-size="14" lengthAdjust="spacing" textLength="42" x="304" y="188.412">Demo</text></g><!--MD5=[fb4a08e111f2163e9179077dacc52f93]
entity FW--><g id="elem_FW"><rect fill="#F1F1F1" height="62.5938" rx="2.5" ry="2.5" style="stroke:#181818;stroke-width:0.5;" width="185" x="377.5" y="435.12"/><rect fill="#F1F1F1" height="10" style="stroke:#181818;stroke-width:0.5;" width="15" x="542.5" y="440.12"/><rect fill="#F1F1F1" height="2" style="stroke:#181818;stroke-width:0.5;" width="4" x="540.5" y="442.12"/><rect fill="#F1F1F1" height="2" style="stroke:#181818;stroke-width:0.5;" width="4" x="540.5" y="446.12"/><text fill="#000000" font-family="sans-serif" font-size="14" font-style="italic" lengthAdjust="spacing" textLength="145" x="392.5" y="468.1151">«Naked Objects FW»</text><text fill="#000000" font-family="sans-serif" font-size="14" lengthAdjust="spacing" textLength="126" x="402" y="484.412">Apache Causeway</text></g><g id="elem_GMN21"><path d="M1595.5,273.12 L1595.5,373.9169 A0,0 0 0 0 1595.5,373.9169 L1888.5,373.9169 A0,0 0 0 0 1888.5,373.9169 L1888.5,283.12 L1878.5,273.12 L1746,273.12 L1742,210.51 L1738,273.12 L1595.5,273.12 A0,0 0 0 0 1595.5,273.12 " fill="#FEFFDD" style="stroke:#181818;stroke-width:0.5;"/><path d="M1878.5,273.12 L1878.5,283.12 L1888.5,283.12 L1878.5,273.12 " fill="#FEFFDD" style="stroke:#181818;stroke-width:0.5;"/><text fill="#000000" font-family="sans-serif" font-size="13" lengthAdjust="spacing" textLength="272" x="1601.5" y="290.1869">Event Log Entries are replayed during test.</text><text fill="#000000" font-family="sans-serif" font-size="13" lengthAdjust="spacing" textLength="270" x="1601.5" y="305.3197">Expected/actual responses are compared.</text><text fill="#000000" font-family="sans-serif" font-size="13" lengthAdjust="spacing" textLength="4" x="1601.5" y="320.4525"> </text><text fill="#000000" font-family="sans-serif" font-size="13" lengthAdjust="spacing" textLength="99" x="1601.5" y="335.5853">Events in state:</text><ellipse cx="1607" cy="346.2841" fill="#000000" rx="2.5" ry="2.5" style="stroke:#000000;stroke-width:0.0;"/><text fill="#000000" font-family="sans-serif" font-size="13" lengthAdjust="spacing" textLength="215" x="1613.5" y="350.7181">SUCCESS -&gt; expected == actual</text><ellipse cx="1607" cy="361.4169" fill="#000000" rx="2.5" ry="2.5" style="stroke:#000000;stroke-width:0.0;"/><text fill="#000000" font-family="sans-serif" font-size="13" lengthAdjust="spacing" textLength="188" x="1613.5" y="365.851">ERROR -&gt; expected != actual</text></g><g id="elem_GMN24"><path d="M577.5,303.62 L577.5,343.8856 A0,0 0 0 0 577.5,343.8856 L594.91,343.8856 L502.3,435.06 L602.91,343.8856 L660.5,343.8856 A0,0 0 0 0 660.5,343.8856 L660.5,313.62 L650.5,303.62 L577.5,303.62 A0,0 0 0 0 577.5,303.62 " fill="#FEFFDD" style="stroke:#181818;stroke-width:0.5;"/><path d="M650.5,303.62 L650.5,313.62 L660.5,313.62 L650.5,303.62 " fill="#FEFFDD" style="stroke:#181818;stroke-width:0.5;"/><text fill="#000000" font-family="sans-serif" font-size="13" lengthAdjust="spacing" textLength="62" x="583.5" y="320.6869">additional</text><text fill="#000000" font-family="sans-serif" font-size="13" lengthAdjust="spacing" textLength="59" x="583.5" y="335.8197">coverage</text></g><g id="elem_NREG"><path d="M397.5,303.62 L397.5,343.8856 L542.5,343.8856 L542.5,313.62 L532.5,303.62 L397.5,303.62 " fill="#FEFFDD" style="stroke:#181818;stroke-width:0.5;"/><path d="M532.5,303.62 L532.5,313.62 L542.5,313.62 L532.5,303.62 " fill="#FEFFDD" style="stroke:#181818;stroke-width:1.0;"/><text fill="#000000" font-family="sans-serif" font-size="13" lengthAdjust="spacing" textLength="124" x="403.5" y="320.6869">Regressions can be</text><text fill="#000000" font-family="sans-serif" font-size="13" lengthAdjust="spacing" textLength="102" x="403.5" y="335.8197">caused in either</text></g><!--MD5=[044d05b892026c564542e04e71cdfcae]
link   to FE--><g id="link_ _FE"><path d="M32.52,170.62 C44.19,170.62 61.505,170.62 76.6088,170.62 C84.1606,170.62 91.1597,170.62 96.6239,170.62 C97.3069,170.62 97.966,170.62 98.5991,170.62 C98.9157,170.62 99.2258,170.62 99.5292,170.62 C99.6809,170.62 99.8309,170.62 99.9792,170.62 " fill="none" id=" -to-FE" style="stroke:#181818;stroke-width:1.0;"/><polygon fill="#181818" points="99.9792,170.62,90.9792,166.62,94.9792,170.62,90.9792,174.62,99.9792,170.62" style="stroke:#181818;stroke-width:1.0;"/><text fill="#000000" font-family="sans-serif" font-size="13" lengthAdjust="spacing" textLength="39" x="50.57" y="163.6869">action</text></g><!--MD5=[fbb8d5fa8a9feca13177321b4678f474]
link FE to EL--><g id="link_FE_EL"><path d="M108.6,170.62 C118.34,170.62 128.09,170.62 137.83,170.62 " fill="none" id="FE-to-EL" style="stroke:#181818;stroke-width:1.0;"/><polygon fill="#181818" points="142.92,170.62,133.92,166.62,137.92,170.62,133.92,174.62,142.92,170.62" style="stroke:#181818;stroke-width:1.0;"/></g><!--MD5=[2c760634608609d01a798da024c32d51]
link FE to APP--><g id="link_FE_APP"><path d="M122.2143,53.7304 C122.3499,53.5836 122.4863,53.4374 122.6236,53.2918 C122.8982,53.0006 123.1762,52.712 123.4576,52.4259 C124.5831,51.2816 125.7631,50.1784 127,49.12 C166.17,15.6 197.14,25.56 243,49.12 C277.61,66.9 301.53,105.55 315.4,134.51 " fill="none" id="FE-APP" style="stroke:#181818;stroke-width:1.0;"/><polygon fill="#181818" points="317.54,139.07,317.3316,129.2233,315.4131,134.5449,310.0915,132.6264,317.54,139.07" style="stroke:#181818;stroke-width:1.0;"/><polygon fill="#181818" points="122.2143,53.7304,131.2591,49.833,125.6067,50.0574,125.3823,44.405,122.2143,53.7304" style="stroke:#181818;stroke-width:1.0;"/><text fill="#000000" font-family="sans-serif" font-size="13" lengthAdjust="spacing" textLength="120" x="131" y="26.1869">request / response</text></g><!--MD5=[37ca614c21ecc4e03f38dc516ec979d6]
link APP to FW--><g id="link_APP_FW"><path d="M325.36,202.33 C320.62,244.06 317.7,319.69 348,374.12 C361.28,397.98 383.66,417.46 405.65,432.22 " fill="none" id="APP-to-FW" style="stroke:#181818;stroke-width:1.0;"/><polygon fill="#181818" points="410.04,435.11,404.7244,426.8188,405.8645,432.3596,400.3237,433.4996,410.04,435.11" style="stroke:#181818;stroke-width:1.0;"/><text fill="#000000" font-family="sans-serif" font-size="13" lengthAdjust="spacing" textLength="30" x="349" y="328.1869">uses</text></g><!--MD5=[83c5898c77d344dea07ae0f2b5cb3be3]
link EL to RE--><g id="link_EL_RE"><path d="M189.7,147.9 C198.68,111.55 222.25,42.45 274.5,23.12 C320.77,6 336.49,17.45 385.5,23.12 C560.41,43.37 757.34,94.32 883.39,130.66 " fill="none" id="EL-to-RE" style="stroke:#181818;stroke-width:1.0;"/><polygon fill="#181818" points="888.22,132.05,880.6826,125.7107,883.4162,130.6632,878.4637,133.3968,888.22,132.05" style="stroke:#181818;stroke-width:1.0;"/><text fill="#000000" font-family="sans-serif" font-size="13" lengthAdjust="spacing" textLength="41" x="821.1639" y="120.9322">export</text></g><!--MD5=[e6ed755eced7106e72aa480df7c9ef45]
reverse link RE to DRT--><g id="link_RE_DRT"><path d="M1612.78,170.62 C1638.35,170.62 1661.23,170.62 1680.37,170.62 " fill="none" id="RE-backto-DRT" style="stroke:#181818;stroke-width:1.0;"/><polygon fill="#181818" points="1607.63,170.62,1616.63,174.62,1612.63,170.62,1616.63,166.62,1607.63,170.62" style="stroke:#181818;stroke-width:1.0;"/><text fill="#000000" font-family="sans-serif" font-size="13" lengthAdjust="spacing" textLength="36" x="1626" y="163.6869">reads</text></g><!--MD5=[5ea144c57fb525e20369093d1f53f308]
link DRT to APP--><g id="link_DRT_APP"><path d="M1716.91,130.98 C1696.2,102.26 1663.94,65.68 1625,49.12 C1562.58,22.57 463.14,15.89 404,49.12 C371.94,67.13 352.14,105.29 341.19,134.07 " fill="none" id="DRT-to-APP" style="stroke:#181818;stroke-width:1.0;"/><polygon fill="#181818" points="339.37,138.96,346.2377,131.9006,341.1005,134.269,338.7321,129.1318,339.37,138.96" style="stroke:#181818;stroke-width:1.0;"/><text fill="#000000" font-family="sans-serif" font-size="13" lengthAdjust="spacing" textLength="39" x="1013.5" y="26.1869">replay</text><text fill="#000000" font-family="sans-serif" font-size="13" lengthAdjust="spacing" textLength="48" x="1660.4727" y="119.9655">invokes</text><text fill="#000000" font-family="sans-serif" font-size="13" lengthAdjust="spacing" textLength="42" x="294.9713" y="128.0057">RO API</text></g><!--MD5=[e01b7f7586d9d51e2af1bb984dcd3f4c]
link APP to NREG--><g id="link_APP_NREG"><path d="M358.33,202.18 C386.46,232.51 428.69,278.06 452.34,303.57 " fill="none" id="APP-NREG" style="stroke:#181818;stroke-width:1.0;stroke-dasharray:7.0,7.0;"/></g><!--MD5=[08c403ccfe222087d529d28b9c140709]
link NREG to FW--><g id="link_NREG_FW"><path d="M470,343.64 C470,367.09 470,407.26 470,435.06 " fill="none" id="NREG-FW" style="stroke:#181818;stroke-width:1.0;stroke-dasharray:7.0,7.0;"/></g><!--MD5=[a2b8c3001e79853ed39f94d87adb184f]
@startuml
: : -> FE : action

component kroviz <<RO FrontEnd>> as FE {
    database EventLog as EL
    FE -> EL
}

note bottom of EL
Req./Resp.
as well as UI
events are recorded
end note

component Demo <<RO App>> as APP
FE <-> APP : request / response

component "Apache Causeway" <<Naked Objects FW>> as FW
APP -> FW : uses


together {
    file RE as "
    .. (Sample) Replay Events..
    |= url |= [request data] |= state |= response |\n| http://localhost:8080/restful | uid/pw | SUCCESS | {jsonStr} |\n| http://localhost:8080/restful/menubars | n/a | ERROR | {another js} |
    "
    component "Demo \nRegression \nTest" as DRT
}
EL ->"export" RE


RE <- DRT : reads
DRT "invokes"->"RO API" APP : replay

note bottom of DRT
Event Log Entries are replayed during test.
Expected/actual responses are compared.

Events in state:
* SUCCESS -> expected == actual
* ERROR -> expected != actual
end note

note top of FW
additional
coverage
end note

note as NREG
Regressions can be
caused in either
end note
APP .. NREG
NREG .. FW
@enduml

PlantUML version 1.2022.12(Sun Oct 23 18:12:26 GMT 2022)
(GPL source distribution)
Java Runtime: OpenJDK Runtime Environment
JVM: OpenJDK 64-Bit Server VM
Default Encoding: UTF-8
Language: en
Country: US
--></g></svg>