<?xml version="1.0" encoding="UTF-8" standalone="no"?><svg xmlns="http://www.w3.org/2000/svg" xmlns:xlink="http://www.w3.org/1999/xlink" contentStyleType="text/css" height="868px" preserveAspectRatio="none" style="width:1327px;height:868px;background:#FFFFFF;" version="1.1" viewBox="0 0 1327 868" width="1327px" zoomAndPan="magnify"><defs/><g><!--MD5=[ea106891b45ca80f3b40e042460ac2e3]
cluster gradle--><g id="cluster_gradle"><rect fill="none" height="181" rx="2.5" ry="2.5" style="stroke:#181818;stroke-width:1.0;" width="435" x="138.5" y="246.5"/><rect fill="none" height="10" style="stroke:#181818;stroke-width:1.0;" width="15" x="553.5" y="251.5"/><rect fill="none" height="2" style="stroke:#181818;stroke-width:1.0;" width="4" x="551.5" y="253.5"/><rect fill="none" height="2" style="stroke:#181818;stroke-width:1.0;" width="4" x="551.5" y="257.5"/><text fill="#000000" font-family="sans-serif" font-size="14" font-style="italic" lengthAdjust="spacing" textLength="81" x="315.5" y="272.4951">«build.tool»</text><text fill="#000000" font-family="sans-serif" font-size="14" font-weight="bold" lengthAdjust="spacing" textLength="50" x="331" y="288.792">gradle</text></g><!--MD5=[3fb92fba1735106d511c1d05a9f83ed2]
cluster root--><g id="cluster_root"><path d="M845,283.5 L879,283.5 A3.75,3.75 0 0 1 881.5,286 L888.5,305.7969 L1168,305.7969 A2.5,2.5 0 0 1 1170.5,308.2969 L1170.5,722 A2.5,2.5 0 0 1 1168,724.5 L845,724.5 A2.5,2.5 0 0 1 842.5,722 L842.5,286 A2.5,2.5 0 0 1 845,283.5 " fill="#FFD700" style="stroke:#000000;stroke-width:1.5;"/><line style="stroke:#000000;stroke-width:1.5;" x1="842.5" x2="888.5" y1="305.7969" y2="305.7969"/><text fill="#000000" font-family="sans-serif" font-size="14" font-weight="bold" lengthAdjust="spacing" textLength="33" x="846.5" y="298.4951">root</text></g><!--MD5=[f28f95b14f0c83ad8c9a9e34ae6e57b1]
cluster NM--><g id="cluster_NM"><path d="M99,605.5 L252,605.5 A3.75,3.75 0 0 1 254.5,608 L261.5,627.7969 L354,627.7969 A2.5,2.5 0 0 1 356.5,630.2969 L356.5,735 A2.5,2.5 0 0 1 354,737.5 L99,737.5 A2.5,2.5 0 0 1 96.5,735 L96.5,608 A2.5,2.5 0 0 1 99,605.5 " fill="#FFD700" style="stroke:#000000;stroke-width:1.5;"/><line style="stroke:#000000;stroke-width:1.5;" x1="96.5" x2="261.5" y1="627.7969" y2="627.7969"/><text fill="#000000" font-family="sans-serif" font-size="14" font-weight="bold" lengthAdjust="spacing" textLength="152" x="100.5" y="620.4951">root.node_modules</text></g><!--MD5=[d3f63dd2493a0d75452850aaedea626f]
entity KF--><g id="elem_KF"><rect fill="#F1F1F1" height="62.5938" rx="2.5" ry="2.5" style="stroke:#181818;stroke-width:0.5;" width="147" x="402" y="340.5"/><rect fill="#F1F1F1" height="10" style="stroke:#181818;stroke-width:0.5;" width="15" x="529" y="345.5"/><rect fill="#F1F1F1" height="2" style="stroke:#181818;stroke-width:0.5;" width="4" x="527" y="347.5"/><rect fill="#F1F1F1" height="2" style="stroke:#181818;stroke-width:0.5;" width="4" x="527" y="351.5"/><text fill="#000000" font-family="sans-serif" font-size="14" font-style="italic" lengthAdjust="spacing" textLength="107" x="417" y="373.4951">«gradle.plugin»</text><text fill="#000000" font-family="sans-serif" font-size="14" lengthAdjust="spacing" textLength="100" x="420.5" y="389.792">kotlinFrontend</text></g><!--MD5=[f2facf9cee52d933c99f4d69f0fb534a]
entity K2JS--><g id="elem_K2JS"><rect fill="#F1F1F1" height="62.5938" rx="2.5" ry="2.5" style="stroke:#181818;stroke-width:0.5;" width="121" x="261" y="340.5"/><rect fill="#F1F1F1" height="10" style="stroke:#181818;stroke-width:0.5;" width="15" x="362" y="345.5"/><rect fill="#F1F1F1" height="2" style="stroke:#181818;stroke-width:0.5;" width="4" x="360" y="347.5"/><rect fill="#F1F1F1" height="2" style="stroke:#181818;stroke-width:0.5;" width="4" x="360" y="351.5"/><text fill="#000000" font-family="sans-serif" font-size="14" font-style="italic" lengthAdjust="spacing" textLength="81" x="276" y="373.4951">«transpiler»</text><text fill="#000000" font-family="sans-serif" font-size="14" lengthAdjust="spacing" textLength="57" x="288" y="389.792">kotlin2js</text></g><!--MD5=[2a58a75ea05b7a5fb0834acae81f83e0]
entity DCE--><g id="elem_DCE"><rect fill="#F1F1F1" height="46.2969" rx="2.5" ry="2.5" style="stroke:#181818;stroke-width:0.5;" width="70" x="170.5" y="349"/><rect fill="#F1F1F1" height="10" style="stroke:#181818;stroke-width:0.5;" width="15" x="220.5" y="354"/><rect fill="#F1F1F1" height="2" style="stroke:#181818;stroke-width:0.5;" width="4" x="218.5" y="356"/><rect fill="#F1F1F1" height="2" style="stroke:#181818;stroke-width:0.5;" width="4" x="218.5" y="360"/><text fill="#000000" font-family="sans-serif" font-size="14" lengthAdjust="spacing" textLength="30" x="185.5" y="381.9951">DCE</text></g><!--MD5=[a4439dd5eea49f958aa42ae95b9e5837]
entity GCFG--><g id="elem_GCFG"><rect fill="#F1F1F1" height="68.8906" rx="2.5" ry="2.5" style="stroke:#181818;stroke-width:0.5;" width="138" x="858.5" y="337.5"/><text fill="#000000" font-family="sans-serif" font-size="14" lengthAdjust="spacing" textLength="80" x="868.5" y="360.4951">build.gradle</text><text fill="#000000" font-family="sans-serif" font-size="14" lengthAdjust="spacing" textLength="103" x="868.5" y="376.792">settings.gradle</text><text fill="#000000" font-family="sans-serif" font-size="14" lengthAdjust="spacing" textLength="118" x="868.5" y="393.0889">gradle.properties</text></g><!--MD5=[c17091bb9450719de56802ca6e5e1ef1]
entity KC--><g id="elem_KC"><rect fill="#F1F1F1" height="36.2969" rx="2.5" ry="2.5" style="stroke:#181818;stroke-width:0.5;" width="111" x="858" y="672.5"/><text fill="#000000" font-family="sans-serif" font-size="14" lengthAdjust="spacing" textLength="91" x="868" y="695.4951">karma.conf.js</text></g><!--MD5=[e4aaec21de269c7bd285ce6876c0ce8e]
entity PJ--><g id="elem_PJ"><rect fill="#F1F1F1" height="36.2969" rx="2.5" ry="2.5" style="stroke:#181818;stroke-width:0.5;" width="112" x="1042.5" y="672.5"/><text fill="#000000" font-family="sans-serif" font-size="14" lengthAdjust="spacing" textLength="92" x="1052.5" y="695.4951">package.json</text></g><!--MD5=[1589b7aebea7faa6412065a7cb4c3aef]
entity root.build--><g id="elem_root.build"><path d="M198.5,512 L276.5,512 A3.75,3.75 0 0 1 279,514.5 L286,534.2969 L300.5,534.2969 A2.5,2.5 0 0 1 303,536.7969 L303,548.7969 A2.5,2.5 0 0 1 300.5,551.2969 L198.5,551.2969 A2.5,2.5 0 0 1 196,548.7969 L196,514.5 A2.5,2.5 0 0 1 198.5,512 " fill="#FFD700" style="stroke:#181818;stroke-width:0.5;"/><line style="stroke:#181818;stroke-width:0.5;" x1="196" x2="286" y1="534.2969" y2="534.2969"/><text fill="#000000" font-family="sans-serif" font-size="14" lengthAdjust="spacing" textLength="65" x="206" y="527.9951">root.build</text></g><!--MD5=[7eb69e8c49b0f1a4682e6d31435646e4]
entity karma--><g id="elem_karma"><rect fill="#F1F1F1" height="46.2969" rx="2.5" ry="2.5" style="stroke:#181818;stroke-width:0.5;" width="82" x="128.5" y="667.5"/><rect fill="#F1F1F1" height="10" style="stroke:#181818;stroke-width:0.5;" width="15" x="190.5" y="672.5"/><rect fill="#F1F1F1" height="2" style="stroke:#181818;stroke-width:0.5;" width="4" x="188.5" y="674.5"/><rect fill="#F1F1F1" height="2" style="stroke:#181818;stroke-width:0.5;" width="4" x="188.5" y="678.5"/><text fill="#000000" font-family="sans-serif" font-size="14" lengthAdjust="spacing" textLength="42" x="143.5" y="700.4951">karma</text></g><!--MD5=[83d7c66368a3272c2ae5778d39252274]
entity webpack--><g id="elem_webpack"><rect fill="#F1F1F1" height="46.2969" rx="2.5" ry="2.5" style="stroke:#181818;stroke-width:0.5;" width="102" x="230.5" y="667.5"/><rect fill="#F1F1F1" height="10" style="stroke:#181818;stroke-width:0.5;" width="15" x="312.5" y="672.5"/><rect fill="#F1F1F1" height="2" style="stroke:#181818;stroke-width:0.5;" width="4" x="310.5" y="674.5"/><rect fill="#F1F1F1" height="2" style="stroke:#181818;stroke-width:0.5;" width="4" x="310.5" y="678.5"/><text fill="#000000" font-family="sans-serif" font-size="14" lengthAdjust="spacing" textLength="62" x="245.5" y="700.4951">webpack</text></g><!--MD5=[42d6953858ce5900db35acbc378ad4b0]
entity NodeJS--><g id="elem_NodeJS"><rect fill="#F1F1F1" height="46.2969" rx="2.5" ry="2.5" style="stroke:#181818;stroke-width:0.5;" width="89" x="234" y="45"/><rect fill="#F1F1F1" height="10" style="stroke:#181818;stroke-width:0.5;" width="15" x="303" y="50"/><rect fill="#F1F1F1" height="2" style="stroke:#181818;stroke-width:0.5;" width="4" x="301" y="52"/><rect fill="#F1F1F1" height="2" style="stroke:#181818;stroke-width:0.5;" width="4" x="301" y="56"/><text fill="#000000" font-family="sans-serif" font-size="14" lengthAdjust="spacing" textLength="49" x="249" y="77.9951">NodeJS</text></g><!--MD5=[e9dede37b31fdda9664526f66258b036]
entity Browser--><g id="elem_Browser"><rect fill="#F1F1F1" height="46.2969" rx="2.5" ry="2.5" style="stroke:#181818;stroke-width:0.5;" width="97" x="121" y="816.5"/><rect fill="#F1F1F1" height="10" style="stroke:#181818;stroke-width:0.5;" width="15" x="198" y="821.5"/><rect fill="#F1F1F1" height="2" style="stroke:#181818;stroke-width:0.5;" width="4" x="196" y="823.5"/><rect fill="#F1F1F1" height="2" style="stroke:#181818;stroke-width:0.5;" width="4" x="196" y="827.5"/><text fill="#000000" font-family="sans-serif" font-size="14" lengthAdjust="spacing" textLength="57" x="136" y="849.4951">Browser</text></g><!--MD5=[f664b171d46fe37ddaaa8e800b616d7d]
entity DEV--><g id="elem_DEV"><ellipse cx="176.5" cy="14" fill="#F1F1F1" rx="8" ry="8" style="stroke:#181818;stroke-width:0.5;"/><path d="M176.5,22 L176.5,49 M163.5,30 L189.5,30 M176.5,49 L163.5,64 M176.5,49 L189.5,64 " fill="none" style="stroke:#181818;stroke-width:0.5;"/><text fill="#000000" font-family="sans-serif" font-size="14" lengthAdjust="spacing" textLength="75" x="139" y="78.4951">Developer,</text><text fill="#000000" font-family="sans-serif" font-size="14" lengthAdjust="spacing" textLength="46" x="139" y="94.792">almost</text><text fill="#000000" font-family="sans-serif" font-size="14" lengthAdjust="spacing" textLength="36" x="139" y="111.0889">gone</text><text fill="#000000" font-family="sans-serif" font-size="14" lengthAdjust="spacing" textLength="51" x="139" y="127.3857">crazy;-)</text></g><g id="elem_RUN"><ellipse cx="176.2754" cy="165.0551" fill="#F1F1F1" rx="75.7754" ry="17.5551" style="stroke:#181818;stroke-width:0.5;"/><text fill="#000000" font-family="sans-serif" font-size="14" lengthAdjust="spacing" textLength="108" x="119.2754" y="168.8026">$ gradlew -t run</text></g><g id="elem_NI"><ellipse cx="590.3717" cy="531.3743" fill="#F1F1F1" rx="112.3717" ry="24.8743" style="stroke:#181818;stroke-width:0.5;"/><text fill="#000000" font-family="sans-serif" font-size="14" lengthAdjust="spacing" textLength="191" x="494.8717" y="534.221">$ npm install &lt;&gt; --save-dev</text></g><g id="elem_TEST"><ellipse cx="69.7248" cy="531.645" fill="#F1F1F1" rx="63.7248" ry="15.145" style="stroke:#181818;stroke-width:0.5;"/><text fill="#000000" font-family="sans-serif" font-size="14" lengthAdjust="spacing" textLength="75" x="29.2248" y="535.3925">$ npm test</text></g><!--MD5=[ff7a41c1395361ee029806f0eb7e0726]
entity npm--><g id="elem_npm"><rect fill="#F1F1F1" height="46.2969" rx="2.5" ry="2.5" style="stroke:#181818;stroke-width:0.5;" width="71" x="755" y="508.5"/><rect fill="#F1F1F1" height="10" style="stroke:#181818;stroke-width:0.5;" width="15" x="806" y="513.5"/><rect fill="#F1F1F1" height="2" style="stroke:#181818;stroke-width:0.5;" width="4" x="804" y="515.5"/><rect fill="#F1F1F1" height="2" style="stroke:#181818;stroke-width:0.5;" width="4" x="804" y="519.5"/><text fill="#000000" font-family="sans-serif" font-size="14" lengthAdjust="spacing" textLength="31" x="770" y="541.4951">npm</text></g><g id="elem_GMN37"><path d="M1186.5,678 L1186.5,686.5 L1154.51,690.5 L1186.5,694.5 L1186.5,703.1328 A0,0 0 0 0 1186.5,703.1328 L1320.5,703.1328 A0,0 0 0 0 1320.5,703.1328 L1320.5,688 L1310.5,678 L1186.5,678 A0,0 0 0 0 1186.5,678 " fill="#FEFFDD" style="stroke:#181818;stroke-width:0.5;"/><path d="M1310.5,678 L1310.5,688 L1320.5,688 L1310.5,678 " fill="#FEFFDD" style="stroke:#181818;stroke-width:0.5;"/><text fill="#000000" font-family="sans-serif" font-size="13" lengthAdjust="spacing" textLength="113" x="1192.5" y="695.0669">package.json.lock</text></g><!--MD5=[c668cf785a96bc7a2782c7867237511f]
link GCFG to PJ--><!--MD5=[c657d0b6483e9c774ed213975b370d94]
link gradle to GCFG--><g id="link_gradle_GCFG"><path d="M138.4802,342.0507 C138.4032,341.676 138.3264,341.2988 138.25,340.9193 C138.0973,340.1602 137.946,339.3916 137.7966,338.6139 C137.4979,337.0585 137.2066,335.4669 136.926,333.8432 C135.8034,327.3483 134.8506,320.3394 134.265,313.0775 C131.9225,284.03 135.455,250.935 157.5,230.5 C248.52,146.13 591.89,229.61 716,229.5 C746.67,229.47 756.67,217.76 785,229.5 C835.32,250.34 877.13,298.53 902.18,333.1 " fill="none" id="gradle-to-GCFG" style="stroke:#181818;stroke-width:1.0;stroke-dasharray:7.0,7.0;"/><polygon fill="#181818" points="905.15,337.24,903.1481,327.5967,902.233,333.1791,896.6507,332.2639,905.15,337.24" style="stroke:#181818;stroke-width:1.0;"/><text fill="#000000" font-family="sans-serif" font-size="13" lengthAdjust="spacing" textLength="67" x="717" y="203.5669">configured</text><text fill="#000000" font-family="sans-serif" font-size="13" lengthAdjust="spacing" textLength="50" x="725.5" y="218.6997">through</text></g><!--MD5=[0e6521e4d96fc5ccc0e6675c405928e0]
link gradle to webpack--><g id="link_gradle_webpack"><path d="M154.4693,427.5089 C154.5559,428.0012 154.643,428.4935 154.7306,428.9854 C154.9057,429.9693 155.0829,430.9522 155.2621,431.9327 C155.9786,435.8547 156.7263,439.7388 157.5,443.5 C167.95,494.29 151.15,518.57 186.5,556.5 C194.17,564.73 201.81,557.36 210.5,564.5 C242.03,590.42 262.25,634.23 272.74,662.5 " fill="none" id="gradle-to-webpack" style="stroke:#181818;stroke-width:1.0;"/><polygon fill="#181818" points="274.47,667.25,275.1439,657.4242,272.7567,662.5527,267.6282,660.1655,274.47,667.25" style="stroke:#181818;stroke-width:1.0;"/></g><!--MD5=[a464840e48eb4f66b3cec040cdcab49e]
link K2JS to root.build--><g id="link_K2JS_root.build"><path d="M294.07,403.64 C281.51,416.75 265.98,431.72 250.5,443.5 C244.8,447.84 240.1,445.3 236.5,451.5 C226.76,468.28 231.51,490.24 237.84,506.75 " fill="none" id="K2JS-to-root.build" style="stroke:#181818;stroke-width:1.0;"/><polygon fill="#181818" points="239.84,511.69,240.1748,501.8468,237.9658,507.0546,232.7581,504.8456,239.84,511.69" style="stroke:#181818;stroke-width:1.0;"/><text fill="#000000" font-family="sans-serif" font-size="13" lengthAdjust="spacing" textLength="65" x="237.5" y="464.5669">generates</text><text fill="#000000" font-family="sans-serif" font-size="13" lengthAdjust="spacing" textLength="21" x="259.5" y="479.6997">*.js</text><text fill="#000000" font-family="sans-serif" font-size="13" lengthAdjust="spacing" textLength="58" x="241" y="494.8325">*-tests.js</text></g><!--MD5=[0ccef5771aaf04055a305d067fe0eea8]
link KF to KC--><g id="link_KF_KC"><path d="M435,403.68 C406.47,428 370.6,464.77 354.5,506.5 C346.5,527.23 340.72,539.06 354.5,556.5 C416.16,634.56 721.01,671.71 852.72,684.32 " fill="none" id="KF-to-KC" style="stroke:#181818;stroke-width:1.0;"/><polygon fill="#181818" points="857.71,684.8,849.1265,679.9705,852.7322,684.3293,848.3734,687.935,857.71,684.8" style="stroke:#181818;stroke-width:1.0;"/><text fill="#000000" font-family="sans-serif" font-size="13" lengthAdjust="spacing" textLength="112" x="355.5" y="536.0669">initially generates</text></g><!--MD5=[8d7e0dff31da885e72fdc85f04d79e62]
link KC to PJ--><g id="link_KC_PJ"><path d="M969.01,690.5 C990.49,690.5 1015.15,690.5 1037.16,690.5 " fill="none" id="KC-to-PJ" style="stroke:#181818;stroke-width:1.0;"/><polygon fill="#181818" points="1042.39,690.5,1033.39,686.5,1037.39,690.5,1033.39,694.5,1042.39,690.5" style="stroke:#181818;stroke-width:1.0;"/><text fill="#000000" font-family="sans-serif" font-size="13" lengthAdjust="spacing" textLength="52" x="979.75" y="683.5669">requires</text></g><!--MD5=[c6bfe5db0d9522034a77668c71e39324]
link PJ to NM--><g id="link_PJ_NM"><path d="M1084.36,672.3 C1064.18,647.99 1024.52,606.03 979.5,589.5 C934.44,572.96 151.23,557.45 115.5,589.5 C111.495,593.0925 108.2881,597.2627 105.7461,601.8218 C105.1105,602.9616 104.5166,604.1257 103.9621,605.3112 " fill="none" id="PJ-to-NM" style="stroke:#181818;stroke-width:1.0;"/><polygon fill="#181818" points="103.9621,605.3112,111.3985,598.8537,106.0805,600.7821,104.152,595.4642,103.9621,605.3112" style="stroke:#181818;stroke-width:1.0;"/><text fill="#000000" font-family="sans-serif" font-size="13" lengthAdjust="spacing" textLength="48" x="160.5" y="577.5669">adds to</text></g><!--MD5=[d4f15545423303776113a9574a096e5f]
link DEV to RUN--><g id="link_DEV_RUN"><path d="M176.5,130.51 C176.5,134.63 176.5,138.6 176.5,142.27 " fill="none" id="DEV-to-RUN" style="stroke:#181818;stroke-width:1.0;"/><polygon fill="#181818" points="176.5,147.42,180.5,138.42,176.5,142.42,172.5,138.42,176.5,147.42" style="stroke:#181818;stroke-width:1.0;"/></g><!--MD5=[f3b0fd7d4b151759cb13e321df9d8a78]
link DEV to NI--><g id="link_DEV_NI"><path d="M214.21,122.25 C217.48,125.27 220.92,128.06 224.5,130.5 C289.24,174.59 512.76,169.99 562.5,230.5 C627.32,309.34 609.6,442.27 597.5,501.04 " fill="none" id="DEV-to-NI" style="stroke:#181818;stroke-width:1.0;"/><polygon fill="#181818" points="596.42,506.15,602.1836,498.1637,597.4472,501.2566,594.3542,496.5202,596.42,506.15" style="stroke:#181818;stroke-width:1.0;"/></g><!--MD5=[b17037f98e12b29962cd7c1ac441a1f1]
link RUN to gradle--><g id="link_RUN_gradle"><path d="M170.61,182.47 C166.26,195.37 160.57,213.85 157.5,230.5 C156.8012,234.29 156.1468,238.1455 155.5339,242.044 C155.3807,243.0186 155.2301,243.996 155.082,244.9756 C155.008,245.4655 154.9346,245.9559 154.8618,246.4468 " fill="none" id="RUN-to-gradle" style="stroke:#181818;stroke-width:1.0;"/><polygon fill="#181818" points="154.8618,246.4468,160.1381,238.1305,155.5949,241.5009,152.2246,236.9576,154.8618,246.4468" style="stroke:#181818;stroke-width:1.0;"/></g><!--MD5=[ab89fc97919d97f1f5f6fb1ea42f9f2d]
link NI to npm--><g id="link_NI_npm"><path d="M703.07,531.5 C719.54,531.5 735.54,531.5 749.26,531.5 " fill="none" id="NI-to-npm" style="stroke:#181818;stroke-width:1.0;stroke-dasharray:7.0,7.0;"/><polygon fill="#181818" points="754.6,531.5,745.6,527.5,749.6,531.5,745.6,535.5,754.6,531.5" style="stroke:#181818;stroke-width:1.0;"/><text fill="#000000" font-family="sans-serif" font-size="13" lengthAdjust="spacing" textLength="30" x="714" y="524.5669">uses</text></g><!--MD5=[f85af7db3b42217e115ddf1011bcd57f]
link NI to PJ--><g id="link_NI_PJ"><path d="M680.22,546.6 C701.6,549.91 724.35,553.37 745.5,556.5 C771.47,560.34 955.52,578.81 979.5,589.5 C1020.74,607.89 1058.91,644.96 1080.4,668.43 " fill="none" id="NI-to-PJ" style="stroke:#181818;stroke-width:1.0;"/><polygon fill="#181818" points="1083.96,672.37,1080.8946,663.0104,1080.6081,668.6599,1074.9585,668.3735,1083.96,672.37" style="stroke:#181818;stroke-width:1.0;"/><text fill="#000000" font-family="sans-serif" font-size="13" lengthAdjust="spacing" textLength="52" x="939.5" y="577.5669">updates</text></g><!--MD5=[20a9e19418e70fd4168eb3c6e1e94ca5]
link DEV to TEST--><g id="link_DEV_TEST"><path d="M138.72,93.03 C120.77,106.65 100.98,125.4 90.5,147.5 C30.11,274.82 55.21,453.35 65.73,511.43 " fill="none" id="DEV-to-TEST" style="stroke:#181818;stroke-width:1.0;"/><polygon fill="#181818" points="66.64,516.36,68.9263,506.7802,65.7255,511.4443,61.0613,508.2435,66.64,516.36" style="stroke:#181818;stroke-width:1.0;"/></g><!--MD5=[f1ad7c348f545d25b38a2b6484a9d476]
link TEST to npm--><g id="link_TEST_npm"><path d="M108.34,519.48 C155.23,505.66 236.74,483.79 308.5,475.5 C366.71,468.77 427.79,449.05 713.5,506.5 C725.56,508.92 738.37,512.61 750.01,516.42 " fill="none" id="TEST-to-npm" style="stroke:#181818;stroke-width:1.0;stroke-dasharray:7.0,7.0;"/><polygon fill="#181818" points="754.92,518.05,747.6528,511.4026,750.178,516.4646,745.1161,518.9898,754.92,518.05" style="stroke:#181818;stroke-width:1.0;"/><text fill="#000000" font-family="sans-serif" font-size="13" lengthAdjust="spacing" textLength="30" x="309.5" y="479.5669">uses</text></g><!--MD5=[e70c9030adc7658768ddcf0fba065aeb]
link TEST to karma--><g id="link_TEST_karma"><path d="M65,546.66 C62.52,557.49 61.37,572.11 69.5,581.5 C85.66,600.18 104.78,574.63 124.5,589.5 C147.67,606.98 159.21,639.11 164.74,662.24 " fill="none" id="TEST-to-karma" style="stroke:#181818;stroke-width:1.0;"/><polygon fill="#181818" points="165.9,667.32,167.8255,657.6612,164.8018,662.4421,160.0209,659.4184,165.9,667.32" style="stroke:#181818;stroke-width:1.0;"/><text fill="#000000" font-family="sans-serif" font-size="13" lengthAdjust="spacing" textLength="28" x="70.5" y="577.5669">runs</text></g><!--MD5=[9ca04c15e2688d803d183f81b48772ee]
link karma to Browser--><g id="link_karma_Browser"><path d="M169.5,713.51 C169.5,739.6 169.5,783.08 169.5,811.26 " fill="none" id="karma-to-Browser" style="stroke:#181818;stroke-width:1.0;"/><polygon fill="#181818" points="169.5,816.34,173.5,807.34,169.5,811.34,165.5,807.34,169.5,816.34" style="stroke:#181818;stroke-width:1.0;"/><text fill="#000000" font-family="sans-serif" font-size="13" lengthAdjust="spacing" textLength="51" x="187" y="774.5669">displays</text><text fill="#000000" font-family="sans-serif" font-size="13" lengthAdjust="spacing" textLength="72" x="176.5" y="789.6997">test results</text><text fill="#000000" font-family="sans-serif" font-size="13" lengthAdjust="spacing" textLength="84" x="170.5" y="804.8325">via port 9876</text></g><!--MD5=[dff960acabcf39db8b7dd071984373b0]
@startuml
skinparam nodesep 20
skinparam ranksep 5

top to bottom direction

component gradle <<build.tool>> {
    component kotlinFrontend <<gradle.plugin>> as KF
    component kotlin2js <<transpiler>> as K2JS
    component DCE
}


package root #gold {
    rectangle "build.gradle\nsettings.gradle\ngradle.properties" as GCFG
    rectangle karma.conf.js as KC
    rectangle package.json as PJ
    GCFG -[hidden]- -> PJ
}
package root.build  #gold {
}
package root.node_modules as NM #gold {
    component karma
    component webpack
}
component NodeJS
component Browser

gradle .> GCFG : configured\nthrough
gradle - -> webpack

K2JS - -> root.build : generates\n*.js\n*-tests.js
KF - -> KC : initially generates
KC -> PJ : requires
PJ -> NM : adds to

:Developer,\nalmost\ngone\ncrazy;-): as DEV
($ gradlew -t run) as RUN
($ npm install <> - -save-dev) as NI
($ npm test) as TEST

DEV - -> RUN
DEV - -> NI
RUN - -> gradle


component npm
NI .> npm : uses
NI -> PJ : updates


DEV - -> TEST
TEST .> npm : uses
TEST - -> karma : runs
karma - -> Browser : displays\ntest results\nvia port 9876

note left of PJ
package.json.lock
end note
@enduml

PlantUML version 1.2022.12(Sun Oct 23 18:12:26 GMT 2022)
(GPL source distribution)
Java Runtime: OpenJDK Runtime Environment
JVM: OpenJDK 64-Bit Server VM
Default Encoding: UTF-8
Language: en
Country: US
--></g></svg>