<?xml version="1.0" encoding="UTF-8" standalone="no"?><svg xmlns="http://www.w3.org/2000/svg" xmlns:xlink="http://www.w3.org/1999/xlink" contentStyleType="text/css" height="1160px" preserveAspectRatio="none" style="width:611px;height:1160px;background:#FFFFFF;" version="1.1" viewBox="0 0 611 1160" width="611px" zoomAndPan="magnify"><defs/><g><!--MD5=[01435ace8273dc3cae88e7f376e4d373]
cluster core--><g id="cluster_core"><path d="M440.5,154.5 L477.5,154.5 A3.75,3.75 0 0 1 480,157 L487,176.7969 L601.5,176.7969 A2.5,2.5 0 0 1 604,179.2969 L604,267 A2.5,2.5 0 0 1 601.5,269.5 L440.5,269.5 A2.5,2.5 0 0 1 438,267 L438,157 A2.5,2.5 0 0 1 440.5,154.5 " fill="none" style="stroke:#000000;stroke-width:1.5;"/><line style="stroke:#000000;stroke-width:1.5;" x1="438" x2="487" y1="176.7969" y2="176.7969"/><text fill="#000000" font-family="sans-serif" font-size="14" font-weight="bold" lengthAdjust="spacing" textLength="36" x="442" y="169.4951">core</text></g><!--MD5=[602dbec1f7d4de6c4f5ea6846e774687]
class core.Dispatcher--><g id="elem_core.Dispatcher"><rect codeLine="21" fill="#F1F1F1" height="64.2969" id="core.Dispatcher" rx="2.5" ry="2.5" style="stroke:#181818;stroke-width:0.5;" width="134" x="454" y="189.5"/><ellipse cx="481.15" cy="205.5" fill="#ADD1B2" rx="11" ry="11" style="stroke:#181818;stroke-width:1.0;"/><path d="M484.1188,211.1406 Q483.5406,211.4375 482.9,211.5781 Q482.2594,211.7344 481.5563,211.7344 Q479.0563,211.7344 477.7281,210.0938 Q476.4156,208.4375 476.4156,205.3125 Q476.4156,202.1875 477.7281,200.5313 Q479.0563,198.875 481.5563,198.875 Q482.2594,198.875 482.9,199.0313 Q483.5563,199.1875 484.1188,199.4844 L484.1188,202.2031 Q483.4938,201.625 482.9,201.3594 Q482.3063,201.0781 481.6813,201.0781 Q480.3375,201.0781 479.65,202.1563 Q478.9625,203.2188 478.9625,205.3125 Q478.9625,207.4063 479.65,208.4844 Q480.3375,209.5469 481.6813,209.5469 Q482.3063,209.5469 482.9,209.2813 Q483.4938,209 484.1188,208.4219 L484.1188,211.1406 Z " fill="#000000"/><text fill="#000000" font-family="sans-serif" font-size="14" lengthAdjust="spacing" textLength="75" x="497.85" y="210.3467">Dispatcher</text><line style="stroke:#181818;stroke-width:0.5;" x1="455" x2="587" y1="221.5" y2="221.5"/><text fill="#000000" font-family="sans-serif" font-size="14" lengthAdjust="spacing" textLength="122" x="460" y="238.4951">delegate:IHandler</text><line style="stroke:#181818;stroke-width:0.5;" x1="455" x2="587" y1="245.7969" y2="245.7969"/></g><!--MD5=[432c1a4756a6140e3e6346ba5e0933d4]
class IHandler--><g id="elem_IHandler"><rect codeLine="1" fill="#F1F1F1" height="96.8906" id="IHandler" rx="2.5" ry="2.5" style="stroke:#181818;stroke-width:0.5;" width="95" x="210.5" y="7"/><ellipse cx="227.75" cy="23" fill="#B4A7E5" rx="11" ry="11" style="stroke:#181818;stroke-width:1.0;"/><path d="M223.6719,18.7656 L223.6719,16.6094 L231.0625,16.6094 L231.0625,18.7656 L228.5938,18.7656 L228.5938,26.8438 L231.0625,26.8438 L231.0625,29 L223.6719,29 L223.6719,26.8438 L226.1406,26.8438 L226.1406,18.7656 L223.6719,18.7656 Z " fill="#000000"/><text fill="#000000" font-family="sans-serif" font-size="14" font-style="italic" lengthAdjust="spacing" textLength="58" x="242.25" y="27.8467">IHandler</text><line style="stroke:#181818;stroke-width:0.5;" x1="211.5" x2="304.5" y1="39" y2="39"/><line style="stroke:#181818;stroke-width:0.5;" x1="211.5" x2="304.5" y1="47" y2="47"/><text fill="#000000" font-family="sans-serif" font-size="14" lengthAdjust="spacing" textLength="57" x="216.5" y="63.9951">handle()</text><text fill="#000000" font-family="sans-serif" font-size="14" lengthAdjust="spacing" textLength="83" x="216.5" y="80.292">canHandle()</text><text fill="#000000" font-family="sans-serif" font-size="14" lengthAdjust="spacing" textLength="76" x="216.5" y="96.5889">doHandle()</text></g><!--MD5=[01b95d182fe8d23fc8b232b64dd5b18e]
class AbstractHandler--><g id="elem_AbstractHandler"><rect codeLine="6" fill="#F1F1F1" height="113.1875" id="AbstractHandler" rx="2.5" ry="2.5" style="stroke:#181818;stroke-width:0.5;" width="145" x="185.5" y="165"/><ellipse cx="201.4" cy="181" fill="#A9DCDF" rx="11" ry="11" style="stroke:#181818;stroke-width:1.0;"/><path d="M201.5094,176.3438 L200.3531,181.4219 L202.6813,181.4219 L201.5094,176.3438 Z M200.025,174.1094 L203.0094,174.1094 L206.3688,186.5 L203.9156,186.5 L203.15,183.4375 L199.8688,183.4375 L199.1188,186.5 L196.6813,186.5 L200.025,174.1094 Z " fill="#000000"/><text fill="#000000" font-family="sans-serif" font-size="14" font-style="italic" lengthAdjust="spacing" textLength="111" x="215.6" y="185.8467">AbstractHandler</text><line style="stroke:#181818;stroke-width:0.5;" x1="186.5" x2="329.5" y1="197" y2="197"/><text fill="#000000" font-family="sans-serif" font-size="14" lengthAdjust="spacing" textLength="133" x="191.5" y="213.9951">successor:IHandler</text><line style="stroke:#181818;stroke-width:0.5;" x1="186.5" x2="329.5" y1="221.2969" y2="221.2969"/><text fill="#000000" font-family="sans-serif" font-size="14" lengthAdjust="spacing" textLength="57" x="191.5" y="238.292">handle()</text><text fill="#000000" font-family="sans-serif" font-size="14" lengthAdjust="spacing" textLength="83" x="191.5" y="254.5889">canHandle()</text><text fill="#000000" font-family="sans-serif" font-size="14" lengthAdjust="spacing" textLength="76" x="191.5" y="270.8857">doHandle()</text></g><!--MD5=[92c80859769a7ec9401a62787a54d1d4]
class ListHandler--><g id="elem_ListHandler"><rect fill="#F1F1F1" height="48" id="ListHandler" rx="2.5" ry="2.5" style="stroke:#181818;stroke-width:0.5;" width="108" x="240" y="730"/><ellipse cx="255" cy="746" fill="#ADD1B2" rx="11" ry="11" style="stroke:#181818;stroke-width:1.0;"/><path d="M257.9688,751.6406 Q257.3906,751.9375 256.75,752.0781 Q256.1094,752.2344 255.4063,752.2344 Q252.9063,752.2344 251.5781,750.5938 Q250.2656,748.9375 250.2656,745.8125 Q250.2656,742.6875 251.5781,741.0313 Q252.9063,739.375 255.4063,739.375 Q256.1094,739.375 256.75,739.5313 Q257.4063,739.6875 257.9688,739.9844 L257.9688,742.7031 Q257.3438,742.125 256.75,741.8594 Q256.1563,741.5781 255.5313,741.5781 Q254.1875,741.5781 253.5,742.6563 Q252.8125,743.7188 252.8125,745.8125 Q252.8125,747.9063 253.5,748.9844 Q254.1875,750.0469 255.5313,750.0469 Q256.1563,750.0469 256.75,749.7813 Q257.3438,749.5 257.9688,748.9219 L257.9688,751.6406 Z " fill="#000000"/><text fill="#000000" font-family="sans-serif" font-size="14" lengthAdjust="spacing" textLength="76" x="269" y="750.8467">ListHandler</text><line style="stroke:#181818;stroke-width:0.5;" x1="241" x2="347" y1="762" y2="762"/><line style="stroke:#181818;stroke-width:0.5;" x1="241" x2="347" y1="770" y2="770"/></g><!--MD5=[1fdae39db92be1b5a08505623de70b6e]
class MemberHandler--><g id="elem_MemberHandler"><rect fill="#F1F1F1" height="48" id="MemberHandler" rx="2.5" ry="2.5" style="stroke:#181818;stroke-width:0.5;" width="142" x="311" y="605"/><ellipse cx="326" cy="621" fill="#ADD1B2" rx="11" ry="11" style="stroke:#181818;stroke-width:1.0;"/><path d="M328.9688,626.6406 Q328.3906,626.9375 327.75,627.0781 Q327.1094,627.2344 326.4063,627.2344 Q323.9063,627.2344 322.5781,625.5938 Q321.2656,623.9375 321.2656,620.8125 Q321.2656,617.6875 322.5781,616.0313 Q323.9063,614.375 326.4063,614.375 Q327.1094,614.375 327.75,614.5313 Q328.4063,614.6875 328.9688,614.9844 L328.9688,617.7031 Q328.3438,617.125 327.75,616.8594 Q327.1563,616.5781 326.5313,616.5781 Q325.1875,616.5781 324.5,617.6563 Q323.8125,618.7188 323.8125,620.8125 Q323.8125,622.9063 324.5,623.9844 Q325.1875,625.0469 326.5313,625.0469 Q327.1563,625.0469 327.75,624.7813 Q328.3438,624.5 328.9688,623.9219 L328.9688,626.6406 Z " fill="#000000"/><text fill="#000000" font-family="sans-serif" font-size="14" lengthAdjust="spacing" textLength="110" x="340" y="625.8467">MemberHandler</text><line style="stroke:#181818;stroke-width:0.5;" x1="312" x2="452" y1="637" y2="637"/><line style="stroke:#181818;stroke-width:0.5;" x1="312" x2="452" y1="645" y2="645"/></g><!--MD5=[8f04c489d5dc4fe6abecb24ddc6c65b0]
class ServiceHandler--><g id="elem_ServiceHandler"><rect fill="#F1F1F1" height="48" id="ServiceHandler" rx="2.5" ry="2.5" style="stroke:#181818;stroke-width:0.5;" width="135" x="453.5" y="355"/><ellipse cx="468.5" cy="371" fill="#ADD1B2" rx="11" ry="11" style="stroke:#181818;stroke-width:1.0;"/><path d="M471.4688,376.6406 Q470.8906,376.9375 470.25,377.0781 Q469.6094,377.2344 468.9063,377.2344 Q466.4063,377.2344 465.0781,375.5938 Q463.7656,373.9375 463.7656,370.8125 Q463.7656,367.6875 465.0781,366.0313 Q466.4063,364.375 468.9063,364.375 Q469.6094,364.375 470.25,364.5313 Q470.9063,364.6875 471.4688,364.9844 L471.4688,367.7031 Q470.8438,367.125 470.25,366.8594 Q469.6563,366.5781 469.0313,366.5781 Q467.6875,366.5781 467,367.6563 Q466.3125,368.7188 466.3125,370.8125 Q466.3125,372.9063 467,373.9844 Q467.6875,375.0469 469.0313,375.0469 Q469.6563,375.0469 470.25,374.7813 Q470.8438,374.5 471.4688,373.9219 L471.4688,376.6406 Z " fill="#000000"/><text fill="#000000" font-family="sans-serif" font-size="14" lengthAdjust="spacing" textLength="103" x="482.5" y="375.8467">ServiceHandler</text><line style="stroke:#181818;stroke-width:0.5;" x1="454.5" x2="587.5" y1="387" y2="387"/><line style="stroke:#181818;stroke-width:0.5;" x1="454.5" x2="587.5" y1="395" y2="395"/></g><!--MD5=[3f045702497cffb93d4ebeb2839b68f5]
class DefaultHandler--><g id="elem_DefaultHandler"><rect fill="#F1F1F1" height="48" id="DefaultHandler" rx="2.5" ry="2.5" style="stroke:#181818;stroke-width:0.5;" width="134" x="7" y="1105"/><ellipse cx="22" cy="1121" fill="#ADD1B2" rx="11" ry="11" style="stroke:#181818;stroke-width:1.0;"/><path d="M24.9688,1126.6406 Q24.3906,1126.9375 23.75,1127.0781 Q23.1094,1127.2344 22.4063,1127.2344 Q19.9063,1127.2344 18.5781,1125.5938 Q17.2656,1123.9375 17.2656,1120.8125 Q17.2656,1117.6875 18.5781,1116.0313 Q19.9063,1114.375 22.4063,1114.375 Q23.1094,1114.375 23.75,1114.5313 Q24.4063,1114.6875 24.9688,1114.9844 L24.9688,1117.7031 Q24.3438,1117.125 23.75,1116.8594 Q23.1563,1116.5781 22.5313,1116.5781 Q21.1875,1116.5781 20.5,1117.6563 Q19.8125,1118.7188 19.8125,1120.8125 Q19.8125,1122.9063 20.5,1123.9844 Q21.1875,1125.0469 22.5313,1125.0469 Q23.1563,1125.0469 23.75,1124.7813 Q24.3438,1124.5 24.9688,1123.9219 L24.9688,1126.6406 Z " fill="#000000"/><text fill="#000000" font-family="sans-serif" font-size="14" lengthAdjust="spacing" textLength="102" x="36" y="1125.8467">DefaultHandler</text><line style="stroke:#181818;stroke-width:0.5;" x1="8" x2="140" y1="1137" y2="1137"/><line style="stroke:#181818;stroke-width:0.5;" x1="8" x2="140" y1="1145" y2="1145"/></g><!--MD5=[30234db3d6175ac3d61fafb4c62888e3]
class LayoutHandler--><g id="elem_LayoutHandler"><rect fill="#F1F1F1" height="48" id="LayoutHandler" rx="2.5" ry="2.5" style="stroke:#181818;stroke-width:0.5;" width="130" x="98" y="980"/><ellipse cx="113" cy="996" fill="#ADD1B2" rx="11" ry="11" style="stroke:#181818;stroke-width:1.0;"/><path d="M115.9688,1001.6406 Q115.3906,1001.9375 114.75,1002.0781 Q114.1094,1002.2344 113.4063,1002.2344 Q110.9063,1002.2344 109.5781,1000.5938 Q108.2656,998.9375 108.2656,995.8125 Q108.2656,992.6875 109.5781,991.0313 Q110.9063,989.375 113.4063,989.375 Q114.1094,989.375 114.75,989.5313 Q115.4063,989.6875 115.9688,989.9844 L115.9688,992.7031 Q115.3438,992.125 114.75,991.8594 Q114.1563,991.5781 113.5313,991.5781 Q112.1875,991.5781 111.5,992.6563 Q110.8125,993.7188 110.8125,995.8125 Q110.8125,997.9063 111.5,998.9844 Q112.1875,1000.0469 113.5313,1000.0469 Q114.1563,1000.0469 114.75,999.7813 Q115.3438,999.5 115.9688,998.9219 L115.9688,1001.6406 Z " fill="#000000"/><text fill="#000000" font-family="sans-serif" font-size="14" lengthAdjust="spacing" textLength="98" x="127" y="1000.8467">LayoutHandler</text><line style="stroke:#181818;stroke-width:0.5;" x1="99" x2="227" y1="1012" y2="1012"/><line style="stroke:#181818;stroke-width:0.5;" x1="99" x2="227" y1="1020" y2="1020"/></g><!--MD5=[7dc6510d79a2780c312fc79492c625e6]
class ObjectListHandler--><g id="elem_ObjectListHandler"><rect fill="#F1F1F1" height="48" id="ObjectListHandler" rx="2.5" ry="2.5" style="stroke:#181818;stroke-width:0.5;" width="153" x="169.5" y="855"/><ellipse cx="184.5" cy="871" fill="#ADD1B2" rx="11" ry="11" style="stroke:#181818;stroke-width:1.0;"/><path d="M187.4688,876.6406 Q186.8906,876.9375 186.25,877.0781 Q185.6094,877.2344 184.9063,877.2344 Q182.4063,877.2344 181.0781,875.5938 Q179.7656,873.9375 179.7656,870.8125 Q179.7656,867.6875 181.0781,866.0313 Q182.4063,864.375 184.9063,864.375 Q185.6094,864.375 186.25,864.5313 Q186.9063,864.6875 187.4688,864.9844 L187.4688,867.7031 Q186.8438,867.125 186.25,866.8594 Q185.6563,866.5781 185.0313,866.5781 Q183.6875,866.5781 183,867.6563 Q182.3125,868.7188 182.3125,870.8125 Q182.3125,872.9063 183,873.9844 Q183.6875,875.0469 185.0313,875.0469 Q185.6563,875.0469 186.25,874.7813 Q186.8438,874.5 187.4688,873.9219 L187.4688,876.6406 Z " fill="#000000"/><text fill="#000000" font-family="sans-serif" font-size="14" lengthAdjust="spacing" textLength="121" x="198.5" y="875.8467">ObjectListHandler</text><line style="stroke:#181818;stroke-width:0.5;" x1="170.5" x2="321.5" y1="887" y2="887"/><line style="stroke:#181818;stroke-width:0.5;" x1="170.5" x2="321.5" y1="895" y2="895"/></g><!--MD5=[1a9c9b8ed36c32d73faf93f48bc25258]
class ActionHandler--><g id="elem_ActionHandler"><rect fill="#F1F1F1" height="48" id="ActionHandler" rx="2.5" ry="2.5" style="stroke:#181818;stroke-width:0.5;" width="128" x="382" y="480"/><ellipse cx="397" cy="496" fill="#ADD1B2" rx="11" ry="11" style="stroke:#181818;stroke-width:1.0;"/><path d="M399.9688,501.6406 Q399.3906,501.9375 398.75,502.0781 Q398.1094,502.2344 397.4063,502.2344 Q394.9063,502.2344 393.5781,500.5938 Q392.2656,498.9375 392.2656,495.8125 Q392.2656,492.6875 393.5781,491.0313 Q394.9063,489.375 397.4063,489.375 Q398.1094,489.375 398.75,489.5313 Q399.4063,489.6875 399.9688,489.9844 L399.9688,492.7031 Q399.3438,492.125 398.75,491.8594 Q398.1563,491.5781 397.5313,491.5781 Q396.1875,491.5781 395.5,492.6563 Q394.8125,493.7188 394.8125,495.8125 Q394.8125,497.9063 395.5,498.9844 Q396.1875,500.0469 397.5313,500.0469 Q398.1563,500.0469 398.75,499.7813 Q399.3438,499.5 399.9688,498.9219 L399.9688,501.6406 Z " fill="#000000"/><text fill="#000000" font-family="sans-serif" font-size="14" lengthAdjust="spacing" textLength="96" x="411" y="500.8467">ActionHandler</text><line style="stroke:#181818;stroke-width:0.5;" x1="383" x2="509" y1="512" y2="512"/><line style="stroke:#181818;stroke-width:0.5;" x1="383" x2="509" y1="520" y2="520"/></g><!--MD5=[a7fb7b57ca781c6a4b9a475808d7efae]
reverse link IHandler to AbstractHandler--><g id="link_IHandler_AbstractHandler"><path codeLine="12" d="M258,124.71 C258,138.05 258,151.88 258,164.76 " fill="none" id="IHandler-backto-AbstractHandler" style="stroke:#181818;stroke-width:1.0;"/><polygon fill="none" points="251,124.38,258,104.38,265,124.38,251,124.38" style="stroke:#181818;stroke-width:1.0;"/></g><!--MD5=[1e1a9f76e335bb6e4b141b5634f6564f]
reverse link AbstractHandler to ListHandler--><g id="link_AbstractHandler_ListHandler"><path codeLine="13" d="M258,298.28 C258,323.63 258,352.03 258,378 C258,378 258,378 258,630 C258,665.82 272.24,705.24 282.81,729.56 " fill="none" id="AbstractHandler-backto-ListHandler" style="stroke:#181818;stroke-width:1.0;"/><polygon fill="none" points="251,298.28,258,278.28,265,298.28,251,298.28" style="stroke:#181818;stroke-width:1.0;"/></g><!--MD5=[e378d0f5a1852855970ccf5bbfb738ff]
reverse link AbstractHandler to MemberHandler--><g id="link_AbstractHandler_MemberHandler"><path codeLine="14" d="M280.88,297.31 C309.52,390.99 357.01,546.29 374.9,604.77 " fill="none" id="AbstractHandler-backto-MemberHandler" style="stroke:#181818;stroke-width:1.0;"/><polygon fill="none" points="274.14,299.21,274.98,278.03,287.52,295.11,274.14,299.21" style="stroke:#181818;stroke-width:1.0;"/></g><!--MD5=[de4a9ef009c7b38c76d1f8afa542e34c]
reverse link AbstractHandler to ServiceHandler--><g id="link_AbstractHandler_ServiceHandler"><path codeLine="15" d="M348.68,265.22 C374.16,278.14 401.57,292.93 426,308 C449.19,322.31 473.92,340.64 492.34,354.96 " fill="none" id="AbstractHandler-backto-ServiceHandler" style="stroke:#181818;stroke-width:1.0;"/><polygon fill="none" points="345.31,271.36,330.54,256.17,351.56,258.84,345.31,271.36" style="stroke:#181818;stroke-width:1.0;"/></g><!--MD5=[4b442c1ce230fecf3cde00f32c933cfd]
reverse link AbstractHandler to DefaultHandler--><g id="link_AbstractHandler_DefaultHandler"><path codeLine="16" d="M166.45,249.86 C108.71,273.4 45,313.9 45,378 C45,378 45,378 45,1005 C45,1040.54 56.61,1080.36 65.14,1104.8 " fill="none" id="AbstractHandler-backto-DefaultHandler" style="stroke:#181818;stroke-width:1.0;"/><polygon fill="none" points="164.11,243.26,185.29,242.66,169.11,256.34,164.11,243.26" style="stroke:#181818;stroke-width:1.0;"/></g><!--MD5=[b032d7f4ca466463727e12c79a370096]
reverse link AbstractHandler to LayoutHandler--><g id="link_AbstractHandler_LayoutHandler"><path codeLine="17" d="M169.92,279.24 C140.94,305.11 116,338.77 116,378 C116,378 116,378 116,880 C116,916.8 134.59,955.97 148.39,979.96 " fill="none" id="AbstractHandler-backto-LayoutHandler" style="stroke:#181818;stroke-width:1.0;"/><polygon fill="none" points="165.48,273.83,185.34,266.44,174.43,284.6,165.48,273.83" style="stroke:#181818;stroke-width:1.0;"/></g><!--MD5=[2afa2609233b453cd4c2684e22e2fc94]
reverse link AbstractHandler to ObjectListHandler--><g id="link_AbstractHandler_ObjectListHandler"><path codeLine="18" d="M209.19,295.97 C196.84,320.95 187,349.72 187,378 C187,378 187,378 187,755 C187,792.66 209.76,830.99 227.01,854.62 " fill="none" id="AbstractHandler-backto-ObjectListHandler" style="stroke:#181818;stroke-width:1.0;"/><polygon fill="none" points="203.15,292.42,218.76,278.09,215.49,299.03,203.15,292.42" style="stroke:#181818;stroke-width:1.0;"/></g><!--MD5=[5905d95551bd1ca66aa16905076252fa]
reverse link AbstractHandler to ActionHandler--><g id="link_AbstractHandler_ActionHandler"><path codeLine="19" d="M342.35,292.66 C346.84,297.66 351.1,302.79 355,308 C396.64,363.63 425.81,441.36 438.65,479.71 " fill="none" id="AbstractHandler-backto-ActionHandler" style="stroke:#181818;stroke-width:1.0;"/><polygon fill="none" points="337.16,297.37,328.32,278.12,347.24,287.65,337.16,297.37" style="stroke:#181818;stroke-width:1.0;"/></g><!--MD5=[a4a5b3a7d6c003c3d1a274d923e00a94]
link core.Dispatcher to ServiceHandler--><g id="link_core.Dispatcher_ServiceHandler"><path codeLine="24" d="M521,253.59 C521,281.51 521,322.17 521,349.32 " fill="none" id="core.Dispatcher-to-ServiceHandler" style="stroke:#181818;stroke-width:1.0;"/><polygon fill="#181818" points="521,354.56,525,345.56,521,349.56,517,345.56,521,354.56" style="stroke:#181818;stroke-width:1.0;"/><text fill="#000000" font-family="sans-serif" font-size="13" lengthAdjust="spacing" textLength="56" x="522" y="321.0669">delegate</text></g><!--MD5=[f6679089ebdf89bdbc81d060be924a03]
link ServiceHandler to ActionHandler--><g id="link_ServiceHandler_ActionHandler"><path codeLine="25" d="M506.89,403.14 C494.37,423.67 476.07,453.69 462.8,475.46 " fill="none" id="ServiceHandler-to-ActionHandler" style="stroke:#181818;stroke-width:1.0;"/><polygon fill="#181818" points="460.04,479.97,468.1363,474.362,462.6397,475.699,461.3027,470.2024,460.04,479.97" style="stroke:#181818;stroke-width:1.0;"/><text fill="#000000" font-family="sans-serif" font-size="13" lengthAdjust="spacing" textLength="64" x="488" y="446.0669">successor</text></g><!--MD5=[b0316ad5466822f840a489e3ce435aa0]
link ActionHandler to MemberHandler--><g id="link_ActionHandler_MemberHandler"><path codeLine="26" d="M433.96,528.14 C423.28,548.67 407.66,578.69 396.33,600.46 " fill="none" id="ActionHandler-to-MemberHandler" style="stroke:#181818;stroke-width:1.0;"/><polygon fill="#181818" points="393.98,604.97,401.6779,598.8265,396.2845,600.5327,394.5783,595.1393,393.98,604.97" style="stroke:#181818;stroke-width:1.0;"/><text fill="#000000" font-family="sans-serif" font-size="13" lengthAdjust="spacing" textLength="64" x="419" y="571.0669">successor</text></g><!--MD5=[be0579d02c04d18495a878966b4727c0]
link MemberHandler to ListHandler--><g id="link_MemberHandler_ListHandler"><path codeLine="27" d="M365.45,653.14 C350.7,673.75 329.1,703.94 313.51,725.73 " fill="none" id="MemberHandler-to-ListHandler" style="stroke:#181818;stroke-width:1.0;"/><polygon fill="#181818" points="310.48,729.97,318.971,724.9798,313.3902,725.9042,312.4658,720.3234,310.48,729.97" style="stroke:#181818;stroke-width:1.0;"/><text fill="#000000" font-family="sans-serif" font-size="13" lengthAdjust="spacing" textLength="64" x="345" y="696.0669">successor</text></g><!--MD5=[6349002bc45643cd2d82a494985549de]
link ListHandler to ObjectListHandler--><g id="link_ListHandler_ObjectListHandler"><path codeLine="28" d="M284.97,778.14 C276.99,798.58 265.34,828.44 256.86,850.18 " fill="none" id="ListHandler-to-ObjectListHandler" style="stroke:#181818;stroke-width:1.0;"/><polygon fill="#181818" points="254.99,854.97,262.0026,848.0545,256.8174,850.3159,254.556,845.1307,254.99,854.97" style="stroke:#181818;stroke-width:1.0;"/><text fill="#000000" font-family="sans-serif" font-size="13" lengthAdjust="spacing" textLength="64" x="274" y="821.0669">successor</text></g><!--MD5=[9f099e972c57934aec35d8d280dd941f]
link ObjectListHandler to LayoutHandler--><g id="link_ObjectListHandler_LayoutHandler"><path codeLine="29" d="M230.39,903.14 C216.48,923.75 196.1,953.94 181.4,975.73 " fill="none" id="ObjectListHandler-to-LayoutHandler" style="stroke:#181818;stroke-width:1.0;"/><polygon fill="#181818" points="178.54,979.97,186.8937,974.7532,181.3398,975.8274,180.2656,970.2735,178.54,979.97" style="stroke:#181818;stroke-width:1.0;"/><text fill="#000000" font-family="sans-serif" font-size="13" lengthAdjust="spacing" textLength="64" x="211" y="946.0669">successor</text></g><!--MD5=[565d4d0f940724c8f3b88f5e7ae3cc0e]
link LayoutHandler to DefaultHandler--><g id="link_LayoutHandler_DefaultHandler"><path codeLine="30" d="M146.26,1028.14 C131.34,1048.75 109.5,1078.94 93.73,1100.73 " fill="none" id="LayoutHandler-to-DefaultHandler" style="stroke:#181818;stroke-width:1.0;"/><polygon fill="#181818" points="90.67,1104.97,99.1891,1100.0279,93.6032,1100.9208,92.7104,1095.3348,90.67,1104.97" style="stroke:#181818;stroke-width:1.0;"/><text fill="#000000" font-family="sans-serif" font-size="13" lengthAdjust="spacing" textLength="64" x="125" y="1071.0669">successor</text></g><!--MD5=[0866fa7e4054f4777319b5b2f2276081]
@startuml
interface IHandler {
    handle()
    canHandle()
    doHandle()
}
abstract class AbstractHandler {
    successor:IHandler
    handle()
    canHandle()
    doHandle()
}
IHandler <|- - AbstractHandler
AbstractHandler <|- - ListHandler
AbstractHandler <|- - MemberHandler
AbstractHandler <|- - ServiceHandler
AbstractHandler <|- - DefaultHandler
AbstractHandler <|- - LayoutHandler
AbstractHandler <|- - ObjectListHandler
AbstractHandler <|- - ActionHandler

class core.Dispatcher {
    delegate:IHandler
}
core.Dispatcher - -> ServiceHandler : delegate
ServiceHandler - -> ActionHandler : successor
ActionHandler - -> MemberHandler : successor
MemberHandler - ->  ListHandler : successor
ListHandler - ->  ObjectListHandler : successor
ObjectListHandler - ->  LayoutHandler : successor
LayoutHandler - ->  DefaultHandler : successor
@enduml

PlantUML version 1.2022.12(Sun Oct 23 18:12:26 GMT 2022)
(GPL source distribution)
Java Runtime: OpenJDK Runtime Environment
JVM: OpenJDK 64-Bit Server VM
Default Encoding: UTF-8
Language: en
Country: US
--></g></svg>