<?xml version="1.0" encoding="UTF-8" standalone="no"?><svg xmlns="http://www.w3.org/2000/svg" xmlns:xlink="http://www.w3.org/1999/xlink" contentStyleType="text/css" height="991px" preserveAspectRatio="none" style="width:1412px;height:991px;background:#FFFFFF;" version="1.1" viewBox="0 0 1412 991" width="1412px" zoomAndPan="magnify"><defs/><g><rect fill="#FFFFFF" height="158.6641" style="stroke:#181818;stroke-width:1.0;" width="10" x="617.5" y="199.8281"/><rect fill="#FFFFFF" height="505.125" style="stroke:#181818;stroke-width:1.0;" width="10" x="969" y="358.4922"/><rect fill="#FFFFFF" height="63.2656" style="stroke:#181818;stroke-width:1.0;" width="10" x="974" y="395.625"/><rect fill="#FFFFFF" height="150.6641" style="stroke:#181818;stroke-width:1.0;" width="10" x="974" y="496.0234"/><rect fill="#FFFFFF" height="121.5313" style="stroke:#181818;stroke-width:1.0;" width="10" x="974" y="683.8203"/><line style="stroke:#181818;stroke-width:0.5;stroke-dasharray:5.0,5.0;" x1="24" x2="24" y1="81.2969" y2="910.75"/><line style="stroke:#181818;stroke-width:0.5;stroke-dasharray:5.0,5.0;" x1="116" x2="116" y1="81.2969" y2="910.75"/><line style="stroke:#181818;stroke-width:0.5;stroke-dasharray:5.0,5.0;" x1="259" x2="259" y1="81.2969" y2="910.75"/><line style="stroke:#181818;stroke-width:0.5;stroke-dasharray:5.0,5.0;" x1="438" x2="438" y1="81.2969" y2="910.75"/><line style="stroke:#181818;stroke-width:0.5;stroke-dasharray:5.0,5.0;" x1="622" x2="622" y1="81.2969" y2="910.75"/><line style="stroke:#181818;stroke-width:0.5;stroke-dasharray:5.0,5.0;" x1="807" x2="807" y1="81.2969" y2="910.75"/><line style="stroke:#181818;stroke-width:0.5;stroke-dasharray:5.0,5.0;" x1="974" x2="974" y1="81.2969" y2="910.75"/><line style="stroke:#181818;stroke-width:0.5;stroke-dasharray:5.0,5.0;" x1="1180.5" x2="1180.5" y1="81.2969" y2="910.75"/><line style="stroke:#181818;stroke-width:0.5;stroke-dasharray:5.0,5.0;" x1="1336.5" x2="1336.5" y1="81.2969" y2="910.75"/><text fill="#000000" font-family="sans-serif" font-size="14" lengthAdjust="spacing" textLength="32" x="5" y="77.9951">User</text><ellipse cx="24" cy="13.5" fill="#E2E2F0" rx="8" ry="8" style="stroke:#181818;stroke-width:0.5;"/><path d="M24,21.5 L24,48.5 M11,29.5 L37,29.5 M24,48.5 L11,63.5 M24,48.5 L37,63.5 " fill="none" style="stroke:#181818;stroke-width:0.5;"/><text fill="#000000" font-family="sans-serif" font-size="14" lengthAdjust="spacing" textLength="32" x="5" y="922.7451">User</text><ellipse cx="24" cy="934.5469" fill="#E2E2F0" rx="8" ry="8" style="stroke:#181818;stroke-width:0.5;"/><path d="M24,942.5469 L24,969.5469 M11,950.5469 L37,950.5469 M24,969.5469 L11,984.5469 M24,969.5469 L37,984.5469 " fill="none" style="stroke:#181818;stroke-width:0.5;"/><rect fill="#E2E2F0" height="46.5938" rx="2.5" ry="2.5" style="stroke:#181818;stroke-width:0.5;" width="127" x="53" y="33.7031"/><text fill="#000000" font-family="sans-serif" font-size="14" lengthAdjust="spacing" textLength="113" x="60" y="53.6982">&lt;&lt;Singleton&gt;&gt;</text><text fill="#000000" font-family="sans-serif" font-size="14" lengthAdjust="spacing" textLength="77" x="78" y="69.9951">UI Manager</text><rect fill="#E2E2F0" height="46.5938" rx="2.5" ry="2.5" style="stroke:#181818;stroke-width:0.5;" width="127" x="53" y="909.75"/><text fill="#000000" font-family="sans-serif" font-size="14" lengthAdjust="spacing" textLength="113" x="60" y="929.7451">&lt;&lt;Singleton&gt;&gt;</text><text fill="#000000" font-family="sans-serif" font-size="14" lengthAdjust="spacing" textLength="77" x="78" y="946.042">UI Manager</text><rect fill="#ADD8E6" height="46.5938" rx="2.5" ry="2.5" style="stroke:#181818;stroke-width:0.5;" width="139" x="190" y="33.7031"/><text fill="#000000" font-family="sans-serif" font-size="14" lengthAdjust="spacing" textLength="125" x="197" y="53.6982">&lt;&lt;description&gt;&gt;</text><text fill="#000000" font-family="sans-serif" font-size="14" lengthAdjust="spacing" textLength="27" x="246" y="69.9951">Link</text><rect fill="#ADD8E6" height="46.5938" rx="2.5" ry="2.5" style="stroke:#181818;stroke-width:0.5;" width="139" x="190" y="909.75"/><text fill="#000000" font-family="sans-serif" font-size="14" lengthAdjust="spacing" textLength="125" x="197" y="929.7451">&lt;&lt;description&gt;&gt;</text><text fill="#000000" font-family="sans-serif" font-size="14" lengthAdjust="spacing" textLength="27" x="246" y="946.042">Link</text><rect fill="#E2E2F0" height="30.2969" rx="2.5" ry="2.5" style="stroke:#181818;stroke-width:0.5;" width="137" x="370" y="50"/><text fill="#000000" font-family="sans-serif" font-size="14" lengthAdjust="spacing" textLength="123" x="377" y="69.9951">(Xml)HttpRequest</text><rect fill="#E2E2F0" height="30.2969" rx="2.5" ry="2.5" style="stroke:#181818;stroke-width:0.5;" width="137" x="370" y="909.75"/><text fill="#000000" font-family="sans-serif" font-size="14" lengthAdjust="spacing" textLength="123" x="377" y="929.7451">(Xml)HttpRequest</text><rect fill="#E2E2F0" height="46.5938" rx="2.5" ry="2.5" style="stroke:#181818;stroke-width:0.5;" width="211" x="517" y="33.7031"/><text fill="#000000" font-family="sans-serif" font-size="14" lengthAdjust="spacing" textLength="197" x="524" y="53.6982">&lt;&lt;ChainOfResponsibility&gt;&gt;</text><text fill="#000000" font-family="sans-serif" font-size="14" lengthAdjust="spacing" textLength="124" x="560.5" y="69.9951">ResponseHandler</text><rect fill="#E2E2F0" height="46.5938" rx="2.5" ry="2.5" style="stroke:#181818;stroke-width:0.5;" width="211" x="517" y="909.75"/><text fill="#000000" font-family="sans-serif" font-size="14" lengthAdjust="spacing" textLength="197" x="524" y="929.7451">&lt;&lt;ChainOfResponsibility&gt;&gt;</text><text fill="#000000" font-family="sans-serif" font-size="14" lengthAdjust="spacing" textLength="124" x="560.5" y="946.042">ResponseHandler</text><rect fill="#ADD8E6" height="62.8906" rx="2.5" ry="2.5" style="stroke:#181818;stroke-width:0.5;" width="139" x="738" y="17.4063"/><text fill="#000000" font-family="sans-serif" font-size="14" lengthAdjust="spacing" textLength="125" x="745" y="37.4014">&lt;&lt;description&gt;&gt;</text><text fill="#000000" font-family="sans-serif" font-size="14" lengthAdjust="spacing" textLength="124" x="745.5" y="53.6982">&lt;&lt;EventStore&gt;&gt;</text><text fill="#000000" font-family="sans-serif" font-size="14" lengthAdjust="spacing" textLength="60" x="777.5" y="69.9951">LogEntry</text><rect fill="#ADD8E6" height="62.8906" rx="2.5" ry="2.5" style="stroke:#181818;stroke-width:0.5;" width="139" x="738" y="909.75"/><text fill="#000000" font-family="sans-serif" font-size="14" lengthAdjust="spacing" textLength="125" x="745" y="929.7451">&lt;&lt;description&gt;&gt;</text><text fill="#000000" font-family="sans-serif" font-size="14" lengthAdjust="spacing" textLength="124" x="745.5" y="946.042">&lt;&lt;EventStore&gt;&gt;</text><text fill="#000000" font-family="sans-serif" font-size="14" lengthAdjust="spacing" textLength="60" x="777.5" y="962.3389">LogEntry</text><rect fill="#FFC0CB" height="46.5938" rx="2.5" ry="2.5" style="stroke:#181818;stroke-width:0.5;" width="174" x="887" y="33.7031"/><text fill="#000000" font-family="sans-serif" font-size="14" lengthAdjust="spacing" textLength="160" x="894" y="53.6982">&lt;&lt;moment-interval&gt;&gt;</text><text fill="#000000" font-family="sans-serif" font-size="14" lengthAdjust="spacing" textLength="145" x="901.5" y="69.9951">CollectionAggregator</text><rect fill="#FFC0CB" height="46.5938" rx="2.5" ry="2.5" style="stroke:#181818;stroke-width:0.5;" width="174" x="887" y="909.75"/><text fill="#000000" font-family="sans-serif" font-size="14" lengthAdjust="spacing" textLength="160" x="894" y="929.7451">&lt;&lt;moment-interval&gt;&gt;</text><text fill="#000000" font-family="sans-serif" font-size="14" lengthAdjust="spacing" textLength="145" x="901.5" y="946.042">CollectionAggregator</text><rect fill="#90EE90" height="62.8906" rx="2.5" ry="2.5" style="stroke:#181818;stroke-width:0.5;" width="153" x="1104.5" y="17.4063"/><text fill="#000000" font-family="sans-serif" font-size="14" lengthAdjust="spacing" textLength="83" x="1139.5" y="37.4014">&lt;&lt;thing&gt;&gt;</text><text fill="#000000" font-family="sans-serif" font-size="14" lengthAdjust="spacing" textLength="139" x="1111.5" y="53.6982">&lt;&lt;DisplayModel&gt;&gt;</text><text fill="#000000" font-family="sans-serif" font-size="14" lengthAdjust="spacing" textLength="91" x="1135.5" y="69.9951">CollectionDM</text><rect fill="#90EE90" height="62.8906" rx="2.5" ry="2.5" style="stroke:#181818;stroke-width:0.5;" width="153" x="1104.5" y="909.75"/><text fill="#000000" font-family="sans-serif" font-size="14" lengthAdjust="spacing" textLength="83" x="1139.5" y="929.7451">&lt;&lt;thing&gt;&gt;</text><text fill="#000000" font-family="sans-serif" font-size="14" lengthAdjust="spacing" textLength="139" x="1111.5" y="946.042">&lt;&lt;DisplayModel&gt;&gt;</text><text fill="#000000" font-family="sans-serif" font-size="14" lengthAdjust="spacing" textLength="91" x="1135.5" y="962.3389">CollectionDM</text><rect fill="#ADD8E6" height="46.5938" rx="2.5" ry="2.5" style="stroke:#181818;stroke-width:0.5;" width="139" x="1267.5" y="33.7031"/><text fill="#000000" font-family="sans-serif" font-size="14" lengthAdjust="spacing" textLength="125" x="1274.5" y="53.6982">&lt;&lt;description&gt;&gt;</text><text fill="#000000" font-family="sans-serif" font-size="14" lengthAdjust="spacing" textLength="102" x="1286" y="69.9951">TransferObject</text><rect fill="#ADD8E6" height="46.5938" rx="2.5" ry="2.5" style="stroke:#181818;stroke-width:0.5;" width="139" x="1267.5" y="909.75"/><text fill="#000000" font-family="sans-serif" font-size="14" lengthAdjust="spacing" textLength="125" x="1274.5" y="929.7451">&lt;&lt;description&gt;&gt;</text><text fill="#000000" font-family="sans-serif" font-size="14" lengthAdjust="spacing" textLength="102" x="1286" y="946.042">TransferObject</text><rect fill="#FFFFFF" height="158.6641" style="stroke:#181818;stroke-width:1.0;" width="10" x="617.5" y="199.8281"/><rect fill="#FFFFFF" height="505.125" style="stroke:#181818;stroke-width:1.0;" width="10" x="969" y="358.4922"/><rect fill="#FFFFFF" height="63.2656" style="stroke:#181818;stroke-width:1.0;" width="10" x="974" y="395.625"/><rect fill="#FFFFFF" height="150.6641" style="stroke:#181818;stroke-width:1.0;" width="10" x="974" y="496.0234"/><rect fill="#FFFFFF" height="121.5313" style="stroke:#181818;stroke-width:1.0;" width="10" x="974" y="683.8203"/><polygon fill="#181818" points="104.5,108.4297,114.5,112.4297,104.5,116.4297,108.5,112.4297" style="stroke:#181818;stroke-width:1.0;"/><line style="stroke:#181818;stroke-width:1.0;" x1="24" x2="110.5" y1="112.4297" y2="112.4297"/><text fill="#000000" font-family="sans-serif" font-size="13" lengthAdjust="spacing" textLength="43" x="31" y="107.3638">listAll()</text><polygon fill="#181818" points="247.5,137.5625,257.5,141.5625,247.5,145.5625,251.5,141.5625" style="stroke:#181818;stroke-width:1.0;"/><line style="stroke:#181818;stroke-width:1.0;" x1="116.5" x2="253.5" y1="141.5625" y2="141.5625"/><text fill="#000000" font-family="sans-serif" font-size="13" lengthAdjust="spacing" textLength="51" x="123.5" y="136.4966">invoke()</text><polygon fill="#181818" points="426.5,166.6953,436.5,170.6953,426.5,174.6953,430.5,170.6953" style="stroke:#181818;stroke-width:1.0;"/><line style="stroke:#181818;stroke-width:1.0;" x1="259.5" x2="432.5" y1="170.6953" y2="170.6953"/><text fill="#000000" font-family="sans-serif" font-size="13" lengthAdjust="spacing" textLength="51" x="266.5" y="165.6294">Invoke()</text><polygon fill="#181818" points="605.5,195.8281,615.5,199.8281,605.5,203.8281,609.5,199.8281" style="stroke:#181818;stroke-width:1.0;"/><line style="stroke:#181818;stroke-width:1.0;" x1="438.5" x2="611.5" y1="199.8281" y2="199.8281"/><text fill="#000000" font-family="sans-serif" font-size="13" lengthAdjust="spacing" textLength="53" x="445.5" y="194.7622">handle()</text><line style="stroke:#181818;stroke-width:1.0;" x1="627.5" x2="669.5" y1="228.9609" y2="228.9609"/><line style="stroke:#181818;stroke-width:1.0;" x1="669.5" x2="669.5" y1="228.9609" y2="241.9609"/><line style="stroke:#181818;stroke-width:1.0;" x1="628.5" x2="669.5" y1="241.9609" y2="241.9609"/><polygon fill="#181818" points="638.5,237.9609,628.5,241.9609,638.5,245.9609,634.5,241.9609" style="stroke:#181818;stroke-width:1.0;"/><text fill="#000000" font-family="sans-serif" font-size="13" lengthAdjust="spacing" textLength="121" x="634.5" y="223.895">successor.handle()</text><polygon fill="#181818" points="1325,267.0938,1335,271.0938,1325,275.0938,1329,271.0938" style="stroke:#181818;stroke-width:1.0;"/><line style="stroke:#181818;stroke-width:1.0;" x1="627.5" x2="1331" y1="271.0938" y2="271.0938"/><text fill="#000000" font-family="sans-serif" font-size="13" lengthAdjust="spacing" textLength="46" x="634.5" y="266.0278">parse()</text><polygon fill="#181818" points="795.5,296.2266,805.5,300.2266,795.5,304.2266,799.5,300.2266" style="stroke:#181818;stroke-width:1.0;"/><line style="stroke:#181818;stroke-width:1.0;" x1="627.5" x2="801.5" y1="300.2266" y2="300.2266"/><text fill="#000000" font-family="sans-serif" font-size="13" lengthAdjust="spacing" textLength="123" x="634.5" y="295.1606">setTransferObject()</text><polygon fill="#181818" points="795.5,325.3594,805.5,329.3594,795.5,333.3594,799.5,329.3594" style="stroke:#181818;stroke-width:1.0;"/><line style="stroke:#181818;stroke-width:1.0;" x1="627.5" x2="801.5" y1="329.3594" y2="329.3594"/><text fill="#000000" font-family="sans-serif" font-size="13" lengthAdjust="spacing" textLength="101" x="634.5" y="324.2935">addAggegator()</text><polygon fill="#181818" points="957,354.4922,967,358.4922,957,362.4922,961,358.4922" style="stroke:#181818;stroke-width:1.0;"/><line style="stroke:#181818;stroke-width:1.0;" x1="622.5" x2="963" y1="358.4922" y2="358.4922"/><text fill="#000000" font-family="sans-serif" font-size="13" lengthAdjust="spacing" textLength="107" x="629.5" y="353.4263">update(logEntry)</text><line style="stroke:#181818;stroke-width:1.0;" x1="979" x2="1026" y1="382.625" y2="382.625"/><line style="stroke:#181818;stroke-width:1.0;" x1="1026" x2="1026" y1="382.625" y2="395.625"/><line style="stroke:#181818;stroke-width:1.0;" x1="985" x2="1026" y1="395.625" y2="395.625"/><polygon fill="#181818" points="995,391.625,985,395.625,995,399.625,991,395.625" style="stroke:#181818;stroke-width:1.0;"/><text fill="#000000" font-family="sans-serif" font-size="13" lengthAdjust="spacing" textLength="75" x="991" y="377.5591">handleList()</text><polygon fill="#181818" points="270.5,425.7578,260.5,429.7578,270.5,433.7578,266.5,429.7578" style="stroke:#181818;stroke-width:1.0;"/><line style="stroke:#181818;stroke-width:1.0;" x1="264.5" x2="973" y1="429.7578" y2="429.7578"/><text fill="#000000" font-family="sans-serif" font-size="13" lengthAdjust="spacing" textLength="101" x="276.5" y="424.6919">invokeWith(this)</text><polygon fill="#181818" points="426.5,454.8906,436.5,458.8906,426.5,462.8906,430.5,458.8906" style="stroke:#181818;stroke-width:1.0;"/><line style="stroke:#181818;stroke-width:1.0;" x1="259.5" x2="432.5" y1="458.8906" y2="458.8906"/><text fill="#000000" font-family="sans-serif" font-size="13" lengthAdjust="spacing" textLength="111" x="266.5" y="453.8247">invoke(this, aggt)</text><line style="stroke:#181818;stroke-width:1.0;" x1="979" x2="1026" y1="483.0234" y2="483.0234"/><line style="stroke:#181818;stroke-width:1.0;" x1="1026" x2="1026" y1="483.0234" y2="496.0234"/><line style="stroke:#181818;stroke-width:1.0;" x1="985" x2="1026" y1="496.0234" y2="496.0234"/><polygon fill="#181818" points="995,492.0234,985,496.0234,995,500.0234,991,496.0234" style="stroke:#181818;stroke-width:1.0;"/><text fill="#000000" font-family="sans-serif" font-size="13" lengthAdjust="spacing" textLength="94" x="991" y="477.9575">handleObject()</text><polygon fill="#181818" points="1169,526.1563,1179,530.1563,1169,534.1563,1173,530.1563" style="stroke:#181818;stroke-width:1.0;"/><line style="stroke:#181818;stroke-width:1.0;" x1="984" x2="1175" y1="530.1563" y2="530.1563"/><text fill="#000000" font-family="sans-serif" font-size="13" lengthAdjust="spacing" textLength="78" x="991" y="525.0903">addData(to)</text><polygon fill="#181818" points="270.5,555.2891,260.5,559.2891,270.5,563.2891,266.5,559.2891" style="stroke:#181818;stroke-width:1.0;"/><line style="stroke:#181818;stroke-width:1.0;" x1="264.5" x2="973" y1="559.2891" y2="559.2891"/><text fill="#000000" font-family="sans-serif" font-size="13" lengthAdjust="spacing" textLength="145" x="276.5" y="554.2231">invokeWith(this, "json")</text><polygon fill="#181818" points="426.5,584.4219,436.5,588.4219,426.5,592.4219,430.5,588.4219" style="stroke:#181818;stroke-width:1.0;"/><line style="stroke:#181818;stroke-width:1.0;" x1="259.5" x2="432.5" y1="588.4219" y2="588.4219"/><text fill="#000000" font-family="sans-serif" font-size="13" lengthAdjust="spacing" textLength="155" x="266.5" y="583.356">invoke(this, aggt, "json")</text><polygon fill="#181818" points="270.5,613.5547,260.5,617.5547,270.5,621.5547,266.5,617.5547" style="stroke:#181818;stroke-width:1.0;"/><line style="stroke:#181818;stroke-width:1.0;" x1="264.5" x2="973" y1="617.5547" y2="617.5547"/><text fill="#000000" font-family="sans-serif" font-size="13" lengthAdjust="spacing" textLength="142" x="276.5" y="612.4888">invokeWith(this, "xml")</text><polygon fill="#181818" points="426.5,642.6875,436.5,646.6875,426.5,650.6875,430.5,646.6875" style="stroke:#181818;stroke-width:1.0;"/><line style="stroke:#181818;stroke-width:1.0;" x1="259.5" x2="432.5" y1="646.6875" y2="646.6875"/><text fill="#000000" font-family="sans-serif" font-size="13" lengthAdjust="spacing" textLength="152" x="266.5" y="641.6216">invoke(this, aggt, "xml")</text><line style="stroke:#181818;stroke-width:1.0;" x1="979" x2="1026" y1="670.8203" y2="670.8203"/><line style="stroke:#181818;stroke-width:1.0;" x1="1026" x2="1026" y1="670.8203" y2="683.8203"/><line style="stroke:#181818;stroke-width:1.0;" x1="985" x2="1026" y1="683.8203" y2="683.8203"/><polygon fill="#181818" points="995,679.8203,985,683.8203,995,687.8203,991,683.8203" style="stroke:#181818;stroke-width:1.0;"/><text fill="#000000" font-family="sans-serif" font-size="13" lengthAdjust="spacing" textLength="96" x="991" y="665.7544">handleLayout()</text><polygon fill="#181818" points="1169,713.9531,1179,717.9531,1169,721.9531,1173,717.9531" style="stroke:#181818;stroke-width:1.0;"/><line style="stroke:#181818;stroke-width:1.0;" x1="984" x2="1175" y1="717.9531" y2="717.9531"/><text fill="#000000" font-family="sans-serif" font-size="13" lengthAdjust="spacing" textLength="90" x="991" y="712.8872">addLayout(to)</text><polygon fill="#181818" points="1169,743.0859,1179,747.0859,1169,751.0859,1173,747.0859" style="stroke:#181818;stroke-width:1.0;"/><line style="stroke:#181818;stroke-width:1.0;" x1="984" x2="1175" y1="747.0859" y2="747.0859"/><text fill="#000000" font-family="sans-serif" font-size="13" lengthAdjust="spacing" textLength="173" x="991" y="742.02">addPropertyDescription(to)</text><polygon fill="#181818" points="270.5,772.2188,260.5,776.2188,270.5,780.2188,266.5,776.2188" style="stroke:#181818;stroke-width:1.0;"/><line style="stroke:#181818;stroke-width:1.0;" x1="264.5" x2="973" y1="776.2188" y2="776.2188"/><text fill="#000000" font-family="sans-serif" font-size="13" lengthAdjust="spacing" textLength="101" x="276.5" y="771.1528">invokeWith(this)</text><polygon fill="#181818" points="426.5,801.3516,436.5,805.3516,426.5,809.3516,430.5,805.3516" style="stroke:#181818;stroke-width:1.0;"/><line style="stroke:#181818;stroke-width:1.0;" x1="259.5" x2="432.5" y1="805.3516" y2="805.3516"/><text fill="#000000" font-family="sans-serif" font-size="13" lengthAdjust="spacing" textLength="111" x="266.5" y="800.2856">invoke(this, aggt)</text><polygon fill="#181818" points="1169,830.4844,1179,834.4844,1169,838.4844,1173,834.4844" style="stroke:#181818;stroke-width:1.0;"/><line style="stroke:#181818;stroke-width:1.0;" x1="979" x2="1175" y1="834.4844" y2="834.4844"/><text fill="#000000" font-family="sans-serif" font-size="13" lengthAdjust="spacing" textLength="112" x="986" y="829.4185">canBeDisplayed()</text><polygon fill="#181818" points="127.5,859.6172,117.5,863.6172,127.5,867.6172,123.5,863.6172" style="stroke:#181818;stroke-width:1.0;"/><line style="stroke:#181818;stroke-width:1.0;" x1="121.5" x2="973" y1="863.6172" y2="863.6172"/><text fill="#000000" font-family="sans-serif" font-size="13" lengthAdjust="spacing" textLength="71" x="133.5" y="858.5513">openView()</text><polygon fill="#181818" points="35,888.75,25,892.75,35,896.75,31,892.75" style="stroke:#181818;stroke-width:1.0;"/><line style="stroke:#181818;stroke-width:1.0;" x1="29" x2="115.5" y1="892.75" y2="892.75"/><text fill="#000000" font-family="sans-serif" font-size="13" lengthAdjust="spacing" textLength="49" x="41" y="887.6841">present</text><!--MD5=[adbc5adb25af25b9c7ff2d12ee9215e3]
@startuml
actor User
participant "<<Singleton>>\nUI Manager" as UI
participant "<<description>>\nLink" as LNK #LightBlue
participant "(Xml)HttpRequest" as XHR
participant "<<ChainOfResponsibility>>\nResponseHandler" as RH
participant "<<description>>\n<<EventStore>>\nLogEntry" as LE #LightBlue
participant "<<moment-interval>>\nCollectionAggregator" as AGGT  #Pink
participant "<<thing>>\n<<DisplayModel>>\nCollectionDM" as DM #LightGreen
participant "<<description>>\nTransferObject" as TO #LightBlue

User -> UI : listAll()
UI -> LNK : invoke()
LNK -> XHR : Invoke()
XHR -> RH : handle()
activate RH
RH -> RH : successor.handle()
RH -> TO : parse()
RH -> LE : setTransferObject()
RH -> LE : addAggegator()
RH -> AGGT : update(logEntry)
deactivate RH
activate AGGT

AGGT -> AGGT : handleList()
activate AGGT
AGGT -> LNK : invokeWith(this)
LNK -> XHR: invoke(this, aggt)
deactivate AGGT

AGGT -> AGGT : handleObject()
activate AGGT
AGGT -> DM : addData(to)
AGGT -> LNK : invokeWith(this, "json")
LNK -> XHR: invoke(this, aggt, "json")
AGGT -> LNK : invokeWith(this, "xml")
LNK -> XHR: invoke(this, aggt, "xml")
deactivate AGGT

AGGT -> AGGT : handleLayout()
activate AGGT
AGGT -> DM : addLayout(to)
AGGT -> DM : addPropertyDescription(to)
AGGT -> LNK : invokeWith(this)
LNK -> XHR: invoke(this, aggt)
deactivate AGGT

AGGT -> DM : canBeDisplayed()
AGGT -> UI : openView()
deactivate AGGT


UI -> User : present
@enduml

PlantUML version 1.2022.12(Sun Oct 23 18:12:26 GMT 2022)
(GPL source distribution)
Java Runtime: OpenJDK Runtime Environment
JVM: OpenJDK 64-Bit Server VM
Default Encoding: UTF-8
Language: en
Country: US
--></g></svg>