<?xml version="1.0" encoding="UTF-8" standalone="no"?><svg xmlns="http://www.w3.org/2000/svg" xmlns:xlink="http://www.w3.org/1999/xlink" contentStyleType="text/css" height="423px" preserveAspectRatio="none" style="width:532px;height:423px;background:#FFFFFF;" version="1.1" viewBox="0 0 532 423" width="532px" zoomAndPan="magnify"><defs/><g><!--MD5=[bf52ada63cd2e6cd3f37b8d0408107a6]
cluster pets--><g id="cluster_pets"><path d="M8.5,6 L44.5,6 A3.75,3.75 0 0 1 47,8.5 L54,28.2969 L290.5,28.2969 A2.5,2.5 0 0 1 293,30.7969 L293,405.5 A2.5,2.5 0 0 1 290.5,408 L8.5,408 A2.5,2.5 0 0 1 6,405.5 L6,8.5 A2.5,2.5 0 0 1 8.5,6 " fill="none" style="stroke:#000000;stroke-width:1.5;"/><line style="stroke:#000000;stroke-width:1.5;" x1="6" x2="54" y1="28.2969" y2="28.2969"/><text fill="#000000" font-family="sans-serif" font-size="14" font-weight="bold" lengthAdjust="spacing" textLength="35" x="10" y="20.9951">pets</text></g><!--MD5=[d43df49e7bbc0a5622b66b0739f0a946]
cluster visits--><g id="cluster_visits"><path d="M319.5,179 L361.5,179 A3.75,3.75 0 0 1 364,181.5 L371,201.2969 L522.5,201.2969 A2.5,2.5 0 0 1 525,203.7969 L525,413.5 A2.5,2.5 0 0 1 522.5,416 L319.5,416 A2.5,2.5 0 0 1 317,413.5 L317,181.5 A2.5,2.5 0 0 1 319.5,179 " fill="none" style="stroke:#000000;stroke-width:1.5;"/><line style="stroke:#000000;stroke-width:1.5;" x1="317" x2="371" y1="201.2969" y2="201.2969"/><text fill="#000000" font-family="sans-serif" font-size="14" font-weight="bold" lengthAdjust="spacing" textLength="41" x="321" y="193.9951">visits</text></g><!--MD5=[090b45072795caa641b719bb9659a4d2]
class PetSpecies--><g id="elem_PetSpecies"><rect codeLine="14" fill="#00FFFF" height="113.4531" id="PetSpecies" rx="2.5" ry="2.5" style="stroke:#181818;stroke-width:0.5;" width="110" x="167" y="41"/><ellipse cx="182" cy="61.1328" fill="#EB937F" rx="11" ry="11" style="stroke:#181818;stroke-width:1.0;"/><path d="M186.1094,67.1328 L178.3906,67.1328 L178.3906,54.7422 L186.1094,54.7422 L186.1094,56.8984 L180.8438,56.8984 L180.8438,59.5703 L185.6094,59.5703 L185.6094,61.7266 L180.8438,61.7266 L180.8438,64.9766 L186.1094,64.9766 L186.1094,67.1328 Z " fill="#000000"/><text fill="#000000" font-family="sans-serif" font-size="12" font-style="italic" lengthAdjust="spacing" textLength="43" x="213.5" y="57.1387">«desc»</text><text fill="#000000" font-family="sans-serif" font-size="14" lengthAdjust="spacing" textLength="78" x="196" y="72.9639">PetSpecies</text><line style="stroke:#181818;stroke-width:0.5;" x1="168" x2="276" y1="81.2656" y2="81.2656"/><text fill="#000000" font-family="sans-serif" font-size="14" lengthAdjust="spacing" textLength="29" x="173" y="98.2607">Dog</text><text fill="#000000" font-family="sans-serif" font-size="14" lengthAdjust="spacing" textLength="23" x="173" y="114.5576">Cat</text><text fill="#000000" font-family="sans-serif" font-size="14" lengthAdjust="spacing" textLength="58" x="173" y="130.8545">Hamster</text><text fill="#000000" font-family="sans-serif" font-size="14" lengthAdjust="spacing" textLength="76" x="173" y="147.1514">Budgerigar</text></g><!--MD5=[9cfa872a99fa8e70a8c023fe905238fd]
class Pet--><g id="elem_Pet"><rect codeLine="21" fill="#90EE90" height="170.0469" id="Pet" rx="2.5" ry="2.5" style="stroke:#181818;stroke-width:0.5;" width="94" x="183" y="222"/><ellipse cx="211.95" cy="242.1328" fill="#ADD1B2" rx="11" ry="11" style="stroke:#181818;stroke-width:1.0;"/><path d="M214.9188,247.7734 Q214.3406,248.0703 213.7,248.2109 Q213.0594,248.3672 212.3563,248.3672 Q209.8563,248.3672 208.5281,246.7266 Q207.2156,245.0703 207.2156,241.9453 Q207.2156,238.8203 208.5281,237.1641 Q209.8563,235.5078 212.3563,235.5078 Q213.0594,235.5078 213.7,235.6641 Q214.3563,235.8203 214.9188,236.1172 L214.9188,238.8359 Q214.2938,238.2578 213.7,237.9922 Q213.1063,237.7109 212.4813,237.7109 Q211.1375,237.7109 210.45,238.7891 Q209.7625,239.8516 209.7625,241.9453 Q209.7625,244.0391 210.45,245.1172 Q211.1375,246.1797 212.4813,246.1797 Q213.1063,246.1797 213.7,245.9141 Q214.2938,245.6328 214.9188,245.0547 L214.9188,247.7734 Z " fill="#000000"/><text fill="#000000" font-family="sans-serif" font-size="12" font-style="italic" lengthAdjust="spacing" textLength="35" x="227.05" y="238.1387">«ppt»</text><text fill="#000000" font-family="sans-serif" font-size="14" lengthAdjust="spacing" textLength="23" x="233.05" y="253.9639">Pet</text><line style="stroke:#181818;stroke-width:0.5;" x1="184" x2="276" y1="262.2656" y2="262.2656"/><ellipse cx="194" cy="275.9141" fill="none" rx="3" ry="3" style="stroke:#038048;stroke-width:1.0;"/><text fill="#000000" font-family="sans-serif" font-size="14" lengthAdjust="spacing" textLength="12" x="203" y="279.2607">id</text><line style="stroke:#181818;stroke-width:1.0;stroke-dasharray:1.0,2.0;" x1="184" x2="276" y1="286.5625" y2="286.5625"/><polygon fill="none" points="194,295.2109,198,299.2109,194,303.2109,190,299.2109" style="stroke:#B38D22;stroke-width:1.0;"/><text fill="#000000" font-family="sans-serif" font-size="14" lengthAdjust="spacing" textLength="68" x="203" y="303.5576">petOwner</text><polygon fill="none" points="194,311.5078,198,315.5078,194,319.5078,190,315.5078" style="stroke:#B38D22;stroke-width:1.0;"/><text fill="#000000" font-family="sans-serif" font-size="14" lengthAdjust="spacing" textLength="39" x="203" y="319.8545">name</text><line style="stroke:#181818;stroke-width:1.0;stroke-dasharray:1.0,2.0;" x1="184" x2="276" y1="327.1563" y2="327.1563"/><rect fill="none" height="6" style="stroke:#C82930;stroke-width:1.0;" width="6" x="191" y="337.8047"/><text fill="#000000" font-family="sans-serif" font-size="14" lengthAdjust="spacing" textLength="54" x="203" y="344.1514">species</text><rect fill="none" height="6" style="stroke:#C82930;stroke-width:1.0;" width="6" x="191" y="354.1016"/><text fill="#000000" font-family="sans-serif" font-size="14" lengthAdjust="spacing" textLength="40" x="203" y="360.4482">notes</text><line style="stroke:#181818;stroke-width:1.0;stroke-dasharray:1.0,2.0;" x1="184" x2="276" y1="367.75" y2="367.75"/><rect fill="none" height="6" style="stroke:#C82930;stroke-width:1.0;" width="6" x="191" y="378.3984"/><text fill="#000000" font-family="sans-serif" font-size="14" lengthAdjust="spacing" textLength="50" x="203" y="384.7451">version</text></g><!--MD5=[298f3cc1e9c072e56c2f010460aa72aa]
class PetOwner--><g id="elem_PetOwner"><rect codeLine="34" fill="#FFFFE0" height="145.75" id="PetOwner" rx="2.5" ry="2.5" style="stroke:#181818;stroke-width:0.5;" width="126" x="22" y="234"/><ellipse cx="48.7" cy="254.1328" fill="#ADD1B2" rx="11" ry="11" style="stroke:#181818;stroke-width:1.0;"/><path d="M51.6688,259.7734 Q51.0906,260.0703 50.45,260.2109 Q49.8094,260.3672 49.1063,260.3672 Q46.6063,260.3672 45.2781,258.7266 Q43.9656,257.0703 43.9656,253.9453 Q43.9656,250.8203 45.2781,249.1641 Q46.6063,247.5078 49.1063,247.5078 Q49.8094,247.5078 50.45,247.6641 Q51.1063,247.8203 51.6688,248.1172 L51.6688,250.8359 Q51.0438,250.2578 50.45,249.9922 Q49.8563,249.7109 49.2313,249.7109 Q47.8875,249.7109 47.2,250.7891 Q46.5125,251.8516 46.5125,253.9453 Q46.5125,256.0391 47.2,257.1172 Q47.8875,258.1797 49.2313,258.1797 Q49.8563,258.1797 50.45,257.9141 Q51.0438,257.6328 51.6688,257.0547 L51.6688,259.7734 Z " fill="#000000"/><text fill="#000000" font-family="sans-serif" font-size="12" font-style="italic" lengthAdjust="spacing" textLength="38" x="80.3" y="250.1387">«role»</text><text fill="#000000" font-family="sans-serif" font-size="14" lengthAdjust="spacing" textLength="68" x="65.3" y="265.9639">PetOwner</text><line style="stroke:#181818;stroke-width:0.5;" x1="23" x2="147" y1="274.2656" y2="274.2656"/><ellipse cx="33" cy="287.9141" fill="none" rx="3" ry="3" style="stroke:#038048;stroke-width:1.0;"/><text fill="#000000" font-family="sans-serif" font-size="14" lengthAdjust="spacing" textLength="12" x="42" y="291.2607">id</text><line style="stroke:#181818;stroke-width:1.0;stroke-dasharray:1.0,2.0;" x1="23" x2="147" y1="298.5625" y2="298.5625"/><polygon fill="none" points="33,307.2109,37,311.2109,33,315.2109,29,311.2109" style="stroke:#B38D22;stroke-width:1.0;"/><text fill="#000000" font-family="sans-serif" font-size="14" lengthAdjust="spacing" textLength="64" x="42" y="315.5576">lastName</text><polygon fill="none" points="33,323.5078,37,327.5078,33,331.5078,29,327.5078" style="stroke:#B38D22;stroke-width:1.0;"/><text fill="#000000" font-family="sans-serif" font-size="14" lengthAdjust="spacing" textLength="65" x="42" y="331.8545">firstName</text><line style="stroke:#181818;stroke-width:1.0;stroke-dasharray:1.0,2.0;" x1="23" x2="147" y1="339.1563" y2="339.1563"/><rect fill="none" height="6" style="stroke:#C82930;stroke-width:1.0;" width="6" x="30" y="349.8047"/><text fill="#000000" font-family="sans-serif" font-size="14" lengthAdjust="spacing" textLength="100" x="42" y="356.1514">phoneNumber</text><rect fill="none" height="6" style="stroke:#C82930;stroke-width:1.0;" width="6" x="30" y="366.1016"/><text fill="#000000" font-family="sans-serif" font-size="14" lengthAdjust="spacing" textLength="93" x="42" y="372.4482">emailAddress</text></g><!--MD5=[e049a9fc6087ec9a0b5519edf8a49765]
class Visit--><g id="elem_Visit"><rect codeLine="48" fill="#FFB6C1" height="186.3438" id="Visit" rx="2.5" ry="2.5" style="stroke:#181818;stroke-width:0.5;" width="177" x="332.5" y="214"/><ellipse cx="402.75" cy="234.1328" fill="#ADD1B2" rx="11" ry="11" style="stroke:#181818;stroke-width:1.0;"/><path d="M405.7188,239.7734 Q405.1406,240.0703 404.5,240.2109 Q403.8594,240.3672 403.1563,240.3672 Q400.6563,240.3672 399.3281,238.7266 Q398.0156,237.0703 398.0156,233.9453 Q398.0156,230.8203 399.3281,229.1641 Q400.6563,227.5078 403.1563,227.5078 Q403.8594,227.5078 404.5,227.6641 Q405.1563,227.8203 405.7188,228.1172 L405.7188,230.8359 Q405.0938,230.2578 404.5,229.9922 Q403.9063,229.7109 403.2813,229.7109 Q401.9375,229.7109 401.25,230.7891 Q400.5625,231.8516 400.5625,233.9453 Q400.5625,236.0391 401.25,237.1172 Q401.9375,238.1797 403.2813,238.1797 Q403.9063,238.1797 404.5,237.9141 Q405.0938,237.6328 405.7188,237.0547 L405.7188,239.7734 Z " fill="#000000"/><text fill="#000000" font-family="sans-serif" font-size="12" font-style="italic" lengthAdjust="spacing" textLength="28" x="423.25" y="230.1387">«mi»</text><text fill="#000000" font-family="sans-serif" font-size="14" lengthAdjust="spacing" textLength="28" x="423.25" y="245.9639">Visit</text><line style="stroke:#181818;stroke-width:0.5;" x1="333.5" x2="508.5" y1="254.2656" y2="254.2656"/><ellipse cx="343.5" cy="267.9141" fill="none" rx="3" ry="3" style="stroke:#038048;stroke-width:1.0;"/><text fill="#000000" font-family="sans-serif" font-size="14" lengthAdjust="spacing" textLength="12" x="352.5" y="271.2607">id</text><line style="stroke:#181818;stroke-width:1.0;stroke-dasharray:1.0,2.0;" x1="333.5" x2="508.5" y1="278.5625" y2="278.5625"/><polygon fill="none" points="343.5,287.2109,347.5,291.2109,343.5,295.2109,339.5,291.2109" style="stroke:#B38D22;stroke-width:1.0;"/><text fill="#000000" font-family="sans-serif" font-size="14" lengthAdjust="spacing" textLength="23" x="352.5" y="295.5576">pet</text><polygon fill="none" points="343.5,303.5078,347.5,307.5078,343.5,311.5078,339.5,307.5078" style="stroke:#B38D22;stroke-width:1.0;"/><text fill="#000000" font-family="sans-serif" font-size="14" lengthAdjust="spacing" textLength="151" x="352.5" y="311.8545">visitAt: LocalDateTime</text><line style="stroke:#181818;stroke-width:1.0;stroke-dasharray:1.0,2.0;" x1="333.5" x2="508.5" y1="319.1563" y2="319.1563"/><rect fill="none" height="6" style="stroke:#C82930;stroke-width:1.0;" width="6" x="340.5" y="329.8047"/><text fill="#000000" font-family="sans-serif" font-size="14" lengthAdjust="spacing" textLength="48" x="352.5" y="336.1514">reason</text><line style="stroke:#181818;stroke-width:1.0;stroke-dasharray:1.0,2.0;" x1="333.5" x2="508.5" y1="343.4531" y2="343.4531"/><rect fill="none" height="6" style="stroke:#C82930;stroke-width:1.0;" width="6" x="340.5" y="354.1016"/><text fill="#000000" font-family="sans-serif" font-size="14" lengthAdjust="spacing" textLength="30" x="352.5" y="360.4482">cost</text><rect fill="none" height="6" style="stroke:#C82930;stroke-width:1.0;" width="6" x="340.5" y="370.3984"/><text fill="#000000" font-family="sans-serif" font-size="14" lengthAdjust="spacing" textLength="94" x="352.5" y="376.7451">paid: boolean</text><rect fill="none" height="6" style="stroke:#C82930;stroke-width:1.0;" width="6" x="340.5" y="386.6953"/><text fill="#000000" font-family="sans-serif" font-size="14" lengthAdjust="spacing" textLength="62" x="352.5" y="393.042">outcome</text></g><!--MD5=[a87e4590ce7090a69ece8af29152749d]
link PetOwner to Pet--><g id="link_PetOwner_Pet"><path codeLine="63" d="M160.15,307 C160.15,307 166.7,307 169.36,307 " fill="none" id="PetOwner-Pet" style="stroke:#181818;stroke-width:1.0;"/><polygon fill="#181818" points="182.68,307,173.68,303,177.68,307,173.68,311,182.68,307" style="stroke:#181818;stroke-width:1.0;"/><line style="stroke:#181818;stroke-width:1.0;" x1="177.68" x2="169.68" y1="307" y2="307"/><polygon fill="#181818" points="148.15,307,154.15,311,160.15,307,154.15,303,148.15,307" style="stroke:#181818;stroke-width:1.0;"/><text fill="#000000" font-family="sans-serif" font-size="13" lengthAdjust="spacing" textLength="23" x="155.953" y="302.7112">0..*</text></g><!--MD5=[bbb7bdc3ed87ac65eddf3444896f6ab4]
link Visit to Pet--><g id="link_Visit_Pet"><path codeLine="64" d="M332.41,307 C315.67,307 298.93,307 282.2,307 " fill="none" id="Visit-to-Pet" style="stroke:#181818;stroke-width:1.0;"/><polygon fill="#181818" points="277,307,286,311,282,307,286,303,277,307" style="stroke:#181818;stroke-width:1.0;"/><text fill="#000000" font-family="sans-serif" font-size="13" lengthAdjust="spacing" textLength="12" x="312.5768" y="287.8215">   </text><text fill="#000000" font-family="sans-serif" font-size="13" lengthAdjust="spacing" textLength="7" x="315.0768" y="302.9543">*</text></g><!--MD5=[7cf74b9fc99331c7f7f6dbd0d6c352bd]
reverse link PetSpecies to Pet--><g id="link_PetSpecies_Pet"><path codeLine="65" d="M224.35,159.53 C225.1,179 225.95,200.91 226.75,221.73 " fill="none" id="PetSpecies-backto-Pet" style="stroke:#181818;stroke-width:1.0;"/><polygon fill="#181818" points="224.14,154.11,220.4768,163.2523,224.3256,159.1066,228.4713,162.9553,224.14,154.11" style="stroke:#181818;stroke-width:1.0;"/><text fill="#000000" font-family="sans-serif" font-size="13" lengthAdjust="spacing" textLength="7" x="219.1699" y="210.8282">*</text></g><!--MD5=[ed94b88c7c90fe5c0ca1dbfeed89d3c0]
@startuml
hide empty members
hide methods

skinparam class {
	BackgroundColor<<desc>> Cyan
	BackgroundColor<<ppt>> LightGreen
	BackgroundColor<<mi>> LightPink
	BackgroundColor<<role>> LightYellow
}


package pets {

    enum PetSpecies <<desc>> {
        Dog
        Cat
        Hamster
        Budgerigar
    }

    class Pet <<ppt>> {
        +id
        ..
        #petOwner
        #name
        ..
        -species
        -notes
        ..
        -version
    }


    class PetOwner <<role>> {
        +id
        ..
        #lastName
        #firstName
        ..
        -phoneNumber
        -emailAddress
    }
}


package visits {

    class Visit <<mi>> {
        +id
        ..
        #pet
        #visitAt: LocalDateTime
        ..
        -reason
        ..
        -cost
        -paid: boolean
        -outcome
    }
}


PetOwner *-r- -> "0..*" Pet
Visit "   \n*" -r->  Pet
Pet  "*" -u-> PetSpecies
@enduml

PlantUML version 1.2022.12(Sun Oct 23 18:12:26 GMT 2022)
(GPL source distribution)
Java Runtime: OpenJDK Runtime Environment
JVM: OpenJDK 64-Bit Server VM
Default Encoding: UTF-8
Language: en
Country: US
--></g></svg>