<?xml version="1.0" encoding="UTF-8" standalone="no"?><svg xmlns="http://www.w3.org/2000/svg" xmlns:xlink="http://www.w3.org/1999/xlink" contentStyleType="text/css" height="827px" preserveAspectRatio="none" style="width:462px;height:827px;background:#FFFFFF;" version="1.1" viewBox="0 0 462 827" width="462px" zoomAndPan="magnify"><defs/><g><rect fill="none" height="26.2969" id="_title" style="stroke:none;stroke-width:1.0;" width="186" x="131" y="5"/><text fill="#000000" font-family="sans-serif" font-size="14" font-weight="bold" lengthAdjust="spacing" textLength="176" x="136" y="22.9951">Examples - Containers</text><!--MD5=[a20a5339884a347ed1c1c60f07c12995]
cluster Examples\n[Software System]--><g id="cluster_Examples\n[Software System]"><path d="M8.5,43.2969 L156.5,43.2969 A3.75,3.75 0 0 1 159,45.7969 L166,81.8906 L452.5,81.8906 A2.5,2.5 0 0 1 455,84.3906 L455,792.7969 A2.5,2.5 0 0 1 452.5,795.2969 L8.5,795.2969 A2.5,2.5 0 0 1 6,792.7969 L6,45.7969 A2.5,2.5 0 0 1 8.5,43.2969 " fill="none" style="stroke:#000000;stroke-width:1.5;"/><line style="stroke:#000000;stroke-width:1.5;" x1="6" x2="166" y1="81.8906" y2="81.8906"/><text fill="#000000" font-family="sans-serif" font-size="14" font-weight="bold" lengthAdjust="spacing" textLength="74" x="46.5" y="58.292">Examples</text><text fill="#000000" font-family="sans-serif" font-size="14" font-weight="bold" lengthAdjust="spacing" textLength="147" x="10" y="74.5889">[Software System]</text></g><!--MD5=[5721696d2af8d327c8f4e7ea88061d17]
entity 3--><g id="elem_3"><rect fill="#438DD5" height="50.2656" rx="2.5" ry="2.5" style="stroke:#2E6295;stroke-width:0.5;" width="155" x="264.5" y="729.2969"/><text fill="#FFFFFE" font-family="sans-serif" font-size="16" font-weight="bold" lengthAdjust="spacing" textLength="135" x="274.5" y="754.1484">Demo - Domain</text><text fill="#FFFFFE" font-family="sans-serif" font-size="10" lengthAdjust="spacing" textLength="128" x="278" y="767.2041">[Container: packaging: jar]</text></g><!--MD5=[ca8cb0432c9090f8973c99138b4c3ca0]
entity 4--><g id="elem_4"><rect fill="#438DD5" height="50.2656" rx="2.5" ry="2.5" style="stroke:#2E6295;stroke-width:0.5;" width="148" x="268" y="644.2969"/><text fill="#FFFFFE" font-family="sans-serif" font-size="16" font-weight="bold" lengthAdjust="spacing" textLength="128" x="278" y="669.1484">Demo - JavaFX</text><text fill="#FFFFFE" font-family="sans-serif" font-size="10" lengthAdjust="spacing" textLength="128" x="278" y="682.2041">[Container: packaging: jar]</text></g><!--MD5=[773709cb2207c097691e7e7d3d2cc787]
entity 2--><g id="elem_2"><rect fill="#438DD5" height="50.2656" rx="2.5" ry="2.5" style="stroke:#2E6295;stroke-width:0.5;" width="158" x="22" y="427.2969"/><text fill="#FFFFFE" font-family="sans-serif" font-size="16" font-weight="bold" lengthAdjust="spacing" textLength="130" x="36" y="452.1484">Demo - Parent</text><text fill="#FFFFFE" font-family="sans-serif" font-size="10" lengthAdjust="spacing" textLength="138" x="32" y="465.2041">[Container: packaging: pom]</text></g><!--MD5=[fad6a9c1e4f80769a7fea8e2093188d9]
entity 5--><g id="elem_5"><rect fill="#438DD5" height="50.2656" rx="2.5" ry="2.5" style="stroke:#2E6295;stroke-width:0.5;" width="148" x="268" y="559.2969"/><text fill="#FFFFFE" font-family="sans-serif" font-size="16" font-weight="bold" lengthAdjust="spacing" textLength="128" x="278" y="584.1484">Demo - Vaadin</text><text fill="#FFFFFE" font-family="sans-serif" font-size="10" lengthAdjust="spacing" textLength="128" x="278" y="597.2041">[Container: packaging: jar]</text></g><!--MD5=[a92bd7649e35c8a5fd4b3e9f57d24e4a]
entity 6--><g id="elem_6"><rect fill="#438DD5" height="50.2656" rx="2.5" ry="2.5" style="stroke:#2E6295;stroke-width:0.5;" width="148" x="268" y="474.2969"/><text fill="#FFFFFE" font-family="sans-serif" font-size="16" font-weight="bold" lengthAdjust="spacing" textLength="110" x="287" y="499.1484">Demo - Web</text><text fill="#FFFFFE" font-family="sans-serif" font-size="10" lengthAdjust="spacing" textLength="128" x="278" y="512.2041">[Container: packaging: jar]</text></g><!--MD5=[cbb381f34bde73e199f6c8e56df9562c]
entity 7--><g id="elem_7"><rect fill="#438DD5" height="68.8906" rx="2.5" ry="2.5" style="stroke:#2E6295;stroke-width:0.5;" width="158" x="263" y="369.7969"/><text fill="#FFFFFE" font-family="sans-serif" font-size="16" font-weight="bold" lengthAdjust="spacing" textLength="132" x="273" y="394.6484">Demo - Wicket</text><text fill="#FFFFFE" font-family="sans-serif" font-size="16" font-weight="bold" lengthAdjust="spacing" textLength="91" x="296.5" y="413.2734">(Common)</text><text fill="#FFFFFE" font-family="sans-serif" font-size="10" lengthAdjust="spacing" textLength="128" x="278" y="426.3291">[Container: packaging: jar]</text></g><!--MD5=[df1cfc51a8f3e60039521c9170723b8d]
entity 8--><g id="elem_8"><rect fill="#438DD5" height="50.2656" rx="2.5" ry="2.5" style="stroke:#2E6295;stroke-width:0.5;" width="191" x="246.5" y="284.2969"/><text fill="#FFFFFE" font-family="sans-serif" font-size="16" font-weight="bold" lengthAdjust="spacing" textLength="171" x="256.5" y="309.1484">Demo - Wicket/JDO</text><text fill="#FFFFFE" font-family="sans-serif" font-size="10" lengthAdjust="spacing" textLength="128" x="278" y="322.2041">[Container: packaging: jar]</text></g><!--MD5=[d25218acdea247ba6571a34297258ee9]
entity 9--><g id="elem_9"><rect fill="#438DD5" height="50.2656" rx="2.5" ry="2.5" style="stroke:#2E6295;stroke-width:0.5;" width="188" x="248" y="199.2969"/><text fill="#FFFFFE" font-family="sans-serif" font-size="16" font-weight="bold" lengthAdjust="spacing" textLength="168" x="258" y="224.1484">Demo - Wicket/JPA</text><text fill="#FFFFFE" font-family="sans-serif" font-size="10" lengthAdjust="spacing" textLength="128" x="278" y="237.2041">[Container: packaging: jar]</text></g><!--MD5=[832467b18690d1dd1b9afbdc6cb3d7bf]
entity 10--><g id="elem_10"><rect fill="#438DD5" height="68.8906" rx="2.5" ry="2.5" style="stroke:#2E6295;stroke-width:0.5;" width="194" x="245" y="94.7969"/><text fill="#FFFFFE" font-family="sans-serif" font-size="16" font-weight="bold" lengthAdjust="spacing" textLength="168" x="255" y="119.6484">Demo - Wicket/JPA</text><text fill="#FFFFFE" font-family="sans-serif" font-size="16" font-weight="bold" lengthAdjust="spacing" textLength="135" x="274.5" y="138.2734">(with GraphQL)</text><text fill="#FFFFFE" font-family="sans-serif" font-size="10" lengthAdjust="spacing" textLength="128" x="278" y="151.3291">[Container: packaging: jar]</text></g><!--MD5=[eeb69082328d10abd3b14fdeede0d8a3]
link 2 to 3--><g id="link_2_3"><path d="M109.8,477.4669 C126.67,528.1169 171.1,643.3169 245,711.2969 C251.23,717.0269 258.36,722.0969 265.85,726.5569 " fill="none" id="2-to-3" style="stroke:#707070;stroke-width:1.0;stroke-dasharray:7.0,7.0;"/><polygon fill="#707070" points="270.55,729.2469,264.7373,721.2963,266.2141,726.7569,260.7534,728.2337,270.55,729.2469" style="stroke:#707070;stroke-width:1.0;"/><text fill="#000000" font-family="sans-serif" font-size="10" lengthAdjust="spacing" textLength="3" x="211" y="673.5791"> </text></g><!--MD5=[d209f2622dd5d3103b9c9b4670e2d6db]
link 2 to 4--><g id="link_2_4"><path d="M117.34,477.5969 C140.82,514.5369 188.9,583.4769 245,626.2969 C252.47,631.9969 260.82,637.1469 269.39,641.7369 " fill="none" id="2-to-4" style="stroke:#707070;stroke-width:1.0;stroke-dasharray:7.0,7.0;"/><polygon fill="#707070" points="274.17,644.2269,268.0359,636.5215,269.7356,641.917,264.3401,643.6166,274.17,644.2269" style="stroke:#707070;stroke-width:1.0;"/><text fill="#000000" font-family="sans-serif" font-size="10" lengthAdjust="spacing" textLength="3" x="211" y="595.5791"> </text></g><!--MD5=[4e74f4bf4b09d37138dfb3a42c5ccc13]
link 2 to 5--><g id="link_2_5"><path d="M139.11,477.3369 C167.51,496.0069 207.95,521.5869 245,541.2969 C255.23,546.7369 266.28,552.1269 277.12,557.1469 " fill="none" id="2-to-5" style="stroke:#707070;stroke-width:1.0;stroke-dasharray:7.0,7.0;"/><polygon fill="#707070" points="281.75,559.2769,275.2398,551.8865,277.206,557.1906,271.9019,559.1568,281.75,559.2769" style="stroke:#707070;stroke-width:1.0;"/><text fill="#000000" font-family="sans-serif" font-size="10" lengthAdjust="spacing" textLength="3" x="211" y="520.5791"> </text></g><!--MD5=[8d5e64f07a3a026530162c78b23a3473]
link 2 to 6--><g id="link_2_6"><path d="M180.26,467.6869 C206.79,472.9069 236.41,478.7269 262.92,483.9469 " fill="none" id="2-to-6" style="stroke:#707070;stroke-width:1.0;stroke-dasharray:7.0,7.0;"/><polygon fill="#707070" points="267.84,484.9069,259.7897,479.233,262.9355,483.9345,258.234,487.0803,267.84,484.9069" style="stroke:#707070;stroke-width:1.0;"/><text fill="#000000" font-family="sans-serif" font-size="10" lengthAdjust="spacing" textLength="3" x="211" y="472.5791"> </text></g><!--MD5=[f03a35d0a29bcf5b4caf40b6b6655269]
link 2 to 7--><g id="link_2_7"><path d="M180.26,436.5769 C205.15,431.5769 232.75,426.0369 257.97,420.9769 " fill="none" id="2-to-7" style="stroke:#707070;stroke-width:1.0;stroke-dasharray:7.0,7.0;"/><polygon fill="#707070" points="262.98,419.9669,253.3679,417.8204,258.0782,420.953,254.9456,425.6633,262.98,419.9669" style="stroke:#707070;stroke-width:1.0;"/><text fill="#000000" font-family="sans-serif" font-size="10" lengthAdjust="spacing" textLength="3" x="211" y="427.5791"> </text></g><!--MD5=[0ad92ee86b71fc92e123e5500ea78341]
link 2 to 8--><g id="link_2_8"><path d="M134.07,427.2269 C162.32,405.7969 205.07,374.9269 245,352.2969 C254.71,346.7869 265.26,341.4669 275.69,336.5369 " fill="none" id="2-to-8" style="stroke:#707070;stroke-width:1.0;stroke-dasharray:7.0,7.0;"/><polygon fill="#707070" points="280.47,334.3069,270.6228,334.4898,275.9394,336.4221,274.0072,341.7387,280.47,334.3069" style="stroke:#707070;stroke-width:1.0;"/><text fill="#000000" font-family="sans-serif" font-size="10" lengthAdjust="spacing" textLength="3" x="211" y="369.5791"> </text></g><!--MD5=[676073e7019c75b59fc2b05612aba49c]
link 2 to 9--><g id="link_2_9"><path d="M115.75,427.0769 C138.18,387.9469 186.13,312.3569 245,266.2969 C251.89,260.9069 259.58,256.0569 267.53,251.7369 " fill="none" id="2-to-9" style="stroke:#707070;stroke-width:1.0;stroke-dasharray:7.0,7.0;"/><polygon fill="#707070" points="271.96,249.3969,262.1334,250.0581,267.5376,251.7297,265.8659,257.134,271.96,249.3969" style="stroke:#707070;stroke-width:1.0;"/><text fill="#000000" font-family="sans-serif" font-size="10" lengthAdjust="spacing" textLength="3" x="211" y="293.5791"> </text></g><!--MD5=[ecc6855e18f9a45a4c7eaf523375ba95]
link 2 to 10--><g id="link_2_10"><path d="M109.67,427.2269 C126.58,375.5069 171.49,255.6169 245,181.2969 C250.09,176.1469 255.8,171.3869 261.83,166.9969 " fill="none" id="2-to-10" style="stroke:#707070;stroke-width:1.0;stroke-dasharray:7.0,7.0;"/><polygon fill="#707070" points="266.05,164.0169,256.3911,165.9418,261.966,166.9014,261.0063,172.4763,266.05,164.0169" style="stroke:#707070;stroke-width:1.0;"/><text fill="#000000" font-family="sans-serif" font-size="10" lengthAdjust="spacing" textLength="3" x="211" y="216.5791"> </text></g><rect fill="none" height="16.2969" id="_caption" style="stroke:none;stroke-width:1.0;" width="174" x="137" y="802.2969"/><text fill="#000000" font-family="sans-serif" font-size="14" lengthAdjust="spacing" textLength="174" x="137" y="815.292">Artifact Hierarchy (Maven)</text><!--MD5=[77341bfed0ccbf5db1e32eb2763ba207]
@startuml
title Examples - Containers
caption Artifact Hierarchy (Maven)

skinparam {
  shadowing false
  arrowFontSize 10
  defaultTextAlignment center
  wrapWidth 200
  maxMessageSize 100
}
hide stereotype
left to right direction
skinparam rectangle<<2>> {
  BackgroundColor #438dd5
  FontColor #fffffe
  BorderColor #2E6295
}
skinparam rectangle<<3>> {
  BackgroundColor #438dd5
  FontColor #fffffe
  BorderColor #2E6295
}
skinparam rectangle<<4>> {
  BackgroundColor #438dd5
  FontColor #fffffe
  BorderColor #2E6295
}
skinparam rectangle<<5>> {
  BackgroundColor #438dd5
  FontColor #fffffe
  BorderColor #2E6295
}
skinparam rectangle<<6>> {
  BackgroundColor #438dd5
  FontColor #fffffe
  BorderColor #2E6295
}
skinparam rectangle<<7>> {
  BackgroundColor #438dd5
  FontColor #fffffe
  BorderColor #2E6295
}
skinparam rectangle<<8>> {
  BackgroundColor #438dd5
  FontColor #fffffe
  BorderColor #2E6295
}
skinparam rectangle<<9>> {
  BackgroundColor #438dd5
  FontColor #fffffe
  BorderColor #2E6295
}
skinparam rectangle<<10>> {
  BackgroundColor #438dd5
  FontColor #fffffe
  BorderColor #2E6295
}
package "Examples\n[Software System]" {
  rectangle "==Demo - Domain\n<size:10>[Container: packaging: jar]</size>" <<3>> as 3
  rectangle "==Demo - JavaFX\n<size:10>[Container: packaging: jar]</size>" <<4>> as 4
  rectangle "==Demo - Parent\n<size:10>[Container: packaging: pom]</size>" <<2>> as 2
  rectangle "==Demo - Vaadin\n<size:10>[Container: packaging: jar]</size>" <<5>> as 5
  rectangle "==Demo - Web\n<size:10>[Container: packaging: jar]</size>" <<6>> as 6
  rectangle "==Demo - Wicket (Common)\n<size:10>[Container: packaging: jar]</size>" <<7>> as 7
  rectangle "==Demo - Wicket/JDO\n<size:10>[Container: packaging: jar]</size>" <<8>> as 8
  rectangle "==Demo - Wicket/JPA\n<size:10>[Container: packaging: jar]</size>" <<9>> as 9
  rectangle "==Demo - Wicket/JPA (with GraphQL)\n<size:10>[Container: packaging: jar]</size>" <<10>> as 10
}
2 .[#707070].> 3 : ""
2 .[#707070].> 4 : ""
2 .[#707070].> 5 : ""
2 .[#707070].> 6 : ""
2 .[#707070].> 7 : ""
2 .[#707070].> 8 : ""
2 .[#707070].> 9 : ""
2 .[#707070].> 10 : ""
@enduml

PlantUML version 1.2022.12(Sun Oct 23 18:12:26 GMT 2022)
(GPL source distribution)
Java Runtime: OpenJDK Runtime Environment
JVM: OpenJDK 64-Bit Server VM
Default Encoding: UTF-8
Language: en
Country: US
--></g></svg>