<?xml version="1.0" encoding="UTF-8" standalone="no"?><svg xmlns="http://www.w3.org/2000/svg" xmlns:xlink="http://www.w3.org/1999/xlink" contentStyleType="text/css" height="230px" preserveAspectRatio="none" style="width:233px;height:230px;background:#FFFFFF;" version="1.1" viewBox="0 0 233 230" width="233px" zoomAndPan="magnify"><defs/><g><rect fill="none" height="26.2969" id="_title" style="stroke:none;stroke-width:1.0;" width="212" x="5" y="5"/><text fill="#000000" font-family="sans-serif" font-size="14" font-weight="bold" lengthAdjust="spacing" textLength="202" x="10" y="22.9951">Kroviz Client - Containers</text><!--MD5=[9684373a443847d5c0ed48c3ace655da]
cluster Kroviz Client\n[Software System]--><g id="cluster_Kroviz Client\n[Software System]"><path d="M11,43.2969 L159,43.2969 A3.75,3.75 0 0 1 161.5,45.7969 L168.5,81.8906 L224,81.8906 A2.5,2.5 0 0 1 226.5,84.3906 L226.5,195.7969 A2.5,2.5 0 0 1 224,198.2969 L11,198.2969 A2.5,2.5 0 0 1 8.5,195.7969 L8.5,45.7969 A2.5,2.5 0 0 1 11,43.2969 " fill="none" style="stroke:#000000;stroke-width:1.5;"/><line style="stroke:#000000;stroke-width:1.5;" x1="8.5" x2="168.5" y1="81.8906" y2="81.8906"/><text fill="#000000" font-family="sans-serif" font-size="14" font-weight="bold" lengthAdjust="spacing" textLength="100" x="36" y="58.292">Kroviz Client</text><text fill="#000000" font-family="sans-serif" font-size="14" font-weight="bold" lengthAdjust="spacing" textLength="147" x="12.5" y="74.5889">[Software System]</text></g><!--MD5=[773709cb2207c097691e7e7d3d2cc787]
entity 2--><g id="elem_2"><rect fill="#438DD5" height="87.5156" rx="2.5" ry="2.5" style="stroke:#2E6295;stroke-width:0.5;" width="186" x="24.5" y="94.2969"/><text fill="#FFFFFE" font-family="sans-serif" font-size="16" font-weight="bold" lengthAdjust="spacing" textLength="160" x="34.5" y="119.1484">Apache Causeway</text><text fill="#FFFFFE" font-family="sans-serif" font-size="16" font-weight="bold" lengthAdjust="spacing" textLength="155" x="37" y="137.7734">Incubator - Client</text><text fill="#FFFFFE" font-family="sans-serif" font-size="16" font-weight="bold" lengthAdjust="spacing" textLength="55" x="90" y="156.3984">kroViz</text><text fill="#FFFFFE" font-family="sans-serif" font-size="10" lengthAdjust="spacing" textLength="128" x="53.5" y="169.4541">[Container: packaging: jar]</text></g><rect fill="none" height="16.2969" id="_caption" style="stroke:none;stroke-width:1.0;" width="174" x="24" y="205.2969"/><text fill="#000000" font-family="sans-serif" font-size="14" lengthAdjust="spacing" textLength="174" x="24" y="218.292">Artifact Hierarchy (Maven)</text><!--MD5=[a24a5f59828d839c35f47eaef66b52c8]
@startuml
title Kroviz Client - Containers
caption Artifact Hierarchy (Maven)

skinparam {
  shadowing false
  arrowFontSize 10
  defaultTextAlignment center
  wrapWidth 200
  maxMessageSize 100
}
hide stereotype
left to right direction
skinparam rectangle<<2>> {
  BackgroundColor #438dd5
  FontColor #fffffe
  BorderColor #2E6295
}
package "Kroviz Client\n[Software System]" {
  rectangle "==Apache Causeway Incubator - Client kroViz\n<size:10>[Container: packaging: jar]</size>" <<2>> as 2
}
@enduml

PlantUML version 1.2022.12(Sun Oct 23 18:12:26 GMT 2022)
(GPL source distribution)
Java Runtime: OpenJDK Runtime Environment
JVM: OpenJDK 64-Bit Server VM
Default Encoding: UTF-8
Language: en
Country: US
--></g></svg>