<?xml version="1.0" encoding="UTF-8" standalone="no"?><svg xmlns="http://www.w3.org/2000/svg" xmlns:xlink="http://www.w3.org/1999/xlink" contentStyleType="text/css" height="212px" preserveAspectRatio="none" style="width:516px;height:212px;background:#FFFFFF;" version="1.1" viewBox="0 0 516 212" width="516px" zoomAndPan="magnify"><defs/><g><rect fill="none" height="26.2969" id="_title" style="stroke:none;stroke-width:1.0;" width="202" x="150" y="5"/><text fill="#000000" font-family="sans-serif" font-size="14" font-weight="bold" lengthAdjust="spacing" textLength="192" x="155" y="22.9951">Mavendeps - Containers</text><!--MD5=[c19392c61f01c7ddd2a287dc37674065]
cluster Mavendeps\n[Software System]--><g id="cluster_Mavendeps\n[Software System]"><path d="M8.5,43.2969 L156.5,43.2969 A3.75,3.75 0 0 1 159,45.7969 L166,81.8906 L506.5,81.8906 A2.5,2.5 0 0 1 509,84.3906 L509,177.7969 A2.5,2.5 0 0 1 506.5,180.2969 L8.5,180.2969 A2.5,2.5 0 0 1 6,177.7969 L6,45.7969 A2.5,2.5 0 0 1 8.5,43.2969 " fill="none" style="stroke:#000000;stroke-width:1.5;"/><line style="stroke:#000000;stroke-width:1.5;" x1="6" x2="166" y1="81.8906" y2="81.8906"/><text fill="#000000" font-family="sans-serif" font-size="14" font-weight="bold" lengthAdjust="spacing" textLength="90" x="38.5" y="58.292">Mavendeps</text><text fill="#000000" font-family="sans-serif" font-size="14" font-weight="bold" lengthAdjust="spacing" textLength="147" x="10" y="74.5889">[Software System]</text></g><!--MD5=[773709cb2207c097691e7e7d3d2cc787]
entity 2--><g id="elem_2"><rect fill="#438DD5" height="68.8906" rx="2.5" ry="2.5" style="stroke:#2E6295;stroke-width:0.5;" width="186" x="22" y="94.7969"/><text fill="#FFFFFE" font-family="sans-serif" font-size="16" font-weight="bold" lengthAdjust="spacing" textLength="160" x="32" y="119.6484">Apache Causeway</text><text fill="#FFFFFE" font-family="sans-serif" font-size="16" font-weight="bold" lengthAdjust="spacing" textLength="109" x="60.5" y="138.2734">Maven Deps</text><text fill="#FFFFFE" font-family="sans-serif" font-size="10" lengthAdjust="spacing" textLength="138" x="46" y="151.3291">[Container: packaging: pom]</text></g><!--MD5=[5721696d2af8d327c8f4e7ea88061d17]
entity 3--><g id="elem_3"><rect fill="#438DD5" height="68.8906" rx="2.5" ry="2.5" style="stroke:#2E6295;stroke-width:0.5;" width="220" x="273" y="94.7969"/><text fill="#FFFFFE" font-family="sans-serif" font-size="16" font-weight="bold" lengthAdjust="spacing" textLength="160" x="300" y="119.6484">Apache Causeway</text><text fill="#FFFFFE" font-family="sans-serif" font-size="16" font-weight="bold" lengthAdjust="spacing" textLength="200" x="283" y="138.2734">Maven Deps - Webapp</text><text fill="#FFFFFE" font-family="sans-serif" font-size="10" lengthAdjust="spacing" textLength="138" x="314" y="151.3291">[Container: packaging: pom]</text></g><!--MD5=[eeb69082328d10abd3b14fdeede0d8a3]
link 2 to 3--><g id="link_2_3"><path d="M208.29,129.2969 C227.52,129.2969 248,129.2969 267.91,129.2969 " fill="none" id="2-to-3" style="stroke:#707070;stroke-width:1.0;stroke-dasharray:7.0,7.0;"/><polygon fill="#707070" points="272.95,129.2969,263.95,125.2969,267.95,129.2969,263.95,133.2969,272.95,129.2969" style="stroke:#707070;stroke-width:1.0;"/><text fill="#000000" font-family="sans-serif" font-size="10" lengthAdjust="spacing" textLength="3" x="239" y="126.5791"> </text></g><rect fill="none" height="16.2969" id="_caption" style="stroke:none;stroke-width:1.0;" width="174" x="164" y="187.2969"/><text fill="#000000" font-family="sans-serif" font-size="14" lengthAdjust="spacing" textLength="174" x="164" y="200.292">Artifact Hierarchy (Maven)</text><!--MD5=[5409ece66ff5dd71015001c9c8bf76f3]
@startuml
title Mavendeps - Containers
caption Artifact Hierarchy (Maven)

skinparam {
  shadowing false
  arrowFontSize 10
  defaultTextAlignment center
  wrapWidth 200
  maxMessageSize 100
}
hide stereotype
left to right direction
skinparam rectangle<<2>> {
  BackgroundColor #438dd5
  FontColor #fffffe
  BorderColor #2E6295
}
skinparam rectangle<<3>> {
  BackgroundColor #438dd5
  FontColor #fffffe
  BorderColor #2E6295
}
package "Mavendeps\n[Software System]" {
  rectangle "==Apache Causeway Maven Deps\n<size:10>[Container: packaging: pom]</size>" <<2>> as 2
  rectangle "==Apache Causeway Maven Deps - Webapp\n<size:10>[Container: packaging: pom]</size>" <<3>> as 3
}
2 .[#707070].> 3 : ""
@enduml

PlantUML version 1.2022.12(Sun Oct 23 18:12:26 GMT 2022)
(GPL source distribution)
Java Runtime: OpenJDK Runtime Environment
JVM: OpenJDK 64-Bit Server VM
Default Encoding: UTF-8
Language: en
Country: US
--></g></svg>