<?xml version="1.0" encoding="UTF-8" standalone="no"?><svg xmlns="http://www.w3.org/2000/svg" xmlns:xlink="http://www.w3.org/1999/xlink" contentStyleType="text/css" height="230px" preserveAspectRatio="none" style="width:231px;height:230px;background:#FFFFFF;" version="1.1" viewBox="0 0 231 230" width="231px" zoomAndPan="magnify"><defs/><g><rect fill="none" height="26.2969" id="_title" style="stroke:none;stroke-width:1.0;" width="206" x="5.5" y="5"/><text fill="#000000" font-family="sans-serif" font-size="14" font-weight="bold" lengthAdjust="spacing" textLength="196" x="10.5" y="22.9951">Persistence - Containers</text><!--MD5=[9c2da4440f99887059b5b961133a649a]
cluster Persistence\n[Software System]--><g id="cluster_Persistence\n[Software System]"><path d="M8.5,43.2969 L156.5,43.2969 A3.75,3.75 0 0 1 159,45.7969 L166,81.8906 L221.5,81.8906 A2.5,2.5 0 0 1 224,84.3906 L224,195.7969 A2.5,2.5 0 0 1 221.5,198.2969 L8.5,198.2969 A2.5,2.5 0 0 1 6,195.7969 L6,45.7969 A2.5,2.5 0 0 1 8.5,43.2969 " fill="none" style="stroke:#000000;stroke-width:1.5;"/><line style="stroke:#000000;stroke-width:1.5;" x1="6" x2="166" y1="81.8906" y2="81.8906"/><text fill="#000000" font-family="sans-serif" font-size="14" font-weight="bold" lengthAdjust="spacing" textLength="94" x="36.5" y="58.292">Persistence</text><text fill="#000000" font-family="sans-serif" font-size="14" font-weight="bold" lengthAdjust="spacing" textLength="147" x="10" y="74.5889">[Software System]</text></g><!--MD5=[773709cb2207c097691e7e7d3d2cc787]
entity 2--><g id="elem_2"><rect fill="#438DD5" height="87.5156" rx="2.5" ry="2.5" style="stroke:#2E6295;stroke-width:0.5;" width="186" x="22" y="94.2969"/><text fill="#FFFFFE" font-family="sans-serif" font-size="16" font-weight="bold" lengthAdjust="spacing" textLength="160" x="32" y="119.1484">Apache Causeway</text><text fill="#FFFFFE" font-family="sans-serif" font-size="16" font-weight="bold" lengthAdjust="spacing" textLength="119" x="52.5" y="137.7734">Persistence -</text><text fill="#FFFFFE" font-family="sans-serif" font-size="16" font-weight="bold" lengthAdjust="spacing" textLength="87" x="71.5" y="156.3984">Commons</text><text fill="#FFFFFE" font-family="sans-serif" font-size="10" lengthAdjust="spacing" textLength="128" x="51" y="169.4541">[Container: packaging: jar]</text></g><rect fill="none" height="16.2969" id="_caption" style="stroke:none;stroke-width:1.0;" width="174" x="21.5" y="205.2969"/><text fill="#000000" font-family="sans-serif" font-size="14" lengthAdjust="spacing" textLength="174" x="21.5" y="218.292">Artifact Hierarchy (Maven)</text><!--MD5=[d8b67d40bdc9d4a5ceb655e67a3344df]
@startuml
title Persistence - Containers
caption Artifact Hierarchy (Maven)

skinparam {
  shadowing false
  arrowFontSize 10
  defaultTextAlignment center
  wrapWidth 200
  maxMessageSize 100
}
hide stereotype
left to right direction
skinparam rectangle<<2>> {
  BackgroundColor #438dd5
  FontColor #fffffe
  BorderColor #2E6295
}
package "Persistence\n[Software System]" {
  rectangle "==Apache Causeway Persistence - Commons\n<size:10>[Container: packaging: jar]</size>" <<2>> as 2
}
@enduml

PlantUML version 1.2022.12(Sun Oct 23 18:12:26 GMT 2022)
(GPL source distribution)
Java Runtime: OpenJDK Runtime Environment
JVM: OpenJDK 64-Bit Server VM
Default Encoding: UTF-8
Language: en
Country: US
--></g></svg>